font-logos.ufo
<glyph name="Alpine" format="2">
  <advance width="1200"/>
  <unicode hex="F300"/>
  <note>
Alpine
</note>
  <outline>
    <contour>
      <point x="433" y="587"/>
      <point x="423" y="589" type="qcurve" smooth="yes"/>
      <point x="414" y="591"/>
      <point x="404" y="594" type="qcurve" smooth="yes"/>
      <point x="392" y="599"/>
      <point x="381" y="603" type="qcurve" smooth="yes"/>
      <point x="366" y="610"/>
      <point x="354" y="620" type="qcurve"/>
      <point x="442" y="710" type="line"/>
      <point x="442" y="587" type="line"/>
    </contour>
    <contour>
      <point x="831" y="655" type="line"/>
      <point x="729" y="757" type="line"/>
      <point x="708" y="736" type="line"/>
      <point x="827" y="620" type="line"/>
      <point x="812" y="610"/>
      <point x="798" y="603" type="qcurve" smooth="yes"/>
      <point x="786" y="599"/>
      <point x="774" y="594" type="qcurve" smooth="yes"/>
      <point x="765" y="589"/>
      <point x="753" y="589" type="qcurve"/>
      <point x="746" y="587"/>
      <point x="727" y="587"/>
      <point x="720" y="589" type="qcurve"/>
      <point x="715" y="589"/>
      <point x="708" y="591" type="qcurve"/>
      <point x="706" y="594"/>
      <point x="701" y="594" type="qcurve"/>
      <point x="701" y="596"/>
      <point x="698" y="596" type="qcurve"/>
      <point x="649" y="651" type="line"/>
      <point x="502" y="795" type="line"/>
      <point x="447" y="746" type="line"/>
      <point x="300" y="596" type="line"/>
      <point x="298" y="596"/>
      <point x="298" y="596" type="qcurve"/>
      <point x="293" y="594"/>
      <point x="290" y="591" type="qcurve"/>
      <point x="283" y="589"/>
      <point x="279" y="589" type="qcurve"/>
      <point x="271" y="587"/>
      <point x="252" y="587"/>
      <point x="245" y="589" type="qcurve"/>
      <point x="233" y="589"/>
      <point x="224" y="594" type="qcurve" smooth="yes"/>
      <point x="212" y="599"/>
      <point x="200" y="603" type="qcurve" smooth="yes"/>
      <point x="186" y="610"/>
      <point x="172" y="620" type="qcurve"/>
      <point x="502" y="945" type="line"/>
      <point x="632" y="810" type="line"/>
      <point x="729" y="907" type="line"/>
      <point x="950" y="686" type="line"/>
      <point x="1019" y="620" type="line"/>
      <point x="1004" y="610"/>
      <point x="990" y="603" type="qcurve" smooth="yes"/>
      <point x="978" y="599"/>
      <point x="967" y="594" type="qcurve" smooth="yes"/>
      <point x="957" y="589"/>
      <point x="945" y="589" type="qcurve"/>
      <point x="938" y="587"/>
      <point x="919" y="587"/>
      <point x="912" y="589" type="qcurve"/>
      <point x="907" y="589"/>
      <point x="900" y="591" type="qcurve"/>
      <point x="898" y="594"/>
      <point x="893" y="594" type="qcurve"/>
      <point x="893" y="596"/>
      <point x="891" y="596" type="qcurve"/>
    </contour>
    <contour>
      <point x="309" y="1213" type="line"/>
      <point x="20" y="710" type="line"/>
      <point x="309" y="207" type="line"/>
      <point x="891" y="207" type="line"/>
      <point x="1180" y="710" type="line"/>
      <point x="891" y="1213" type="line"/>
    </contour>
    <contour>
      <point x="715" y="741" type="line"/>
      <point x="708" y="734" type="line"/>
      <point x="632" y="812" type="line"/>
      <point x="637" y="817" type="line"/>
    </contour>
  </outline>
</glyph>
<glyph name="AOSC OS" format="2">
  <advance width="1200"/>
  <unicode hex="F301"/>
  <note>
AOSC OS
</note>
  <outline>
    <contour>
      <point x="20" y="950"/>
      <point x="20" y="470"/>
      <point x="361" y="129"/>
      <point x="842" y="129"/>
      <point x="1180" y="470"/>
      <point x="1180" y="950"/>
      <point x="842" y="1291"/>
      <point x="361" y="1291"/>
    </contour>
    <contour>
      <point x="779" y="1137"/>
      <point x="1028" y="887"/>
      <point x="1028" y="710" type="qcurve" smooth="yes"/>
      <point x="1028" y="610"/>
      <point x="984" y="519" type="qcurve"/>
      <point x="788" y="621" type="line"/>
      <point x="809" y="663"/>
      <point x="809" y="712" type="qcurve" smooth="yes"/>
      <point x="809" y="796"/>
      <point x="688" y="918"/>
      <point x="599" y="918" type="qcurve" smooth="yes"/>
      <point x="596" y="918"/>
      <point x="594" y="918" type="qcurve"/>
      <point x="580" y="1137" type="line"/>
      <point x="589" y="1137"/>
      <point x="601" y="1137" type="qcurve" smooth="yes"/>
    </contour>
    <contour>
      <point x="566" y="1137" type="line"/>
      <point x="568" y="1137" type="line"/>
      <point x="566" y="1135" type="line"/>
    </contour>
    <contour>
      <point x="417" y="813" type="line"/>
      <point x="389" y="766"/>
      <point x="389" y="712" type="qcurve" smooth="yes"/>
      <point x="389" y="626"/>
      <point x="512" y="505"/>
      <point x="599" y="505" type="qcurve" smooth="yes"/>
      <point x="611" y="505"/>
      <point x="622" y="505" type="qcurve"/>
      <point x="636" y="283" type="line"/>
      <point x="618" y="283"/>
      <point x="601" y="283" type="qcurve" smooth="yes"/>
      <point x="424" y="283"/>
      <point x="174" y="533"/>
      <point x="174" y="710" type="qcurve" smooth="yes"/>
      <point x="174" y="817"/>
      <point x="223" y="913" type="qcurve"/>
    </contour>
  </outline>
</glyph>
<glyph name="Apple" format="2">
  <advance width="1200"/>
  <unicode hex="F302"/>
  <note>
Apple
</note>
  <outline>
    <contour>
      <point x="1169" y="355"/>
      <point x="1180" y="390" type="qcurve"/>
      <point x="1129" y="411"/>
      <point x="1086" y="452" type="qcurve" smooth="yes"/>
      <point x="992" y="538"/>
      <point x="989" y="670" type="qcurve" smooth="yes"/>
      <point x="989" y="839"/>
      <point x="1145" y="933" type="qcurve"/>
      <point x="1056" y="1057"/>
      <point x="884" y="1071" type="qcurve" smooth="yes"/>
      <point x="819" y="1076"/>
      <point x="725" y="1044" type="qcurve" smooth="yes"/>
      <point x="628" y="1009"/>
      <point x="609" y="1009" type="qcurve" smooth="yes"/>
      <point x="588" y="1009"/>
      <point x="424" y="1068"/>
      <point x="375" y="1068" type="qcurve" smooth="yes"/>
      <point x="284" y="1068"/>
      <point x="128" y="974"/>
      <point x="79" y="893" type="qcurve" smooth="yes"/>
      <point x="20" y="793"/>
      <point x="20" y="656" type="qcurve" smooth="yes"/>
      <point x="20" y="535"/>
      <point x="63" y="406" type="qcurve" smooth="yes"/>
      <point x="106" y="288"/>
      <point x="171" y="196" type="qcurve" smooth="yes"/>
      <point x="230" y="113"/>
      <point x="270" y="78" type="qcurve" smooth="yes"/>
      <point x="332" y="18"/>
      <point x="394" y="21" type="qcurve" smooth="yes"/>
      <point x="437" y="24"/>
      <point x="569" y="78"/>
      <point x="628" y="78" type="qcurve" smooth="yes"/>
      <point x="685" y="78"/>
      <point x="817" y="24"/>
      <point x="865" y="24" type="qcurve" smooth="yes"/>
      <point x="930" y="24"/>
      <point x="986" y="78" type="qcurve" smooth="yes"/>
      <point x="1024" y="110"/>
      <point x="1083" y="193" type="qcurve" smooth="yes"/>
      <point x="1126" y="253"/>
      <point x="1156" y="325" type="qcurve" smooth="yes"/>
    </contour>
    <contour>
      <point x="889" y="1386"/>
      <point x="889" y="1399" type="qcurve"/>
      <point x="835" y="1396"/>
      <point x="720" y="1337"/>
      <point x="679" y="1294" type="qcurve" smooth="yes"/>
      <point x="601" y="1203"/>
      <point x="601" y="1100" type="qcurve" smooth="yes"/>
      <point x="601" y="1087"/>
      <point x="601" y="1073" type="qcurve"/>
      <point x="717" y="1065"/>
      <point x="814" y="1178" type="qcurve" smooth="yes"/>
      <point x="889" y="1267"/>
      <point x="889" y="1372" type="qcurve" smooth="yes"/>
    </contour>
  </outline>
</glyph>
<glyph name="Arch Linux" format="2">
  <advance width="1200"/>
  <unicode hex="F303"/>
  <note>
Arch Linux
</note>
  <outline>
    <contour>
      <point x="473" y="1020"/>
      <point x="437" y="946" type="qcurve"/>
      <point x="505" y="873"/>
      <point x="580" y="821" type="qcurve"/>
      <point x="480" y="862"/>
      <point x="421" y="912" type="qcurve"/>
      <point x="315" y="687"/>
      <point x="20" y="159" type="qcurve"/>
      <point x="290" y="314"/>
      <point x="455" y="345" type="qcurve"/>
      <point x="448" y="384"/>
      <point x="448" y="420" type="qcurve" smooth="yes"/>
      <point x="448" y="427" type="line" smooth="yes"/>
      <point x="450" y="511"/>
      <point x="525" y="622"/>
      <point x="629" y="615"/>
      <point x="700" y="488"/>
      <point x="697" y="404" type="qcurve" smooth="yes"/>
      <point x="697" y="372"/>
      <point x="691" y="345" type="qcurve"/>
      <point x="856" y="314"/>
      <point x="1121" y="159" type="qcurve"/>
      <point x="1098" y="203"/>
      <point x="1028" y="332" type="qcurve"/>
      <point x="1021" y="338"/>
      <point x="967" y="381"/>
      <point x="935" y="404"/>
      <point x="872" y="445"/>
      <point x="838" y="463" type="qcurve"/>
      <point x="931" y="438"/>
      <point x="990" y="404" type="qcurve"/>
      <point x="935" y="504"/>
      <point x="847" y="674"/>
      <point x="784" y="794"/>
      <point x="722" y="916"/>
      <point x="693" y="977"/>
      <point x="645" y="1086"/>
      <point x="632" y="1120"/>
      <point x="580" y="1240"/>
      <point x="571" y="1261" type="qcurve"/>
    </contour>
    <contour>
      <point x="1126" y="257" type="line"/>
      <point x="1130" y="257" type="line"/>
      <point x="1130" y="289" type="line"/>
      <point x="1141" y="289" type="line"/>
      <point x="1141" y="291" type="line"/>
      <point x="1117" y="291" type="line"/>
      <point x="1117" y="289" type="line"/>
      <point x="1126" y="289" type="line"/>
      <point x="1126" y="257" type="line"/>
    </contour>
    <contour>
      <point x="1148" y="257" type="line"/>
      <point x="1153" y="257" type="line"/>
      <point x="1153" y="286" type="line"/>
      <point x="1162" y="257" type="line"/>
      <point x="1166" y="257" type="line"/>
      <point x="1175" y="286" type="line"/>
      <point x="1175" y="257" type="line"/>
      <point x="1180" y="257" type="line"/>
      <point x="1180" y="291" type="line"/>
      <point x="1173" y="291" type="line"/>
      <point x="1166" y="268" type="line" smooth="yes"/>
      <point x="1164" y="264"/>
      <point x="1164" y="261" type="qcurve"/>
      <point x="1164" y="264"/>
      <point x="1162" y="268" type="qcurve" smooth="yes"/>
      <point x="1155" y="291" type="line"/>
      <point x="1148" y="291" type="line"/>
      <point x="1148" y="257" type="line"/>
    </contour>
  </outline>
</glyph>
<glyph name="CentOS" format="2">
  <advance width="1200"/>
  <unicode hex="F304"/>
  <note>
CentOS
</note>
  <outline>
    <contour>
      <point x="79" y="651"/>
      <point x="138" y="592" type="qcurve"/>
      <point x="138" y="681" type="line"/>
      <point x="489" y="681" type="line"/>
      <point x="494" y="685"/>
      <point x="514" y="703"/>
      <point x="518" y="710" type="qcurve"/>
      <point x="514" y="712"/>
      <point x="500" y="728"/>
      <point x="489" y="739"/>
      <point x="482" y="744" type="qcurve"/>
      <point x="138" y="744" type="line"/>
      <point x="138" y="828" type="line"/>
      <point x="117" y="807"/>
      <point x="40" y="730"/>
      <point x="20" y="710" type="qcurve"/>
    </contour>
    <contour>
      <point x="1060" y="739"/>
      <point x="1028" y="742" type="qcurve"/>
      <point x="1001" y="739"/>
      <point x="740" y="742"/>
      <point x="711" y="742" type="qcurve"/>
      <point x="706" y="735"/>
      <point x="686" y="717"/>
      <point x="682" y="710" type="qcurve"/>
      <point x="684" y="708"/>
      <point x="709" y="683"/>
      <point x="718" y="676" type="qcurve"/>
      <point x="1062" y="676" type="line"/>
      <point x="1062" y="592" type="line"/>
      <point x="1083" y="613"/>
      <point x="1160" y="690"/>
      <point x="1180" y="710" type="qcurve"/>
      <point x="1166" y="724"/>
      <point x="1119" y="771"/>
      <point x="1080" y="810"/>
      <point x="1062" y="828" type="qcurve"/>
      <point x="1062" y="751" type="line"/>
    </contour>
    <contour>
      <point x="571" y="1172" type="line"/>
      <point x="571" y="821" type="line"/>
      <point x="584" y="807"/>
      <point x="600" y="792" type="qcurve"/>
      <point x="602" y="794"/>
      <point x="629" y="821"/>
      <point x="634" y="830" type="qcurve"/>
      <point x="634" y="1172" type="line"/>
      <point x="718" y="1172" type="line"/>
      <point x="700" y="1190"/>
      <point x="661" y="1229"/>
      <point x="614" y="1276"/>
      <point x="600" y="1290" type="qcurve"/>
      <point x="541" y="1231"/>
      <point x="482" y="1172" type="qcurve"/>
    </contour>
    <contour>
      <point x="566" y="248" type="line"/>
      <point x="482" y="248" type="line"/>
      <point x="600" y="130" type="line"/>
      <point x="620" y="150"/>
      <point x="697" y="227"/>
      <point x="718" y="248" type="qcurve"/>
      <point x="632" y="248" type="line"/>
      <point x="632" y="599" type="line"/>
      <point x="625" y="604"/>
      <point x="605" y="624"/>
      <point x="600" y="628" type="qcurve"/>
      <point x="595" y="624"/>
      <point x="573" y="601"/>
      <point x="566" y="594" type="qcurve"/>
    </contour>
    <contour>
      <point x="176" y="826"/>
      <point x="176" y="783" type="qcurve"/>
      <point x="446" y="783" type="line"/>
      <point x="419" y="810"/>
      <point x="360" y="869"/>
      <point x="290" y="939"/>
      <point x="269" y="959" type="qcurve"/>
      <point x="222" y="914"/>
      <point x="176" y="866" type="qcurve"/>
    </contour>
    <contour>
      <point x="353" y="1039" type="line"/>
      <point x="530" y="862" type="line"/>
      <point x="530" y="1131" type="line"/>
      <point x="444" y="1131" type="line"/>
    </contour>
    <contour>
      <point x="362" y="363"/>
      <point x="394" y="332"/>
      <point x="430" y="295"/>
      <point x="441" y="284" type="qcurve"/>
      <point x="446" y="284" type="line"/>
      <point x="448" y="284" type="line"/>
      <point x="450" y="284" type="line"/>
      <point x="453" y="284" type="line"/>
      <point x="455" y="284" type="line"/>
      <point x="457" y="284" type="line"/>
      <point x="460" y="284" type="line"/>
      <point x="462" y="284" type="line"/>
      <point x="464" y="284" type="line"/>
      <point x="466" y="284" type="line"/>
      <point x="469" y="284" type="line"/>
      <point x="471" y="284" type="line"/>
      <point x="473" y="284" type="line"/>
      <point x="475" y="284" type="line"/>
      <point x="478" y="284" type="line"/>
      <point x="480" y="284" type="line"/>
      <point x="482" y="284" type="line"/>
      <point x="484" y="284" type="line"/>
      <point x="487" y="284" type="line"/>
      <point x="489" y="284" type="line"/>
      <point x="491" y="284" type="line"/>
      <point x="494" y="284" type="line"/>
      <point x="496" y="284" type="line"/>
      <point x="498" y="284" type="line"/>
      <point x="500" y="284" type="line"/>
      <point x="503" y="284" type="line"/>
      <point x="505" y="284" type="line"/>
      <point x="507" y="284" type="line"/>
      <point x="509" y="284" type="line"/>
      <point x="512" y="284" type="line"/>
      <point x="514" y="284" type="line"/>
      <point x="516" y="284" type="line"/>
      <point x="518" y="284" type="line"/>
      <point x="521" y="284" type="line"/>
      <point x="523" y="284" type="line"/>
      <point x="525" y="284" type="line"/>
      <point x="525" y="554" type="line"/>
      <point x="496" y="524"/>
      <point x="378" y="406"/>
      <point x="349" y="377" type="qcurve"/>
    </contour>
    <contour>
      <point x="269" y="461" type="line"/>
      <point x="299" y="490"/>
      <point x="416" y="608"/>
      <point x="446" y="638" type="qcurve"/>
      <point x="176" y="638" type="line"/>
      <point x="176" y="624"/>
      <point x="176" y="567"/>
      <point x="176" y="554" type="qcurve"/>
    </contour>
    <contour>
      <point x="849" y="1043" type="line"/>
      <point x="802" y="1088"/>
      <point x="756" y="1134" type="qcurve"/>
      <point x="752" y="1134" type="line"/>
      <point x="750" y="1134" type="line"/>
      <point x="747" y="1134" type="line"/>
      <point x="745" y="1134" type="line"/>
      <point x="743" y="1134" type="line"/>
      <point x="740" y="1134" type="line"/>
      <point x="738" y="1134" type="line"/>
      <point x="736" y="1134" type="line"/>
      <point x="734" y="1134" type="line"/>
      <point x="731" y="1134" type="line"/>
      <point x="729" y="1134" type="line"/>
      <point x="727" y="1134" type="line"/>
      <point x="725" y="1134" type="line"/>
      <point x="722" y="1134" type="line"/>
      <point x="720" y="1134" type="line"/>
      <point x="718" y="1136" type="line"/>
      <point x="716" y="1136" type="line"/>
      <point x="713" y="1136" type="line"/>
      <point x="711" y="1136" type="line"/>
      <point x="709" y="1136" type="line"/>
      <point x="706" y="1136" type="line"/>
      <point x="704" y="1136" type="line"/>
      <point x="702" y="1136" type="line"/>
      <point x="700" y="1136" type="line"/>
      <point x="697" y="1136" type="line"/>
      <point x="695" y="1136" type="line"/>
      <point x="693" y="1136" type="line"/>
      <point x="691" y="1136" type="line"/>
      <point x="688" y="1136" type="line"/>
      <point x="686" y="1136" type="line"/>
      <point x="684" y="1136" type="line"/>
      <point x="682" y="1136" type="line"/>
      <point x="679" y="1136" type="line"/>
      <point x="677" y="1136" type="line"/>
      <point x="675" y="1136" type="line"/>
      <point x="673" y="1136" type="line"/>
      <point x="673" y="864" type="line"/>
    </contour>
    <contour>
      <point x="1021" y="783" type="line"/>
      <point x="1021" y="796"/>
      <point x="1021" y="853"/>
      <point x="1021" y="866" type="qcurve"/>
      <point x="974" y="912"/>
      <point x="929" y="959" type="qcurve"/>
      <point x="752" y="783" type="line"/>
    </contour>
    <contour>
      <point x="1024" y="554" type="line"/>
      <point x="1024" y="570"/>
      <point x="1024" y="624"/>
      <point x="1024" y="640" type="qcurve"/>
      <point x="754" y="640" type="line"/>
      <point x="784" y="610"/>
      <point x="901" y="493"/>
      <point x="931" y="463" type="qcurve"/>
    </contour>
    <contour>
      <point x="713" y="291"/>
      <point x="756" y="291" type="qcurve"/>
      <point x="849" y="384" type="line"/>
      <point x="820" y="413"/>
      <point x="702" y="531"/>
      <point x="673" y="560" type="qcurve"/>
      <point x="673" y="291" type="line"/>
    </contour>
    <contour>
      <point x="256" y="1000"/>
      <point x="269" y="1014" type="qcurve"/>
      <point x="346" y="937"/>
      <point x="500" y="783" type="qcurve"/>
      <point x="530" y="783" type="line"/>
      <point x="530" y="810" type="line"/>
      <point x="294" y="1041" type="line"/>
      <point x="328" y="1075"/>
      <point x="389" y="1134" type="qcurve"/>
      <point x="176" y="1134" type="line"/>
      <point x="176" y="923" type="line"/>
    </contour>
    <contour>
      <point x="673" y="615" type="line"/>
      <point x="908" y="381" type="line"/>
      <point x="815" y="286" type="line"/>
      <point x="1026" y="286" type="line"/>
      <point x="1026" y="499" type="line"/>
      <point x="933" y="406" type="line"/>
      <point x="700" y="640" type="line"/>
      <point x="673" y="640" type="line"/>
    </contour>
    <contour>
      <point x="883" y="1023" type="line"/>
      <point x="675" y="812" type="line"/>
      <point x="675" y="783" type="line"/>
      <point x="697" y="783" type="line"/>
      <point x="931" y="1018" type="line"/>
      <point x="1026" y="923" type="line"/>
      <point x="1026" y="1136" type="line"/>
      <point x="813" y="1136" type="line"/>
      <point x="899" y="1050" type="line"/>
    </contour>
    <contour>
      <point x="271" y="404" type="line"/>
      <point x="179" y="497" type="line"/>
      <point x="179" y="286" type="line"/>
      <point x="389" y="286" type="line"/>
      <point x="296" y="377" type="line"/>
      <point x="525" y="608" type="line"/>
      <point x="525" y="638" type="line"/>
      <point x="498" y="638" type="line"/>
    </contour>
  </outline>
</glyph>
<glyph name="CoreOS" format="2">
  <advance width="1200"/>
  <unicode hex="F305"/>
  <note>
CoreOS
</note>
  <outline>
    <contour>
      <point x="20" y="949"/>
      <point x="20" y="469"/>
      <point x="359" y="130"/>
      <point x="839" y="130"/>
      <point x="1180" y="469"/>
      <point x="1180" y="949"/>
      <point x="839" y="1290"/>
      <point x="359" y="1290"/>
    </contour>
    <contour>
      <point x="818" y="1236"/>
      <point x="1126" y="928"/>
      <point x="1126" y="710" type="qcurve" smooth="yes"/>
      <point x="1126" y="661"/>
      <point x="955" y="581"/>
      <point x="818" y="563" type="qcurve" smooth="yes"/>
      <point x="806" y="560"/>
      <point x="803" y="560" type="qcurve" smooth="yes"/>
      <point x="738" y="551"/>
      <point x="663" y="549" type="qcurve" smooth="yes"/>
      <point x="633" y="546"/>
      <point x="567" y="546"/>
      <point x="535" y="549" type="qcurve" smooth="yes"/>
      <point x="462" y="551"/>
      <point x="397" y="560" type="qcurve"/>
      <point x="390" y="609"/>
      <point x="390" y="661" type="qcurve" smooth="yes"/>
      <point x="387" y="682"/>
      <point x="387" y="736"/>
      <point x="390" y="759" type="qcurve" smooth="yes"/>
      <point x="390" y="811"/>
      <point x="397" y="860" type="qcurve"/>
      <point x="397" y="871"/>
      <point x="399" y="881" type="qcurve" smooth="yes"/>
      <point x="420" y="1037"/>
      <point x="530" y="1236"/>
      <point x="600" y="1236" type="qcurve" smooth="yes"/>
    </contour>
    <contour>
      <point x="560" y="972"/>
      <point x="600" y="972" type="qcurve" smooth="yes"/>
      <point x="722" y="972"/>
      <point x="801" y="881" type="qcurve" smooth="yes"/>
      <point x="810" y="869"/>
      <point x="818" y="857" type="qcurve" smooth="yes"/>
      <point x="862" y="792"/>
      <point x="862" y="710" type="qcurve" smooth="yes"/>
      <point x="862" y="682"/>
      <point x="759" y="640"/>
      <point x="677" y="633" type="qcurve" smooth="yes"/>
      <point x="640" y="628"/>
      <point x="560" y="628"/>
      <point x="523" y="633" type="qcurve"/>
      <point x="518" y="670"/>
      <point x="518" y="750"/>
      <point x="523" y="787" type="qcurve" smooth="yes"/>
      <point x="528" y="834"/>
      <point x="535" y="871" type="qcurve" smooth="yes"/>
    </contour>
  </outline>
</glyph>
<glyph name="Debian" format="2">
  <advance width="1200"/>
  <unicode hex="F306"/>
  <note>
Debian
</note>
  <outline>
    <contour>
      <point x="31" y="967"/>
      <point x="42" y="1009" type="qcurve"/>
      <point x="31" y="998"/>
      <point x="28" y="981"/>
      <point x="31" y="964"/>
      <point x="28" y="959" type="qcurve"/>
    </contour>
    <contour>
      <point x="79" y="1099"/>
      <point x="68" y="1082" type="qcurve"/>
      <point x="70" y="1082" type="line"/>
      <point x="76" y="1087"/>
      <point x="84" y="1093" type="qcurve"/>
      <point x="95" y="1115"/>
      <point x="76" y="1113"/>
      <point x="76" y="1115" type="qcurve" smooth="yes"/>
    </contour>
    <contour>
      <point x="635" y="1417"/>
      <point x="677" y="1420"/>
      <point x="682" y="1420" type="qcurve" smooth="yes"/>
      <point x="621" y="1417"/>
      <point x="618" y="1414" type="qcurve"/>
      <point x="627" y="1414" type="line"/>
    </contour>
    <contour>
      <point x="1135" y="771" type="line"/>
      <point x="1124" y="702"/>
      <point x="1093" y="640" type="qcurve"/>
      <point x="1130" y="704"/>
      <point x="1138" y="780" type="qcurve"/>
    </contour>
    <contour>
      <point x="484" y="646"/>
      <point x="473" y="671" type="qcurve"/>
      <point x="476" y="654"/>
      <point x="498" y="618" type="qcurve"/>
      <point x="490" y="640" type="line"/>
    </contour>
    <contour>
      <point x="450" y="621" type="line"/>
      <point x="490" y="567"/>
      <point x="498" y="562" type="qcurve"/>
      <point x="492" y="573"/>
      <point x="464" y="618"/>
      <point x="453" y="637" type="qcurve"/>
    </contour>
    <contour>
      <point x="1040" y="808" type="line"/>
      <point x="1040" y="808" type="line"/>
      <point x="1040" y="785"/>
      <point x="1018" y="718" type="qcurve"/>
      <point x="996" y="707" type="line"/>
      <point x="987" y="690"/>
      <point x="990" y="674"/>
      <point x="987" y="660" type="qcurve"/>
      <point x="903" y="587"/>
      <point x="889" y="584" type="qcurve"/>
      <point x="887" y="587"/>
      <point x="900" y="604" type="qcurve"/>
      <point x="889" y="595"/>
      <point x="867" y="573"/>
      <point x="845" y="559"/>
      <point x="819" y="553" type="qcurve"/>
      <point x="819" y="556" type="line"/>
      <point x="719" y="509"/>
      <point x="506" y="662"/>
      <point x="506" y="785" type="qcurve" smooth="yes"/>
      <point x="506" y="783"/>
      <point x="501" y="771" type="qcurve"/>
      <point x="495" y="839"/>
      <point x="559" y="953"/>
      <point x="618" y="981" type="qcurve" smooth="yes"/>
      <point x="677" y="1009"/>
      <point x="797" y="990"/>
      <point x="839" y="950" type="qcurve"/>
      <point x="778" y="1034"/>
      <point x="677" y="1029" type="qcurve" smooth="yes"/>
      <point x="627" y="1029"/>
      <point x="537" y="973"/>
      <point x="520" y="936" type="qcurve"/>
      <point x="501" y="922"/>
      <point x="470" y="841"/>
      <point x="467" y="836" type="qcurve"/>
      <point x="450" y="730"/>
      <point x="520" y="604"/>
      <point x="607" y="539" type="qcurve"/>
      <point x="618" y="537"/>
      <point x="615" y="517"/>
      <point x="615" y="517" type="qcurve"/>
      <point x="562" y="542"/>
      <point x="523" y="587" type="qcurve"/>
      <point x="548" y="551"/>
      <point x="571" y="534" type="qcurve"/>
      <point x="554" y="539"/>
      <point x="487" y="612"/>
      <point x="484" y="612" type="qcurve"/>
      <point x="526" y="539"/>
      <point x="730" y="450"/>
      <point x="794" y="478" type="qcurve"/>
      <point x="710" y="472"/>
      <point x="657" y="492" type="qcurve" smooth="yes"/>
      <point x="646" y="498"/>
      <point x="627" y="512"/>
      <point x="613" y="526"/>
      <point x="615" y="528" type="qcurve"/>
      <point x="811" y="453"/>
      <point x="965" y="576" type="qcurve" smooth="yes"/>
      <point x="976" y="584"/>
      <point x="1007" y="615"/>
      <point x="1026" y="632"/>
      <point x="1029" y="632" type="qcurve"/>
      <point x="1023" y="623"/>
      <point x="1026" y="615"/>
      <point x="1021" y="607" type="qcurve" smooth="yes"/>
      <point x="1032" y="626"/>
      <point x="1029" y="651"/>
      <point x="1049" y="679" type="qcurve"/>
      <point x="1063" y="660" type="line"/>
      <point x="1060" y="676"/>
      <point x="1105" y="766"/>
      <point x="1102" y="794" type="qcurve"/>
      <point x="1110" y="808"/>
      <point x="1110" y="785" type="qcurve" smooth="yes"/>
      <point x="1110" y="766"/>
      <point x="1102" y="738" type="qcurve"/>
      <point x="1113" y="752"/>
      <point x="1110" y="816"/>
      <point x="1110" y="825" type="qcurve"/>
      <point x="1124" y="791"/>
      <point x="1124" y="785" type="qcurve" smooth="yes"/>
      <point x="1121" y="813"/>
      <point x="1124" y="836"/>
      <point x="1141" y="875"/>
      <point x="1141" y="881" type="qcurve" smooth="yes"/>
      <point x="1141" y="883"/>
      <point x="1133" y="881"/>
      <point x="1130" y="881"/>
      <point x="1124" y="894"/>
      <point x="1121" y="914" type="qcurve" smooth="yes"/>
      <point x="1121" y="925"/>
      <point x="1130" y="931"/>
      <point x="1130" y="931" type="qcurve"/>
      <point x="1119" y="936"/>
      <point x="1107" y="981" type="qcurve"/>
      <point x="1110" y="984"/>
      <point x="1119" y="973"/>
      <point x="1124" y="962"/>
      <point x="1127" y="959" type="qcurve"/>
      <point x="1127" y="967"/>
      <point x="1116" y="1012"/>
      <point x="1116" y="1023" type="qcurve"/>
      <point x="1107" y="1045"/>
      <point x="1102" y="1037" type="qcurve" smooth="yes"/>
      <point x="1099" y="1031"/>
      <point x="1093" y="1043" type="qcurve" smooth="yes"/>
      <point x="1085" y="1065"/>
      <point x="1091" y="1079"/>
      <point x="1099" y="1076"/>
      <point x="1113" y="1076"/>
      <point x="1113" y="1087" type="qcurve"/>
      <point x="1141" y="1045"/>
      <point x="1172" y="939" type="qcurve"/>
      <point x="1163" y="990"/>
      <point x="1141" y="1045" type="qcurve"/>
      <point x="1146" y="1043"/>
      <point x="1144" y="1065" type="qcurve" smooth="yes"/>
      <point x="1141" y="1082"/>
      <point x="1141" y="1085" type="qcurve"/>
      <point x="1144" y="1085"/>
      <point x="1155" y="1065" type="qcurve"/>
      <point x="1133" y="1146"/>
      <point x="1010" y="1289"/>
      <point x="937" y="1325" type="qcurve"/>
      <point x="962" y="1303"/>
      <point x="956" y="1303" type="qcurve"/>
      <point x="942" y="1311"/>
      <point x="923" y="1325"/>
      <point x="920" y="1331"/>
      <point x="914" y="1339"/>
      <point x="914" y="1342" type="qcurve"/>
      <point x="900" y="1353"/>
      <point x="856" y="1342"/>
      <point x="850" y="1342" type="qcurve"/>
      <point x="819" y="1359"/>
      <point x="780" y="1372"/>
      <point x="727" y="1389"/>
      <point x="705" y="1398" type="qcurve"/>
      <point x="708" y="1384" type="line"/>
      <point x="691" y="1392"/>
      <point x="627" y="1381"/>
      <point x="607" y="1384" type="qcurve"/>
      <point x="638" y="1395" type="line"/>
      <point x="618" y="1392"/>
      <point x="573" y="1398"/>
      <point x="554" y="1392" type="qcurve"/>
      <point x="554" y="1392"/>
      <point x="587" y="1412" type="qcurve"/>
      <point x="573" y="1409"/>
      <point x="543" y="1403" type="qcurve"/>
      <point x="515" y="1403"/>
      <point x="518" y="1406" type="qcurve"/>
      <point x="509" y="1403"/>
      <point x="425" y="1370"/>
      <point x="381" y="1347"/>
      <point x="316" y="1308"/>
      <point x="297" y="1289" type="qcurve"/>
      <point x="294" y="1303" type="line"/>
      <point x="286" y="1291"/>
      <point x="221" y="1236"/>
      <point x="174" y="1182"/>
      <point x="171" y="1166" type="qcurve"/>
      <point x="163" y="1163" type="line"/>
      <point x="163" y="1163"/>
      <point x="129" y="1090" type="qcurve" smooth="yes"/>
      <point x="112" y="1059"/>
      <point x="107" y="1073" type="qcurve"/>
      <point x="73" y="1004"/>
      <point x="37" y="889" type="qcurve"/>
      <point x="42" y="881"/>
      <point x="42" y="825"/>
      <point x="40" y="760"/>
      <point x="40" y="724" type="qcurve" smooth="yes"/>
      <point x="28" y="489"/>
      <point x="330" y="70"/>
      <point x="537" y="14" type="qcurve"/>
      <point x="568" y="3"/>
      <point x="682" y="0" type="qcurve"/>
      <point x="657" y="6"/>
      <point x="590" y="17"/>
      <point x="559" y="28" type="qcurve" smooth="yes"/>
      <point x="543" y="36"/>
      <point x="518" y="56"/>
      <point x="490" y="87"/>
      <point x="481" y="95" type="qcurve"/>
      <point x="492" y="75" type="line"/>
      <point x="464" y="84"/>
      <point x="436" y="106"/>
      <point x="411" y="115" type="qcurve"/>
      <point x="425" y="131" type="line"/>
      <point x="411" y="131"/>
      <point x="375" y="165"/>
      <point x="367" y="179" type="qcurve"/>
      <point x="347" y="176" type="line"/>
      <point x="311" y="224"/>
      <point x="311" y="246" type="qcurve"/>
      <point x="305" y="235" type="line"/>
      <point x="302" y="238"/>
      <point x="291" y="254" type="qcurve" smooth="yes"/>
      <point x="238" y="324"/>
      <point x="246" y="327" type="qcurve" smooth="yes"/>
      <point x="249" y="327"/>
      <point x="258" y="324" type="qcurve"/>
      <point x="232" y="347"/>
      <point x="227" y="355" type="qcurve"/>
      <point x="235" y="366" type="line"/>
      <point x="196" y="416"/>
      <point x="199" y="439" type="qcurve"/>
      <point x="210" y="422"/>
      <point x="227" y="416" type="qcurve"/>
      <point x="207" y="461"/>
      <point x="182" y="489"/>
      <point x="165" y="481"/>
      <point x="146" y="506"/>
      <point x="132" y="548" type="qcurve"/>
      <point x="140" y="551" type="line"/>
      <point x="140" y="551"/>
      <point x="123" y="579" type="qcurve"/>
      <point x="129" y="615" type="line"/>
      <point x="115" y="632"/>
      <point x="107" y="702"/>
      <point x="112" y="760"/>
      <point x="121" y="861"/>
      <point x="123" y="878" type="qcurve" smooth="yes"/>
      <point x="126" y="894"/>
      <point x="168" y="973"/>
      <point x="174" y="992" type="qcurve"/>
      <point x="163" y="995" type="line"/>
      <point x="188" y="1037"/>
      <point x="319" y="1163"/>
      <point x="355" y="1160" type="qcurve"/>
      <point x="364" y="1174" type="line"/>
      <point x="358" y="1171" type="line" smooth="yes"/>
      <point x="347" y="1163"/>
      <point x="344" y="1168" type="qcurve"/>
      <point x="369" y="1194"/>
      <point x="403" y="1213"/>
      <point x="448" y="1216"/>
      <point x="456" y="1219" type="qcurve"/>
      <point x="467" y="1230" type="line" smooth="yes"/>
      <point x="464" y="1227"/>
      <point x="456" y="1227" type="qcurve" smooth="yes"/>
      <point x="439" y="1224"/>
      <point x="439" y="1230" type="qcurve"/>
      <point x="467" y="1236"/>
      <point x="532" y="1275"/>
      <point x="585" y="1280" type="qcurve"/>
      <point x="587" y="1277"/>
      <point x="576" y="1272" type="qcurve" smooth="yes"/>
      <point x="557" y="1266"/>
      <point x="554" y="1263" type="qcurve"/>
      <point x="596" y="1286"/>
      <point x="761" y="1275"/>
      <point x="822" y="1247" type="qcurve" smooth="yes"/>
      <point x="900" y="1210"/>
      <point x="1029" y="1034"/>
      <point x="1032" y="942" type="qcurve"/>
      <point x="1037" y="942" type="line"/>
      <point x="1037" y="928"/>
      <point x="1037" y="861"/>
      <point x="1035" y="805"/>
      <point x="1026" y="783" type="qcurve"/>
    </contour>
    <contour>
      <point x="638" y="1395" type="line"/>
      <point x="646" y="1395" type="line"/>
    </contour>
    <contour>
      <point x="624" y="1403"/>
      <point x="629" y="1400" type="qcurve"/>
      <point x="649" y="1398"/>
      <point x="646" y="1395" type="qcurve"/>
      <point x="652" y="1398"/>
      <point x="655" y="1398" type="qcurve" smooth="yes"/>
      <point x="621" y="1403"/>
      <point x="621" y="1403" type="qcurve"/>
    </contour>
    <contour>
      <point x="887" y="839"/>
      <point x="884" y="847" type="qcurve" smooth="yes"/>
      <point x="881" y="855"/>
      <point x="878" y="850" type="qcurve" smooth="yes"/>
      <point x="875" y="844"/>
      <point x="873" y="836" type="qcurve"/>
      <point x="873" y="836"/>
      <point x="878" y="825" type="qcurve" smooth="yes"/>
      <point x="881" y="813"/>
      <point x="884" y="822" type="qcurve" smooth="yes"/>
    </contour>
    <contour>
      <point x="839" y="702" type="qcurve"/>
      <point x="839" y="702" type="line"/>
      <point x="861" y="732"/>
      <point x="864" y="763" type="qcurve"/>
      <point x="864" y="752"/>
      <point x="845" y="721" type="qcurve"/>
      <point x="825" y="707"/>
      <point x="825" y="713" type="qcurve" smooth="yes"/>
      <point x="825" y="718"/>
      <point x="833" y="732" type="qcurve" smooth="yes"/>
      <point x="845" y="749"/>
      <point x="845" y="755" type="qcurve"/>
      <point x="831" y="732"/>
      <point x="819" y="713"/>
      <point x="828" y="710"/>
      <point x="839" y="707"/>
    </contour>
    <contour>
      <point x="710" y="671" type="qcurve"/>
      <point x="710" y="671" type="line"/>
      <point x="685" y="668"/>
      <point x="719" y="660" type="qcurve" smooth="yes"/>
      <point x="733" y="654"/>
      <point x="747" y="654" type="qcurve"/>
      <point x="758" y="662"/>
      <point x="769" y="674" type="qcurve"/>
      <point x="744" y="665"/>
    </contour>
  </outline>
</glyph>
<glyph name="Devuan" format="2">
  <advance width="1200"/>
  <unicode hex="F307"/>
  <note>
Devuan
</note>
  <outline>
    <contour>
      <point x="350" y="1190"/>
      <point x="776" y="1029"/>
      <point x="954" y="891"/>
      <point x="966" y="753"/>
      <point x="861" y="643"/>
      <point x="657" y="536"/>
      <point x="464" y="468"/>
      <point x="239" y="406"/>
      <point x="155" y="387"/>
      <point x="132" y="380" type="qcurve"/>
      <point x="72" y="372"/>
      <point x="44" y="325" type="qcurve" smooth="yes"/>
      <point x="8" y="266"/>
      <point x="39" y="211" type="qcurve" smooth="yes"/>
      <point x="68" y="166"/>
      <point x="120" y="154" type="qcurve"/>
      <point x="136" y="147"/>
      <point x="177" y="154"/>
      <point x="189" y="156"/>
      <point x="194" y="159" type="qcurve" smooth="yes"/>
      <point x="296" y="192" type="line" smooth="yes"/>
      <point x="398" y="223"/>
      <point x="690" y="342"/>
      <point x="980" y="484"/>
      <point x="1182" y="667"/>
      <point x="1180" y="748" type="qcurve" smooth="yes"/>
      <point x="1178" y="807"/>
      <point x="1052" y="945"/>
      <point x="793" y="1090"/>
      <point x="324" y="1226"/>
      <point x="20" y="1271" type="qcurve"/>
    </contour>
    <contour>
      <point x="20" y="1271" type="line"/>
      <point x="20" y="1271" type="line"/>
    </contour>
  </outline>
</glyph>
<glyph name="Docker" format="2">
  <advance width="1200"/>
  <unicode hex="F308"/>
  <note>
Docker
</note>
  <outline>
    <contour>
      <point x="622" y="1085" type="line"/>
      <point x="480" y="1085" type="line"/>
      <point x="480" y="969" type="line"/>
      <point x="244" y="969" type="line"/>
      <point x="244" y="850" type="line"/>
      <point x="125" y="850" type="line"/>
      <point x="125" y="728" type="line"/>
      <point x="22" y="728" type="line"/>
      <point x="22" y="710" type="line" smooth="yes"/>
      <point x="13" y="616"/>
      <point x="49" y="536" type="qcurve" smooth="yes"/>
      <point x="58" y="513" type="line"/>
      <point x="61" y="513" type="line"/>
      <point x="164" y="335"/>
      <point x="402" y="335" type="qcurve" smooth="yes"/>
      <point x="610" y="335"/>
      <point x="924" y="525"/>
      <point x="999" y="712" type="qcurve"/>
      <point x="1125" y="705"/>
      <point x="1171" y="795" type="qcurve" smooth="yes"/>
      <point x="1180" y="811" type="line"/>
      <point x="1164" y="820" type="line" smooth="yes"/>
      <point x="1102" y="856"/>
      <point x="1027" y="834" type="qcurve"/>
      <point x="1017" y="900"/>
      <point x="951" y="953" type="qcurve"/>
      <point x="937" y="966" type="line"/>
      <point x="924" y="950" type="line" smooth="yes"/>
      <point x="889" y="909"/>
      <point x="896" y="836" type="qcurve" smooth="yes"/>
      <point x="898" y="790"/>
      <point x="924" y="760" type="qcurve"/>
      <point x="905" y="749"/>
      <point x="882" y="742" type="qcurve" smooth="yes"/>
      <point x="841" y="728"/>
      <point x="800" y="728" type="qcurve" smooth="yes"/>
      <point x="741" y="728" type="line"/>
      <point x="741" y="850" type="line"/>
      <point x="622" y="850" type="line"/>
    </contour>
    <contour>
      <point x="230" y="735" type="line"/>
      <point x="239" y="735" type="line"/>
      <point x="239" y="822" type="line"/>
      <point x="230" y="822" type="line"/>
    </contour>
    <contour>
      <point x="214" y="735" type="line"/>
      <point x="223" y="735" type="line"/>
      <point x="223" y="822" type="line"/>
      <point x="214" y="822" type="line"/>
    </contour>
    <contour>
      <point x="198" y="735" type="line"/>
      <point x="207" y="735" type="line"/>
      <point x="207" y="822" type="line"/>
      <point x="198" y="822" type="line"/>
    </contour>
    <contour>
      <point x="184" y="735" type="line"/>
      <point x="191" y="735" type="line"/>
      <point x="191" y="822" type="line"/>
      <point x="184" y="822" type="line"/>
    </contour>
    <contour>
      <point x="168" y="735" type="line"/>
      <point x="175" y="735" type="line"/>
      <point x="175" y="822" type="line"/>
      <point x="168" y="822" type="line"/>
    </contour>
    <contour>
      <point x="152" y="735" type="line"/>
      <point x="161" y="735" type="line"/>
      <point x="161" y="822" type="line"/>
      <point x="152" y="822" type="line"/>
    </contour>
    <contour>
      <point x="246" y="829" type="line"/>
      <point x="246" y="726" type="line"/>
      <point x="143" y="726" type="line"/>
      <point x="143" y="829" type="line"/>
    </contour>
    <contour>
      <point x="349" y="854" type="line"/>
      <point x="356" y="854" type="line"/>
      <point x="356" y="939" type="line"/>
      <point x="349" y="939" type="line"/>
    </contour>
    <contour>
      <point x="333" y="854" type="line"/>
      <point x="342" y="854" type="line"/>
      <point x="342" y="939" type="line"/>
      <point x="333" y="939" type="line"/>
    </contour>
    <contour>
      <point x="317" y="854" type="line"/>
      <point x="326" y="854" type="line"/>
      <point x="326" y="939" type="line"/>
      <point x="317" y="939" type="line"/>
    </contour>
    <contour>
      <point x="301" y="854" type="line"/>
      <point x="310" y="854" type="line"/>
      <point x="310" y="939" type="line"/>
      <point x="301" y="939" type="line"/>
    </contour>
    <contour>
      <point x="287" y="854" type="line"/>
      <point x="294" y="854" type="line"/>
      <point x="294" y="939" type="line"/>
      <point x="287" y="939" type="line"/>
    </contour>
    <contour>
      <point x="271" y="854" type="line"/>
      <point x="278" y="854" type="line"/>
      <point x="278" y="939" type="line"/>
      <point x="271" y="939" type="line"/>
    </contour>
    <contour>
      <point x="365" y="948" type="line"/>
      <point x="365" y="845" type="line"/>
      <point x="262" y="845" type="line"/>
      <point x="262" y="948" type="line"/>
    </contour>
    <contour>
      <point x="349" y="735" type="line"/>
      <point x="356" y="735" type="line"/>
      <point x="356" y="822" type="line"/>
      <point x="349" y="822" type="line"/>
    </contour>
    <contour>
      <point x="333" y="735" type="line"/>
      <point x="342" y="735" type="line"/>
      <point x="342" y="822" type="line"/>
      <point x="333" y="822" type="line"/>
    </contour>
    <contour>
      <point x="317" y="735" type="line"/>
      <point x="326" y="735" type="line"/>
      <point x="326" y="822" type="line"/>
      <point x="317" y="822" type="line"/>
    </contour>
    <contour>
      <point x="301" y="735" type="line"/>
      <point x="310" y="735" type="line"/>
      <point x="310" y="822" type="line"/>
      <point x="301" y="822" type="line"/>
    </contour>
    <contour>
      <point x="287" y="735" type="line"/>
      <point x="294" y="735" type="line"/>
      <point x="294" y="822" type="line"/>
      <point x="287" y="822" type="line"/>
    </contour>
    <contour>
      <point x="271" y="735" type="line"/>
      <point x="278" y="735" type="line"/>
      <point x="278" y="822" type="line"/>
      <point x="271" y="822" type="line"/>
    </contour>
    <contour>
      <point x="365" y="829" type="line"/>
      <point x="365" y="726" type="line"/>
      <point x="262" y="726" type="line"/>
      <point x="262" y="829" type="line"/>
    </contour>
    <contour>
      <point x="468" y="735" type="line"/>
      <point x="475" y="735" type="line"/>
      <point x="475" y="822" type="line"/>
      <point x="468" y="822" type="line"/>
    </contour>
    <contour>
      <point x="452" y="735" type="line"/>
      <point x="459" y="735" type="line"/>
      <point x="459" y="822" type="line"/>
      <point x="452" y="822" type="line"/>
    </contour>
    <contour>
      <point x="436" y="735" type="line"/>
      <point x="445" y="735" type="line"/>
      <point x="445" y="822" type="line"/>
      <point x="436" y="822" type="line"/>
    </contour>
    <contour>
      <point x="420" y="735" type="line"/>
      <point x="429" y="735" type="line"/>
      <point x="429" y="822" type="line"/>
      <point x="420" y="822" type="line"/>
    </contour>
    <contour>
      <point x="404" y="735" type="line"/>
      <point x="413" y="735" type="line"/>
      <point x="413" y="822" type="line"/>
      <point x="404" y="822" type="line"/>
    </contour>
    <contour>
      <point x="390" y="735" type="line"/>
      <point x="397" y="735" type="line"/>
      <point x="397" y="822" type="line"/>
      <point x="390" y="822" type="line"/>
    </contour>
    <contour>
      <point x="484" y="829" type="line"/>
      <point x="484" y="726" type="line"/>
      <point x="381" y="726" type="line"/>
      <point x="381" y="829" type="line"/>
    </contour>
    <contour>
      <point x="468" y="854" type="line"/>
      <point x="475" y="854" type="line"/>
      <point x="475" y="939" type="line"/>
      <point x="468" y="939" type="line"/>
    </contour>
    <contour>
      <point x="452" y="854" type="line"/>
      <point x="459" y="854" type="line"/>
      <point x="459" y="939" type="line"/>
      <point x="452" y="939" type="line"/>
    </contour>
    <contour>
      <point x="436" y="854" type="line"/>
      <point x="445" y="854" type="line"/>
      <point x="445" y="939" type="line"/>
      <point x="436" y="939" type="line"/>
    </contour>
    <contour>
      <point x="420" y="854" type="line"/>
      <point x="429" y="854" type="line"/>
      <point x="429" y="939" type="line"/>
      <point x="420" y="939" type="line"/>
    </contour>
    <contour>
      <point x="404" y="854" type="line"/>
      <point x="413" y="854" type="line"/>
      <point x="413" y="939" type="line"/>
      <point x="404" y="939" type="line"/>
    </contour>
    <contour>
      <point x="390" y="854" type="line"/>
      <point x="397" y="854" type="line"/>
      <point x="397" y="939" type="line"/>
      <point x="390" y="939" type="line"/>
    </contour>
    <contour>
      <point x="484" y="948" type="line"/>
      <point x="484" y="845" type="line"/>
      <point x="381" y="845" type="line"/>
      <point x="381" y="948" type="line"/>
    </contour>
    <contour>
      <point x="585" y="735" type="line"/>
      <point x="594" y="735" type="line"/>
      <point x="594" y="822" type="line"/>
      <point x="585" y="822" type="line"/>
    </contour>
    <contour>
      <point x="571" y="735" type="line"/>
      <point x="578" y="735" type="line"/>
      <point x="578" y="822" type="line"/>
      <point x="571" y="822" type="line"/>
    </contour>
    <contour>
      <point x="555" y="735" type="line"/>
      <point x="562" y="735" type="line"/>
      <point x="562" y="822" type="line"/>
      <point x="555" y="822" type="line"/>
    </contour>
    <contour>
      <point x="539" y="735" type="line"/>
      <point x="548" y="735" type="line"/>
      <point x="548" y="822" type="line"/>
      <point x="539" y="822" type="line"/>
    </contour>
    <contour>
      <point x="523" y="735" type="line"/>
      <point x="532" y="735" type="line"/>
      <point x="532" y="822" type="line"/>
      <point x="523" y="822" type="line"/>
    </contour>
    <contour>
      <point x="509" y="735" type="line"/>
      <point x="516" y="735" type="line"/>
      <point x="516" y="822" type="line"/>
      <point x="509" y="822" type="line"/>
    </contour>
    <contour>
      <point x="603" y="829" type="line"/>
      <point x="603" y="726" type="line"/>
      <point x="500" y="726" type="line"/>
      <point x="500" y="829" type="line"/>
    </contour>
    <contour>
      <point x="585" y="854" type="line"/>
      <point x="594" y="854" type="line"/>
      <point x="594" y="939" type="line"/>
      <point x="585" y="939" type="line"/>
    </contour>
    <contour>
      <point x="571" y="854" type="line"/>
      <point x="578" y="854" type="line"/>
      <point x="578" y="939" type="line"/>
      <point x="571" y="939" type="line"/>
    </contour>
    <contour>
      <point x="555" y="854" type="line"/>
      <point x="562" y="854" type="line"/>
      <point x="562" y="939" type="line"/>
      <point x="555" y="939" type="line"/>
    </contour>
    <contour>
      <point x="539" y="854" type="line"/>
      <point x="548" y="854" type="line"/>
      <point x="548" y="939" type="line"/>
      <point x="539" y="939" type="line"/>
    </contour>
    <contour>
      <point x="523" y="854" type="line"/>
      <point x="532" y="854" type="line"/>
      <point x="532" y="939" type="line"/>
      <point x="523" y="939" type="line"/>
    </contour>
    <contour>
      <point x="509" y="854" type="line"/>
      <point x="516" y="854" type="line"/>
      <point x="516" y="939" type="line"/>
      <point x="509" y="939" type="line"/>
    </contour>
    <contour>
      <point x="603" y="948" type="line"/>
      <point x="603" y="845" type="line"/>
      <point x="500" y="845" type="line"/>
      <point x="500" y="948" type="line"/>
    </contour>
    <contour>
      <point x="585" y="973" type="line"/>
      <point x="594" y="973" type="line"/>
      <point x="594" y="1058" type="line"/>
      <point x="585" y="1058" type="line"/>
    </contour>
    <contour>
      <point x="571" y="973" type="line"/>
      <point x="578" y="973" type="line"/>
      <point x="578" y="1058" type="line"/>
      <point x="571" y="1058" type="line"/>
    </contour>
    <contour>
      <point x="555" y="973" type="line"/>
      <point x="562" y="973" type="line"/>
      <point x="562" y="1058" type="line"/>
      <point x="555" y="1058" type="line"/>
    </contour>
    <contour>
      <point x="539" y="973" type="line"/>
      <point x="548" y="973" type="line"/>
      <point x="548" y="1058" type="line"/>
      <point x="539" y="1058" type="line"/>
    </contour>
    <contour>
      <point x="523" y="973" type="line"/>
      <point x="532" y="973" type="line"/>
      <point x="532" y="1058" type="line"/>
      <point x="523" y="1058" type="line"/>
    </contour>
    <contour>
      <point x="509" y="973" type="line"/>
      <point x="516" y="973" type="line"/>
      <point x="516" y="1058" type="line"/>
      <point x="509" y="1058" type="line"/>
    </contour>
    <contour>
      <point x="603" y="1067" type="line"/>
      <point x="603" y="964" type="line"/>
      <point x="500" y="964" type="line"/>
      <point x="500" y="1067" type="line"/>
    </contour>
    <contour>
      <point x="704" y="735" type="line"/>
      <point x="713" y="735" type="line"/>
      <point x="713" y="822" type="line"/>
      <point x="704" y="822" type="line"/>
    </contour>
    <contour>
      <point x="688" y="735" type="line"/>
      <point x="697" y="735" type="line"/>
      <point x="697" y="822" type="line"/>
      <point x="688" y="822" type="line"/>
    </contour>
    <contour>
      <point x="674" y="735" type="line"/>
      <point x="681" y="735" type="line"/>
      <point x="681" y="822" type="line"/>
      <point x="674" y="822" type="line"/>
    </contour>
    <contour>
      <point x="658" y="735" type="line"/>
      <point x="665" y="735" type="line"/>
      <point x="665" y="822" type="line"/>
      <point x="658" y="822" type="line"/>
    </contour>
    <contour>
      <point x="642" y="735" type="line"/>
      <point x="651" y="735" type="line"/>
      <point x="651" y="822" type="line"/>
      <point x="642" y="822" type="line"/>
    </contour>
    <contour>
      <point x="626" y="735" type="line"/>
      <point x="635" y="735" type="line"/>
      <point x="635" y="822" type="line"/>
      <point x="626" y="822" type="line"/>
    </contour>
    <contour>
      <point x="720" y="829" type="line"/>
      <point x="720" y="726" type="line"/>
      <point x="619" y="726" type="line"/>
      <point x="619" y="829" type="line"/>
    </contour>
    <contour>
      <point x="358" y="561" type="line"/>
      <point x="370" y="561"/>
      <point x="388" y="543"/>
      <point x="388" y="520"/>
      <point x="370" y="504"/>
      <point x="347" y="504"/>
      <point x="331" y="520"/>
      <point x="331" y="543"/>
      <point x="347" y="561"/>
      <point x="358" y="561" type="qcurve"/>
    </contour>
    <contour>
      <point x="358" y="552" type="line"/>
      <point x="338" y="552"/>
      <point x="338" y="511"/>
      <point x="379" y="511"/>
      <point x="379" y="531" type="qcurve" smooth="yes"/>
      <point x="379" y="536"/>
      <point x="377" y="541" type="qcurve"/>
      <point x="374" y="536"/>
      <point x="370" y="536" type="qcurve" smooth="yes"/>
      <point x="363" y="536"/>
      <point x="363" y="543" type="qcurve" smooth="yes"/>
      <point x="363" y="547"/>
      <point x="365" y="550" type="qcurve"/>
      <point x="363" y="552"/>
      <point x="358" y="552" type="qcurve"/>
    </contour>
    <contour>
      <point x="418" y="355"/>
      <point x="402" y="355" type="qcurve" smooth="yes"/>
      <point x="226" y="358"/>
      <point x="111" y="470" type="qcurve"/>
      <point x="141" y="470"/>
      <point x="166" y="470" type="qcurve" smooth="yes"/>
      <point x="189" y="470"/>
      <point x="210" y="470" type="qcurve" smooth="yes"/>
      <point x="264" y="472"/>
      <point x="303" y="483" type="qcurve"/>
      <point x="340" y="401"/>
      <point x="434" y="355" type="qcurve"/>
    </contour>
  </outline>
</glyph>
<glyph name="elementary OS" format="2">
  <advance width="1200"/>
  <unicode hex="F309"/>
  <note>
elementary OS
</note>
  <outline>
    <contour>
      <point x="20" y="950"/>
      <point x="20" y="470"/>
      <point x="360" y="130"/>
      <point x="840" y="130"/>
      <point x="1180" y="470"/>
      <point x="1180" y="950"/>
      <point x="840" y="1290"/>
      <point x="360" y="1290"/>
    </contour>
    <contour>
      <point x="781" y="1242"/>
      <point x="1064" y="1025"/>
      <point x="1112" y="855" type="qcurve"/>
      <point x="1028" y="685"/>
      <point x="885" y="560" type="qcurve" smooth="yes"/>
      <point x="811" y="495"/>
      <point x="738" y="463" type="qcurve" smooth="yes"/>
      <point x="648" y="422"/>
      <point x="564" y="427" type="qcurve" smooth="yes"/>
      <point x="494" y="431"/>
      <point x="435" y="463" type="qcurve"/>
      <point x="593" y="549"/>
      <point x="709" y="685" type="qcurve" smooth="yes"/>
      <point x="799" y="789"/>
      <point x="822" y="887" type="qcurve" smooth="yes"/>
      <point x="833" y="948"/>
      <point x="822" y="1002" type="qcurve" smooth="yes"/>
      <point x="811" y="1063"/>
      <point x="770" y="1104" type="qcurve" smooth="yes"/>
      <point x="731" y="1147"/>
      <point x="675" y="1163" type="qcurve" smooth="yes"/>
      <point x="620" y="1177"/>
      <point x="561" y="1165" type="qcurve" smooth="yes"/>
      <point x="457" y="1147"/>
      <point x="367" y="1054" type="qcurve" smooth="yes"/>
      <point x="294" y="982"/>
      <point x="217" y="792"/>
      <point x="226" y="694" type="qcurve" smooth="yes"/>
      <point x="233" y="590"/>
      <point x="292" y="506" type="qcurve" smooth="yes"/>
      <point x="303" y="488"/>
      <point x="319" y="472" type="qcurve"/>
      <point x="235" y="443"/>
      <point x="147" y="431" type="qcurve"/>
      <point x="68" y="558"/>
      <point x="68" y="710" type="qcurve" smooth="yes"/>
      <point x="68" y="930"/>
      <point x="380" y="1242"/>
      <point x="600" y="1242" type="qcurve" smooth="yes"/>
    </contour>
    <contour>
      <point x="663" y="1134"/>
      <point x="709" y="1100" type="qcurve" smooth="yes"/>
      <point x="747" y="1070"/>
      <point x="765" y="1020" type="qcurve" smooth="yes"/>
      <point x="781" y="973"/>
      <point x="777" y="921" type="qcurve" smooth="yes"/>
      <point x="765" y="832"/>
      <point x="695" y="737" type="qcurve" smooth="yes"/>
      <point x="586" y="597"/>
      <point x="419" y="515" type="qcurve"/>
      <point x="405" y="506"/>
      <point x="387" y="499" type="qcurve"/>
      <point x="351" y="529"/>
      <point x="328" y="570" type="qcurve" smooth="yes"/>
      <point x="283" y="651"/>
      <point x="292" y="758" type="qcurve" smooth="yes"/>
      <point x="301" y="844"/>
      <point x="349" y="939" type="qcurve" smooth="yes"/>
      <point x="410" y="1059"/>
      <point x="496" y="1104" type="qcurve" smooth="yes"/>
      <point x="548" y="1134"/>
      <point x="602" y="1134" type="qcurve" smooth="yes"/>
    </contour>
    <contour>
      <point x="1130" y="746"/>
      <point x="1130" y="710" type="qcurve" smooth="yes"/>
      <point x="1130" y="490"/>
      <point x="820" y="178"/>
      <point x="600" y="178" type="qcurve" smooth="yes"/>
      <point x="478" y="178"/>
      <point x="265" y="282"/>
      <point x="190" y="372" type="qcurve"/>
      <point x="281" y="393"/>
      <point x="364" y="429" type="qcurve"/>
      <point x="403" y="402"/>
      <point x="446" y="384" type="qcurve" smooth="yes"/>
      <point x="568" y="338"/>
      <point x="709" y="386" type="qcurve" smooth="yes"/>
      <point x="822" y="427"/>
      <point x="933" y="529" type="qcurve" smooth="yes"/>
      <point x="1051" y="640"/>
      <point x="1126" y="780" type="qcurve"/>
    </contour>
  </outline>
</glyph>
<glyph name="Fedora" format="2">
  <advance width="1200"/>
  <unicode hex="F30A"/>
  <note>
Fedora
</note>
  <outline>
    <contour>
      <point x="20" y="950"/>
      <point x="20" y="710" type="qcurve" smooth="yes"/>
      <point x="20" y="261" type="line" smooth="yes"/>
      <point x="20" y="207"/>
      <point x="97" y="130"/>
      <point x="151" y="130" type="qcurve" smooth="yes"/>
      <point x="154" y="130" type="line"/>
      <point x="600" y="130" type="line" smooth="yes"/>
      <point x="840" y="130"/>
      <point x="1180" y="470"/>
      <point x="1180" y="950"/>
      <point x="840" y="1290"/>
      <point x="360" y="1290"/>
    </contour>
    <contour>
      <point x="793" y="1052"/>
      <point x="906" y="948"/>
      <point x="906" y="873" type="qcurve" smooth="yes"/>
      <point x="906" y="855"/>
      <point x="906" y="844" type="qcurve" smooth="yes"/>
      <point x="904" y="823"/>
      <point x="872" y="798"/>
      <point x="829" y="803"/>
      <point x="806" y="837"/>
      <point x="811" y="857" type="qcurve"/>
      <point x="811" y="862"/>
      <point x="811" y="873" type="qcurve" smooth="yes"/>
      <point x="811" y="914"/>
      <point x="756" y="955"/>
      <point x="718" y="955" type="qcurve" smooth="yes"/>
      <point x="684" y="955"/>
      <point x="632" y="905"/>
      <point x="632" y="873" type="qcurve"/>
      <point x="632" y="873"/>
      <point x="632" y="726"/>
      <point x="632" y="726" type="qcurve"/>
      <point x="716" y="726" type="line" smooth="yes"/>
      <point x="747" y="726"/>
      <point x="772" y="678"/>
      <point x="747" y="628"/>
      <point x="716" y="628" type="qcurve" smooth="yes"/>
      <point x="632" y="628" type="line"/>
      <point x="632" y="608"/>
      <point x="632" y="585"/>
      <point x="632" y="576" type="qcurve" smooth="yes"/>
      <point x="632" y="490" type="line"/>
      <point x="623" y="409"/>
      <point x="500" y="295"/>
      <point x="416" y="295" type="qcurve" smooth="yes"/>
      <point x="328" y="295"/>
      <point x="201" y="420"/>
      <point x="201" y="508" type="qcurve" smooth="yes"/>
      <point x="206" y="601"/>
      <point x="333" y="726"/>
      <point x="426" y="726" type="qcurve" smooth="yes"/>
      <point x="494" y="726" type="line"/>
      <point x="494" y="628" type="line"/>
      <point x="426" y="628" type="line"/>
      <point x="423" y="628" type="line" smooth="yes"/>
      <point x="371" y="626"/>
      <point x="299" y="560"/>
      <point x="299" y="508" type="qcurve" smooth="yes"/>
      <point x="299" y="461"/>
      <point x="369" y="391"/>
      <point x="416" y="391" type="qcurve" smooth="yes"/>
      <point x="466" y="391"/>
      <point x="534" y="456"/>
      <point x="534" y="508" type="qcurve" smooth="yes"/>
      <point x="534" y="873" type="line" smooth="yes"/>
      <point x="534" y="884"/>
      <point x="537" y="894" type="qcurve"/>
      <point x="543" y="961"/>
      <point x="650" y="1052"/>
      <point x="718" y="1052" type="qcurve" smooth="yes"/>
    </contour>
  </outline>
</glyph>
<glyph name="Fedora (inverse)" format="2">
  <advance width="1200"/>
  <unicode hex="F30B"/>
  <note>
Fedora (inverse)
</note>
  <outline>
    <contour>
      <point x="20" y="950"/>
      <point x="20" y="710" type="qcurve" smooth="yes"/>
      <point x="20" y="261" type="line" smooth="yes"/>
      <point x="20" y="207"/>
      <point x="97" y="130"/>
      <point x="151" y="130" type="qcurve" smooth="yes"/>
      <point x="154" y="130" type="line"/>
      <point x="600" y="130" type="line" smooth="yes"/>
      <point x="840" y="130"/>
      <point x="1180" y="470"/>
      <point x="1180" y="950"/>
      <point x="840" y="1290"/>
      <point x="360" y="1290"/>
    </contour>
    <contour>
      <point x="643" y="1249"/>
      <point x="679" y="1242" type="qcurve" smooth="yes"/>
      <point x="759" y="1231"/>
      <point x="829" y="1197" type="qcurve" smooth="yes"/>
      <point x="926" y="1152"/>
      <point x="1071" y="995"/>
      <point x="1108" y="894" type="qcurve" smooth="yes"/>
      <point x="1137" y="810"/>
      <point x="1139" y="717" type="qcurve" smooth="yes"/>
      <point x="1139" y="631"/>
      <point x="1114" y="547" type="qcurve" smooth="yes"/>
      <point x="1083" y="445"/>
      <point x="1015" y="363" type="qcurve" smooth="yes"/>
      <point x="942" y="280"/>
      <point x="845" y="230" type="qcurve" smooth="yes"/>
      <point x="736" y="173"/>
      <point x="614" y="171" type="qcurve" smooth="yes"/>
      <point x="575" y="171"/>
      <point x="435" y="171" type="qcurve" smooth="yes"/>
      <point x="226" y="171"/>
      <point x="154" y="171" type="qcurve" smooth="yes"/>
      <point x="124" y="171"/>
      <point x="99" y="187" type="qcurve" smooth="yes"/>
      <point x="63" y="214"/>
      <point x="61" y="259" type="qcurve" smooth="yes"/>
      <point x="61" y="350"/>
      <point x="61" y="526" type="qcurve" smooth="yes"/>
      <point x="61" y="560"/>
      <point x="61" y="671"/>
      <point x="61" y="708" type="qcurve" smooth="yes"/>
      <point x="61" y="749"/>
      <point x="65" y="785" type="qcurve" smooth="yes"/>
      <point x="77" y="871"/>
      <point x="117" y="950" type="qcurve" smooth="yes"/>
      <point x="167" y="1052"/>
      <point x="256" y="1125" type="qcurve" smooth="yes"/>
      <point x="339" y="1195"/>
      <point x="444" y="1227" type="qcurve" smooth="yes"/>
      <point x="512" y="1247"/>
      <point x="584" y="1249" type="qcurve" smooth="yes"/>
      <point x="595" y="1249"/>
      <point x="607" y="1249" type="qcurve" smooth="yes"/>
    </contour>
    <contour>
      <point x="650" y="1052"/>
      <point x="543" y="961"/>
      <point x="537" y="894" type="qcurve"/>
      <point x="534" y="884"/>
      <point x="534" y="873" type="qcurve" smooth="yes"/>
      <point x="534" y="508" type="line" smooth="yes"/>
      <point x="534" y="456"/>
      <point x="466" y="391"/>
      <point x="416" y="391" type="qcurve" smooth="yes"/>
      <point x="369" y="391"/>
      <point x="299" y="461"/>
      <point x="299" y="508" type="qcurve" smooth="yes"/>
      <point x="299" y="560"/>
      <point x="371" y="626"/>
      <point x="423" y="628" type="qcurve" smooth="yes"/>
      <point x="426" y="628" type="line"/>
      <point x="494" y="628" type="line"/>
      <point x="494" y="726" type="line"/>
      <point x="426" y="726" type="line" smooth="yes"/>
      <point x="333" y="726"/>
      <point x="206" y="601"/>
      <point x="201" y="508" type="qcurve" smooth="yes"/>
      <point x="201" y="420"/>
      <point x="328" y="295"/>
      <point x="416" y="295" type="qcurve" smooth="yes"/>
      <point x="500" y="295"/>
      <point x="623" y="409"/>
      <point x="632" y="490" type="qcurve"/>
      <point x="632" y="526"/>
      <point x="632" y="576" type="qcurve" smooth="yes"/>
      <point x="632" y="585"/>
      <point x="632" y="608"/>
      <point x="632" y="628" type="qcurve"/>
      <point x="716" y="628" type="line" smooth="yes"/>
      <point x="747" y="628"/>
      <point x="772" y="678"/>
      <point x="747" y="726"/>
      <point x="716" y="726" type="qcurve" smooth="yes"/>
      <point x="632" y="726" type="line"/>
      <point x="632" y="873"/>
      <point x="632" y="873" type="qcurve"/>
      <point x="632" y="905"/>
      <point x="684" y="955"/>
      <point x="718" y="955" type="qcurve" smooth="yes"/>
      <point x="756" y="955"/>
      <point x="811" y="914"/>
      <point x="811" y="873" type="qcurve" smooth="yes"/>
      <point x="811" y="862"/>
      <point x="811" y="857" type="qcurve"/>
      <point x="806" y="837"/>
      <point x="829" y="803"/>
      <point x="872" y="798"/>
      <point x="904" y="823"/>
      <point x="906" y="844" type="qcurve" smooth="yes"/>
      <point x="906" y="855"/>
      <point x="906" y="873" type="qcurve" smooth="yes"/>
      <point x="906" y="948"/>
      <point x="793" y="1052"/>
      <point x="718" y="1052" type="qcurve" smooth="yes"/>
    </contour>
  </outline>
</glyph>
<glyph name="FreeBSD" format="2">
  <advance width="1200"/>
  <unicode hex="F30C"/>
  <note>
FreeBSD
</note>
  <outline>
    <contour>
      <point x="49" y="1282"/>
      <point x="36" y="1267" type="qcurve" smooth="yes"/>
      <point x="-13" y="1218"/>
      <point x="90" y="1023" type="qcurve"/>
      <point x="161" y="1141"/>
      <point x="277" y="1213" type="qcurve"/>
      <point x="146" y="1282"/>
      <point x="79" y="1282" type="qcurve" smooth="yes"/>
    </contour>
    <contour>
      <point x="367" y="1272"/>
      <point x="33" y="941"/>
      <point x="33" y="471"/>
      <point x="367" y="138"/>
      <point x="836" y="138"/>
      <point x="1167" y="471"/>
      <point x="1167" y="705" type="qcurve" smooth="yes"/>
      <point x="1167" y="838"/>
      <point x="1108" y="956" type="qcurve"/>
      <point x="1095" y="936"/>
      <point x="1085" y="915" type="qcurve"/>
      <point x="1095" y="872"/>
      <point x="1075" y="851" type="qcurve" smooth="yes"/>
      <point x="1047" y="823"/>
      <point x="908" y="879"/>
      <point x="772" y="1015"/>
      <point x="716" y="1154"/>
      <point x="744" y="1182" type="qcurve" smooth="yes"/>
      <point x="767" y="1205"/>
      <point x="818" y="1190" type="qcurve"/>
      <point x="836" y="1200"/>
      <point x="854" y="1210" type="qcurve"/>
      <point x="736" y="1272"/>
      <point x="600" y="1272" type="qcurve" smooth="yes"/>
    </contour>
    <contour>
      <point x="834" y="1172"/>
      <point x="793" y="1131" type="qcurve" smooth="yes"/>
      <point x="772" y="1110"/>
      <point x="810" y="1010"/>
      <point x="908" y="913"/>
      <point x="1008" y="874"/>
      <point x="1029" y="895" type="qcurve" smooth="yes"/>
      <point x="1070" y="936"/>
      <point x="1206" y="1226"/>
      <point x="1123" y="1308"/>
    </contour>
  </outline>
</glyph>
<glyph name="Gentoo" format="2">
  <advance width="1200"/>
  <unicode hex="F30D"/>
  <note>
Gentoo
</note>
  <outline>
    <contour>
      <point x="463" y="1318"/>
      <point x="433" y="1311" type="qcurve" smooth="yes"/>
      <point x="278" y="1285"/>
      <point x="56" y="1059"/>
      <point x="44" y="957" type="qcurve" smooth="yes"/>
      <point x="37" y="886"/>
      <point x="89" y="829" type="qcurve" smooth="yes"/>
      <point x="108" y="810"/>
      <point x="165" y="768"/>
      <point x="212" y="744"/>
      <point x="288" y="704"/>
      <point x="300" y="696" type="qcurve"/>
      <point x="179" y="592"/>
      <point x="127" y="538" type="qcurve" smooth="yes"/>
      <point x="20" y="426"/>
      <point x="20" y="350" type="qcurve" smooth="yes"/>
      <point x="20" y="277"/>
      <point x="39" y="239" type="qcurve" smooth="yes"/>
      <point x="75" y="168"/>
      <point x="139" y="132" type="qcurve" smooth="yes"/>
      <point x="210" y="92"/>
      <point x="307" y="106" type="qcurve" smooth="yes"/>
      <point x="442" y="125"/>
      <point x="784" y="319"/>
      <point x="935" y="447" type="qcurve" smooth="yes"/>
      <point x="1116" y="594"/>
      <point x="1163" y="682" type="qcurve" smooth="yes"/>
      <point x="1177" y="708"/>
      <point x="1182" y="796"/>
      <point x="1172" y="827" type="qcurve" smooth="yes"/>
      <point x="1149" y="917"/>
      <point x="819" y="1213"/>
      <point x="658" y="1285" type="qcurve" smooth="yes"/>
      <point x="582" y="1318"/>
      <point x="497" y="1318" type="qcurve" smooth="yes"/>
    </contour>
    <contour>
      <point x="584" y="1315"/>
      <point x="494" y="1313" type="qcurve" smooth="yes"/>
      <point x="490" y="1313"/>
      <point x="482" y="1313" type="qcurve" smooth="yes"/>
      <point x="314" y="1306"/>
      <point x="56" y="1064"/>
      <point x="65" y="964" type="qcurve" smooth="yes"/>
      <point x="65" y="945"/>
      <point x="89" y="907"/>
      <point x="124" y="874"/>
      <point x="169" y="841"/>
      <point x="217" y="813"/>
      <point x="267" y="787"/>
      <point x="309" y="768"/>
      <point x="342" y="753"/>
      <point x="361" y="746"/>
      <point x="361" y="744" type="qcurve"/>
      <point x="269" y="666"/>
      <point x="212" y="613" type="qcurve" smooth="yes"/>
      <point x="105" y="516"/>
      <point x="25" y="383"/>
      <point x="53" y="308" type="qcurve" smooth="yes"/>
      <point x="75" y="244"/>
      <point x="162" y="189"/>
      <point x="269" y="194"/>
      <point x="333" y="206" type="qcurve" smooth="yes"/>
      <point x="487" y="236"/>
      <point x="893" y="478"/>
      <point x="1170" y="753"/>
      <point x="1158" y="827" type="qcurve" smooth="yes"/>
      <point x="1142" y="912"/>
      <point x="807" y="1206"/>
      <point x="665" y="1275" type="qcurve" smooth="yes"/>
    </contour>
    <contour>
      <point x="478" y="1287"/>
      <point x="463" y="1287" type="qcurve" smooth="yes"/>
      <point x="378" y="1277"/>
      <point x="300" y="1242"/>
      <point x="217" y="1178" type="qcurve" smooth="yes"/>
      <point x="117" y="1104"/>
      <point x="96" y="1005" type="qcurve" smooth="yes"/>
      <point x="86" y="960"/>
      <point x="120" y="931" type="qcurve" smooth="yes"/>
      <point x="143" y="912"/>
      <point x="219" y="867"/>
      <point x="271" y="841"/>
      <point x="383" y="789"/>
      <point x="399" y="782" type="qcurve" smooth="yes"/>
      <point x="433" y="765"/>
      <point x="364" y="706" type="qcurve" smooth="yes"/>
      <point x="352" y="696"/>
      <point x="276" y="632"/>
      <point x="243" y="602"/>
      <point x="181" y="545"/>
      <point x="148" y="507"/>
      <point x="108" y="459"/>
      <point x="89" y="417"/>
      <point x="86" y="400" type="qcurve" smooth="yes"/>
      <point x="84" y="362"/>
      <point x="112" y="289"/>
      <point x="148" y="270" type="qcurve" smooth="yes"/>
      <point x="203" y="246"/>
      <point x="347" y="260"/>
      <point x="418" y="289" type="qcurve" smooth="yes"/>
      <point x="601" y="355"/>
      <point x="829" y="533" type="qcurve" smooth="yes"/>
      <point x="921" y="604"/>
      <point x="1087" y="770"/>
      <point x="1092" y="789" type="qcurve" smooth="yes"/>
      <point x="1104" y="829"/>
      <point x="1085" y="867" type="qcurve" smooth="yes"/>
      <point x="1063" y="907"/>
      <point x="999" y="979" type="qcurve" smooth="yes"/>
      <point x="852" y="1133"/>
      <point x="708" y="1213" type="qcurve" smooth="yes"/>
      <point x="575" y="1289"/>
      <point x="490" y="1287" type="qcurve" smooth="yes"/>
    </contour>
    <contour>
      <point x="587" y="1104"/>
      <point x="637" y="1078" type="qcurve" smooth="yes"/>
      <point x="672" y="1062"/>
      <point x="724" y="1012"/>
      <point x="746" y="953"/>
      <point x="698" y="889"/>
      <point x="637" y="867" type="qcurve" smooth="yes"/>
      <point x="596" y="853"/>
      <point x="442" y="934"/>
      <point x="444" y="988" type="qcurve" smooth="yes"/>
      <point x="452" y="1102"/>
      <point x="539" y="1104" type="qcurve" smooth="yes"/>
      <point x="544" y="1104"/>
      <point x="546" y="1104" type="qcurve" smooth="yes"/>
    </contour>
    <contour>
      <point x="532" y="1036"/>
      <point x="523" y="1021" type="qcurve" smooth="yes"/>
      <point x="485" y="964"/>
      <point x="535" y="929" type="qcurve"/>
      <point x="542" y="945"/>
      <point x="644" y="922"/>
      <point x="644" y="905" type="qcurve"/>
      <point x="644" y="905"/>
      <point x="646" y="905" type="qcurve"/>
      <point x="701" y="955"/>
      <point x="613" y="1038"/>
      <point x="554" y="1036" type="qcurve" smooth="yes"/>
    </contour>
  </outline>
</glyph>
<glyph name="Linux Mint" format="2">
  <advance width="1200"/>
  <unicode hex="F30E"/>
  <note>
Linux Mint
</note>
  <outline>
    <contour>
      <point x="559" y="190" type="line"/>
      <point x="1180" y="190" type="line"/>
      <point x="1180" y="847" type="line" smooth="yes"/>
      <point x="1180" y="1008"/>
      <point x="941" y="1225"/>
      <point x="776" y="1225" type="qcurve" smooth="yes"/>
      <point x="596" y="1227" type="line"/>
      <point x="20" y="1230" type="line"/>
      <point x="20" y="897" type="line"/>
      <point x="157" y="897" type="line"/>
      <point x="157" y="830" type="line"/>
      <point x="157" y="568" type="line" smooth="yes"/>
      <point x="157" y="410"/>
      <point x="396" y="190"/>
      <point x="559" y="190" type="qcurve"/>
    </contour>
    <contour>
      <point x="1093" y="327"/>
      <point x="1031" y="278"/>
      <point x="989" y="278" type="qcurve" smooth="yes"/>
      <point x="559" y="278" type="line" smooth="yes"/>
      <point x="429" y="278"/>
      <point x="244" y="448"/>
      <point x="244" y="568" type="qcurve" smooth="yes"/>
      <point x="244" y="899" type="line" smooth="yes"/>
      <point x="244" y="934"/>
      <point x="192" y="984"/>
      <point x="162" y="984" type="qcurve" smooth="yes"/>
      <point x="107" y="984" type="line"/>
      <point x="107" y="1140" type="line"/>
      <point x="596" y="1138" type="line"/>
      <point x="776" y="1138" type="line" smooth="yes"/>
      <point x="908" y="1138"/>
      <point x="1093" y="968"/>
      <point x="1093" y="847" type="qcurve" smooth="yes"/>
      <point x="1093" y="365" type="line" smooth="yes"/>
    </contour>
    <contour>
      <point x="606" y="965"/>
      <point x="516" y="875"/>
      <point x="516" y="812" type="qcurve" smooth="yes"/>
      <point x="516" y="604" type="line"/>
      <point x="611" y="604" type="line"/>
      <point x="611" y="812" type="line" smooth="yes"/>
      <point x="611" y="835"/>
      <point x="644" y="868"/>
      <point x="691" y="868"/>
      <point x="724" y="835"/>
      <point x="724" y="812" type="qcurve" smooth="yes"/>
      <point x="724" y="604" type="line"/>
      <point x="819" y="604" type="line"/>
      <point x="819" y="812" type="line" smooth="yes"/>
      <point x="819" y="835"/>
      <point x="852" y="868"/>
      <point x="896" y="868"/>
      <point x="930" y="835"/>
      <point x="930" y="812" type="qcurve" smooth="yes"/>
      <point x="930" y="568" type="line" smooth="yes"/>
      <point x="930" y="528"/>
      <point x="863" y="471"/>
      <point x="816" y="471" type="qcurve" smooth="yes"/>
      <point x="509" y="474" type="line" smooth="yes"/>
      <point x="474" y="474"/>
      <point x="419" y="538"/>
      <point x="419" y="582" type="qcurve" smooth="yes"/>
      <point x="419" y="1043" type="line"/>
      <point x="329" y="1043" type="line"/>
      <point x="329" y="566" type="line" smooth="yes"/>
      <point x="329" y="488"/>
      <point x="384" y="434" type="qcurve" smooth="yes"/>
      <point x="433" y="386"/>
      <point x="493" y="379" type="qcurve"/>
      <point x="835" y="379" type="line" smooth="yes"/>
      <point x="913" y="379"/>
      <point x="970" y="436" type="qcurve" smooth="yes"/>
      <point x="1017" y="486"/>
      <point x="1024" y="552" type="qcurve"/>
      <point x="1024" y="812" type="line" smooth="yes"/>
      <point x="1024" y="875"/>
      <point x="937" y="965"/>
      <point x="873" y="965" type="qcurve" smooth="yes"/>
      <point x="814" y="965"/>
      <point x="771" y="923" type="qcurve"/>
      <point x="726" y="965"/>
      <point x="667" y="965" type="qcurve" smooth="yes"/>
    </contour>
  </outline>
</glyph>
<glyph name="Linux Mint (inverse)" format="2">
  <advance width="1200"/>
  <unicode hex="F30F"/>
  <note>
Linux Mint (inverse)
</note>
  <outline>
    <contour>
      <point x="20" y="860" type="line"/>
      <point x="156" y="860" type="line"/>
      <point x="156" y="792" type="line"/>
      <point x="156" y="570" type="line" smooth="yes"/>
      <point x="156" y="409"/>
      <point x="396" y="189"/>
      <point x="559" y="189" type="qcurve" smooth="yes"/>
      <point x="1180" y="189" type="line"/>
      <point x="1180" y="848" type="line" smooth="yes"/>
      <point x="1180" y="1007"/>
      <point x="942" y="1227"/>
      <point x="777" y="1227" type="qcurve" smooth="yes"/>
      <point x="598" y="1227" type="line"/>
      <point x="20" y="1231" type="line"/>
    </contour>
    <contour>
      <point x="602" y="1202" type="line"/>
      <point x="774" y="1199" type="line" smooth="yes"/>
      <point x="933" y="1199"/>
      <point x="1162" y="991"/>
      <point x="1162" y="837" type="qcurve" smooth="yes"/>
      <point x="1162" y="207" type="line"/>
      <point x="566" y="207" type="line" smooth="yes"/>
      <point x="410" y="207"/>
      <point x="181" y="418"/>
      <point x="181" y="570" type="qcurve" smooth="yes"/>
      <point x="181" y="821" type="line"/>
      <point x="181" y="884" type="line"/>
      <point x="49" y="884" type="line"/>
      <point x="49" y="1204" type="line"/>
    </contour>
    <contour>
      <point x="133" y="968" type="line"/>
      <point x="185" y="968" type="line" smooth="yes"/>
      <point x="215" y="968"/>
      <point x="265" y="921"/>
      <point x="265" y="887" type="qcurve" smooth="yes"/>
      <point x="265" y="570" type="line" smooth="yes"/>
      <point x="265" y="454"/>
      <point x="441" y="291"/>
      <point x="566" y="291" type="qcurve" smooth="yes"/>
      <point x="978" y="291" type="line" smooth="yes"/>
      <point x="1019" y="291"/>
      <point x="1076" y="338"/>
      <point x="1076" y="375" type="qcurve" smooth="yes"/>
      <point x="1076" y="837" type="line" smooth="yes"/>
      <point x="1076" y="952"/>
      <point x="899" y="1116"/>
      <point x="774" y="1116" type="qcurve" smooth="yes"/>
      <point x="602" y="1116" type="line"/>
      <point x="133" y="1118" type="line"/>
    </contour>
    <contour>
      <point x="432" y="1025" type="line"/>
      <point x="432" y="583" type="line" smooth="yes"/>
      <point x="432" y="540"/>
      <point x="482" y="479"/>
      <point x="518" y="479" type="qcurve" smooth="yes"/>
      <point x="813" y="477" type="line" smooth="yes"/>
      <point x="858" y="477"/>
      <point x="922" y="531"/>
      <point x="922" y="570" type="qcurve" smooth="yes"/>
      <point x="919" y="803" type="line" smooth="yes"/>
      <point x="919" y="826"/>
      <point x="890" y="857"/>
      <point x="845" y="857"/>
      <point x="813" y="826"/>
      <point x="813" y="803" type="qcurve" smooth="yes"/>
      <point x="813" y="604" type="line"/>
      <point x="722" y="604" type="line"/>
      <point x="722" y="803" type="line" smooth="yes"/>
      <point x="722" y="826"/>
      <point x="691" y="857"/>
      <point x="648" y="857"/>
      <point x="616" y="826"/>
      <point x="616" y="803" type="qcurve" smooth="yes"/>
      <point x="616" y="604" type="line"/>
      <point x="525" y="604" type="line"/>
      <point x="525" y="803" type="line" smooth="yes"/>
      <point x="525" y="864"/>
      <point x="609" y="950"/>
      <point x="670" y="950" type="qcurve" smooth="yes"/>
      <point x="727" y="950"/>
      <point x="768" y="909" type="qcurve"/>
      <point x="811" y="950"/>
      <point x="867" y="950" type="qcurve" smooth="yes"/>
      <point x="926" y="950"/>
      <point x="1012" y="864"/>
      <point x="1012" y="803" type="qcurve" smooth="yes"/>
      <point x="1012" y="554" type="line"/>
      <point x="1006" y="490"/>
      <point x="960" y="443" type="qcurve" smooth="yes"/>
      <point x="906" y="388"/>
      <point x="829" y="388" type="qcurve" smooth="yes"/>
      <point x="503" y="388" type="line"/>
      <point x="444" y="395"/>
      <point x="398" y="440" type="qcurve" smooth="yes"/>
      <point x="346" y="493"/>
      <point x="346" y="567" type="qcurve" smooth="yes"/>
      <point x="346" y="1025" type="line"/>
    </contour>
  </outline>
</glyph>
<glyph name="Mageia" format="2">
  <advance width="1200"/>
  <unicode hex="F310"/>
  <note>
Mageia
</note>
  <outline>
    <contour>
      <point x="497" y="871" type="line"/>
      <point x="531" y="871"/>
      <point x="578" y="918"/>
      <point x="578" y="985"/>
      <point x="531" y="1032"/>
      <point x="464" y="1032"/>
      <point x="417" y="985"/>
      <point x="417" y="918"/>
      <point x="464" y="871"/>
      <point x="497" y="871" type="qcurve"/>
    </contour>
    <contour>
      <point x="714" y="929" type="line"/>
      <point x="747" y="929"/>
      <point x="789" y="973"/>
      <point x="789" y="1034"/>
      <point x="747" y="1079"/>
      <point x="683" y="1079"/>
      <point x="639" y="1034"/>
      <point x="639" y="973"/>
      <point x="683" y="929"/>
      <point x="714" y="929" type="qcurve"/>
    </contour>
    <contour>
      <point x="614" y="1212"/>
      <point x="558" y="1212"/>
      <point x="520" y="1170"/>
      <point x="520" y="1115"/>
      <point x="558" y="1076"/>
      <point x="614" y="1076"/>
      <point x="653" y="1115"/>
      <point x="653" y="1170"/>
    </contour>
    <contour>
      <point x="719" y="1317"/>
      <point x="667" y="1317"/>
      <point x="631" y="1281"/>
      <point x="631" y="1231"/>
      <point x="667" y="1195"/>
      <point x="719" y="1195"/>
      <point x="755" y="1231"/>
      <point x="755" y="1281"/>
    </contour>
    <contour>
      <point x="583" y="1420"/>
      <point x="539" y="1420"/>
      <point x="508" y="1389"/>
      <point x="508" y="1345"/>
      <point x="539" y="1312"/>
      <point x="583" y="1312"/>
      <point x="617" y="1345"/>
      <point x="617" y="1389"/>
    </contour>
    <contour>
      <point x="148" y="635"/>
      <point x="148" y="485" type="qcurve" smooth="yes"/>
      <point x="148" y="286"/>
      <point x="411" y="0"/>
      <point x="786" y="0"/>
      <point x="1052" y="286"/>
      <point x="1052" y="485" type="qcurve" smooth="yes"/>
      <point x="1052" y="632"/>
      <point x="922" y="799" type="qcurve"/>
      <point x="880" y="840"/>
      <point x="825" y="804" type="qcurve" smooth="yes"/>
      <point x="758" y="768"/>
      <point x="667" y="743"/>
      <point x="600" y="743" type="qcurve" smooth="yes"/>
      <point x="486" y="743"/>
      <point x="373" y="804" type="qcurve" smooth="yes"/>
      <point x="314" y="840"/>
      <point x="273" y="799" type="qcurve"/>
    </contour>
    <contour>
      <point x="467" y="652"/>
      <point x="733" y="652"/>
      <point x="863" y="724" type="qcurve"/>
      <point x="958" y="594"/>
      <point x="958" y="485" type="qcurve" smooth="yes"/>
      <point x="958" y="322"/>
      <point x="747" y="94"/>
      <point x="600" y="94" type="qcurve" smooth="yes"/>
      <point x="450" y="94"/>
      <point x="234" y="322"/>
      <point x="234" y="485" type="qcurve" smooth="yes"/>
      <point x="234" y="582"/>
      <point x="334" y="724" type="qcurve"/>
    </contour>
  </outline>
</glyph>
<glyph name="Mandriva" format="2">
  <advance width="1200"/>
  <unicode hex="F311"/>
  <note>
Mandriva
</note>
  <outline>
    <contour>
      <point x="724" y="1102" type="line"/>
      <point x="724" y="1102" type="line"/>
      <point x="722" y="1118"/>
      <point x="709" y="1123"/>
      <point x="700" y="1109" type="qcurve" smooth="yes"/>
      <point x="568" y="903" type="line" smooth="yes"/>
      <point x="548" y="873"/>
      <point x="509" y="878" type="qcurve" smooth="yes"/>
      <point x="269" y="916" type="line" smooth="yes"/>
      <point x="255" y="919"/>
      <point x="246" y="905"/>
      <point x="255" y="894" type="qcurve" smooth="yes"/>
      <point x="409" y="706" type="line" smooth="yes"/>
      <point x="434" y="676"/>
      <point x="416" y="642" type="qcurve" smooth="yes"/>
      <point x="305" y="427" type="line" smooth="yes"/>
      <point x="298" y="413"/>
      <point x="310" y="402"/>
      <point x="323" y="406" type="qcurve" smooth="yes"/>
      <point x="550" y="495" type="line" smooth="yes"/>
      <point x="586" y="508"/>
      <point x="611" y="481" type="qcurve" smooth="yes"/>
      <point x="783" y="309" type="line" smooth="yes"/>
      <point x="795" y="298"/>
      <point x="808" y="304"/>
      <point x="808" y="320" type="qcurve" smooth="yes"/>
      <point x="795" y="563" type="line" smooth="yes"/>
      <point x="792" y="599"/>
      <point x="826" y="617" type="qcurve" smooth="yes"/>
      <point x="1044" y="726" type="line" smooth="yes"/>
      <point x="1058" y="733"/>
      <point x="1055" y="749"/>
      <point x="1039" y="753" type="qcurve" smooth="yes"/>
      <point x="804" y="817" type="line" smooth="yes"/>
      <point x="790" y="819"/>
      <point x="765" y="846"/>
      <point x="763" y="862" type="qcurve" smooth="yes"/>
    </contour>
    <contour>
      <point x="1083" y="755" type="line"/>
      <point x="1123" y="832" type="line"/>
    </contour>
    <contour>
      <point x="1083" y="755" type="line"/>
      <point x="1123" y="832" type="line"/>
    </contour>
    <contour>
      <point x="1123" y="832" type="qcurve"/>
      <point x="1123" y="832" type="line"/>
      <point x="1112" y="832"/>
      <point x="1107" y="828" type="qcurve"/>
      <point x="1094" y="798" type="line" smooth="yes"/>
      <point x="1080" y="776"/>
      <point x="1076" y="764"/>
      <point x="1083" y="755" type="qcurve"/>
      <point x="1094" y="755"/>
      <point x="1098" y="760" type="qcurve"/>
      <point x="1112" y="787" type="line" smooth="yes"/>
      <point x="1126" y="812"/>
      <point x="1130" y="821"/>
    </contour>
    <contour>
      <point x="1089" y="742" type="line"/>
      <point x="1180" y="742" type="line"/>
    </contour>
    <contour>
      <point x="1089" y="742" type="line"/>
      <point x="1180" y="742" type="line"/>
    </contour>
    <contour>
      <point x="1180" y="742" type="qcurve"/>
      <point x="1180" y="742" type="line"/>
      <point x="1173" y="753"/>
      <point x="1169" y="753" type="qcurve" smooth="yes"/>
      <point x="1135" y="753" type="line" smooth="yes"/>
      <point x="1107" y="753"/>
      <point x="1096" y="753"/>
      <point x="1089" y="742" type="qcurve"/>
      <point x="1096" y="730"/>
      <point x="1103" y="730" type="qcurve" smooth="yes"/>
      <point x="1135" y="730" type="line" smooth="yes"/>
      <point x="1162" y="730"/>
      <point x="1173" y="730"/>
    </contour>
    <contour>
      <point x="1083" y="728" type="line"/>
      <point x="1130" y="653" type="line"/>
    </contour>
    <contour>
      <point x="1083" y="728" type="line"/>
      <point x="1130" y="653" type="line"/>
    </contour>
    <contour>
      <point x="1130" y="653" type="qcurve"/>
      <point x="1130" y="653" type="line"/>
      <point x="1137" y="665"/>
      <point x="1135" y="669" type="qcurve" smooth="yes"/>
      <point x="1117" y="696" type="line" smooth="yes"/>
      <point x="1103" y="719"/>
      <point x="1096" y="728"/>
      <point x="1083" y="728" type="qcurve"/>
      <point x="1078" y="717"/>
      <point x="1080" y="712" type="qcurve" smooth="yes"/>
      <point x="1098" y="685" type="line" smooth="yes"/>
      <point x="1112" y="660"/>
      <point x="1119" y="651"/>
    </contour>
    <contour>
      <point x="1069" y="728" type="line"/>
      <point x="1026" y="651" type="line"/>
    </contour>
    <contour>
      <point x="1069" y="728" type="line"/>
      <point x="1026" y="651" type="line"/>
    </contour>
    <contour>
      <point x="1026" y="651" type="qcurve"/>
      <point x="1026" y="651" type="line"/>
      <point x="1039" y="651"/>
      <point x="1042" y="656" type="qcurve" smooth="yes"/>
      <point x="1058" y="685" type="line" smooth="yes"/>
      <point x="1071" y="708"/>
      <point x="1076" y="717"/>
      <point x="1069" y="728" type="qcurve"/>
      <point x="1055" y="728"/>
      <point x="1053" y="724" type="qcurve" smooth="yes"/>
      <point x="1037" y="694" type="line" smooth="yes"/>
      <point x="1024" y="672"/>
      <point x="1019" y="662"/>
    </contour>
    <contour>
      <point x="1060" y="742" type="line"/>
      <point x="1060" y="742" type="line"/>
    </contour>
    <contour>
      <point x="1067" y="753" type="line"/>
      <point x="1019" y="830" type="line"/>
    </contour>
    <contour>
      <point x="1067" y="753" type="line"/>
      <point x="1019" y="830" type="line"/>
    </contour>
    <contour>
      <point x="1019" y="830" type="qcurve"/>
      <point x="1019" y="830" type="line"/>
      <point x="1012" y="819"/>
      <point x="1017" y="814" type="qcurve"/>
      <point x="1033" y="787" type="line" smooth="yes"/>
      <point x="1049" y="762"/>
      <point x="1053" y="753"/>
      <point x="1067" y="753" type="qcurve"/>
      <point x="1073" y="764"/>
      <point x="1071" y="771" type="qcurve"/>
      <point x="1053" y="798" type="line" smooth="yes"/>
      <point x="1039" y="821"/>
      <point x="1033" y="830"/>
    </contour>
    <contour>
      <point x="137" y="928" type="qcurve"/>
      <point x="137" y="928" type="line"/>
      <point x="35" y="812"/>
      <point x="22" y="658" type="qcurve" smooth="yes"/>
      <point x="15" y="574"/>
      <point x="51" y="409"/>
      <point x="101" y="357" type="qcurve" smooth="yes"/>
      <point x="244" y="205"/>
      <point x="591" y="456" type="qcurve" smooth="yes"/>
      <point x="602" y="463"/>
      <point x="641" y="506"/>
      <point x="652" y="515" type="qcurve" smooth="yes"/>
      <point x="314" y="270"/>
      <point x="162" y="415" type="qcurve" smooth="yes"/>
      <point x="74" y="499"/>
      <point x="83" y="706" type="qcurve" smooth="yes"/>
      <point x="88" y="862"/>
      <point x="199" y="987" type="qcurve" smooth="yes"/>
      <point x="190" y="975"/>
      <point x="147" y="939"/>
    </contour>
  </outline>
</glyph>
<glyph name="Manjaro" format="2">
  <advance width="1200"/>
  <unicode hex="F312"/>
  <note>
Manjaro
</note>
  <outline>
    <contour>
      <point x="1180" y="130" type="line"/>
      <point x="1180" y="1290" type="line"/>
      <point x="840" y="1290" type="line"/>
      <point x="840" y="130" type="line"/>
    </contour>
    <contour>
      <point x="770" y="130" type="line"/>
      <point x="770" y="880" type="line"/>
      <point x="430" y="880" type="line"/>
      <point x="430" y="130" type="line"/>
    </contour>
    <contour>
      <point x="20" y="130" type="line"/>
      <point x="360" y="130" type="line"/>
      <point x="360" y="950" type="line"/>
      <point x="770" y="950" type="line"/>
      <point x="770" y="1290" type="line"/>
      <point x="360" y="1290" type="line"/>
      <point x="140" y="1290" type="line"/>
      <point x="20" y="1290" type="line"/>
    </contour>
  </outline>
</glyph>
<glyph name="NixOS" format="2">
  <advance width="1200"/>
  <unicode hex="F313"/>
  <note>
NixOS
</note>
  <outline>
    <contour>
      <point x="310" y="585" type="line"/>
      <point x="385" y="452" type="line"/>
      <point x="278" y="264" type="line"/>
      <point x="310" y="207" type="line"/>
      <point x="376" y="207" type="line"/>
      <point x="450" y="338" type="line"/>
      <point x="528" y="207" type="line"/>
      <point x="657" y="209" type="line"/>
      <point x="373" y="699" type="line"/>
    </contour>
    <contour>
      <point x="346" y="898" type="line"/>
      <point x="269" y="764" type="line"/>
      <point x="54" y="767" type="line"/>
      <point x="20" y="710" type="line"/>
      <point x="52" y="653" type="line"/>
      <point x="204" y="653" type="line"/>
      <point x="126" y="522" type="line"/>
      <point x="192" y="409" type="line"/>
      <point x="475" y="900" type="line"/>
    </contour>
    <contour>
      <point x="564" y="395" type="line"/>
      <point x="718" y="395" type="line"/>
      <point x="824" y="209" type="line"/>
      <point x="890" y="209" type="line"/>
      <point x="922" y="264" type="line"/>
      <point x="847" y="395" type="line"/>
      <point x="999" y="395" type="line"/>
      <point x="1062" y="508" type="line"/>
      <point x="498" y="508" type="line"/>
    </contour>
    <contour>
      <point x="892" y="835" type="line"/>
      <point x="815" y="968" type="line"/>
      <point x="922" y="1156" type="line"/>
      <point x="890" y="1213" type="line"/>
      <point x="824" y="1213" type="line"/>
      <point x="750" y="1082" type="line"/>
      <point x="675" y="1213" type="line"/>
      <point x="543" y="1211" type="line"/>
      <point x="827" y="721" type="line"/>
    </contour>
    <contour>
      <point x="310" y="585" type="line"/>
      <point x="385" y="452" type="line"/>
      <point x="278" y="264" type="line"/>
      <point x="310" y="207" type="line"/>
      <point x="376" y="207" type="line"/>
      <point x="450" y="338" type="line"/>
      <point x="528" y="207" type="line"/>
      <point x="657" y="209" type="line"/>
      <point x="373" y="699" type="line"/>
    </contour>
    <contour>
      <point x="636" y="1025" type="line"/>
      <point x="482" y="1027" type="line"/>
      <point x="376" y="1213" type="line"/>
      <point x="310" y="1213" type="line"/>
      <point x="276" y="1156" type="line"/>
      <point x="353" y="1025" type="line"/>
      <point x="201" y="1027" type="line"/>
      <point x="138" y="914" type="line"/>
      <point x="702" y="914" type="line"/>
    </contour>
    <contour>
      <point x="854" y="522" type="line"/>
      <point x="931" y="656" type="line"/>
      <point x="1146" y="653" type="line"/>
      <point x="1180" y="710" type="line"/>
      <point x="1148" y="767" type="line"/>
      <point x="996" y="767" type="line"/>
      <point x="1074" y="898" type="line"/>
      <point x="1008" y="1011" type="line"/>
      <point x="725" y="522" type="line"/>
    </contour>
  </outline>
</glyph>
<glyph name="OpenSUSE" format="2">
  <advance width="1200"/>
  <unicode hex="F314"/>
  <note>
OpenSUSE
</note>
  <outline>
    <contour>
      <point x="1108" y="832"/>
      <point x="1110" y="873"/>
      <point x="1080" y="902"/>
      <point x="1040" y="905"/>
      <point x="1010" y="878"/>
      <point x="1010" y="837"/>
      <point x="1037" y="807"/>
      <point x="1078" y="805"/>
    </contour>
    <contour>
      <point x="1069" y="850" type="line"/>
      <point x="1046" y="850"/>
      <point x="1046" y="880"/>
      <point x="1089" y="880"/>
      <point x="1089" y="850"/>
      <point x="1069" y="850" type="qcurve"/>
    </contour>
    <contour>
      <point x="503" y="525" type="line"/>
      <point x="503" y="527" type="line" smooth="yes"/>
      <point x="501" y="534"/>
      <point x="501" y="549" type="qcurve" smooth="yes"/>
      <point x="494" y="615"/>
      <point x="521" y="640" type="qcurve" smooth="yes"/>
      <point x="537" y="656"/>
      <point x="555" y="660" type="qcurve" smooth="yes"/>
      <point x="648" y="683"/>
      <point x="716" y="604" type="qcurve" smooth="yes"/>
      <point x="750" y="563"/>
      <point x="761" y="552" type="qcurve" smooth="yes"/>
      <point x="764" y="549" type="line"/>
      <point x="768" y="549" type="line"/>
      <point x="770" y="547"/>
      <point x="856" y="506" type="qcurve"/>
      <point x="859" y="506" type="line"/>
      <point x="859" y="509" type="line"/>
      <point x="854" y="516"/>
      <point x="834" y="547"/>
      <point x="809" y="613"/>
      <point x="813" y="640" type="qcurve" smooth="yes"/>
      <point x="818" y="669"/>
      <point x="870" y="683"/>
      <point x="908" y="676" type="qcurve" smooth="yes"/>
      <point x="945" y="672"/>
      <point x="965" y="672" type="qcurve" smooth="yes"/>
      <point x="1056" y="669"/>
      <point x="1114" y="697" type="qcurve" smooth="yes"/>
      <point x="1153" y="712"/>
      <point x="1162" y="721" type="qcurve" smooth="yes"/>
      <point x="1166" y="726"/>
      <point x="1169" y="735" type="qcurve"/>
      <point x="1171" y="737" type="line"/>
      <point x="1173" y="744"/>
      <point x="1175" y="755" type="qcurve" smooth="yes"/>
      <point x="1175" y="758"/>
      <point x="1175" y="760" type="qcurve"/>
      <point x="1169" y="760" type="line"/>
      <point x="1123" y="731"/>
      <point x="1076" y="731" type="qcurve" smooth="yes"/>
      <point x="1028" y="728"/>
      <point x="927" y="783" type="qcurve"/>
      <point x="924" y="787"/>
      <point x="906" y="828" type="qcurve"/>
      <point x="1008" y="762"/>
      <point x="1071" y="755" type="qcurve" smooth="yes"/>
      <point x="1119" y="753"/>
      <point x="1173" y="789" type="qcurve"/>
      <point x="1178" y="794"/>
      <point x="1180" y="794" type="qcurve"/>
      <point x="1178" y="812"/>
      <point x="1146" y="898"/>
      <point x="1135" y="912" type="qcurve" smooth="yes"/>
      <point x="1123" y="923"/>
      <point x="1117" y="927" type="qcurve" smooth="yes"/>
      <point x="1046" y="968"/>
      <point x="879" y="991" type="qcurve" smooth="yes"/>
      <point x="877" y="991" type="line"/>
      <point x="877" y="952" type="line"/>
      <point x="745" y="998"/>
      <point x="628" y="1002" type="qcurve" smooth="yes"/>
      <point x="560" y="1004"/>
      <point x="474" y="1000"/>
      <point x="304" y="948"/>
      <point x="220" y="896" type="qcurve"/>
      <point x="214" y="893" type="line"/>
      <point x="85" y="812"/>
      <point x="37" y="694" type="qcurve" smooth="yes"/>
      <point x="10" y="629"/>
      <point x="26" y="565" type="qcurve" smooth="yes"/>
      <point x="35" y="529"/>
      <point x="58" y="500" type="qcurve" smooth="yes"/>
      <point x="107" y="425"/>
      <point x="200" y="418" type="qcurve" smooth="yes"/>
      <point x="261" y="411"/>
      <point x="349" y="463"/>
      <point x="365" y="516" type="qcurve" smooth="yes"/>
      <point x="377" y="554"/>
      <point x="347" y="642"/>
      <point x="306" y="667" type="qcurve" smooth="yes"/>
      <point x="239" y="708"/>
      <point x="180" y="669" type="qcurve" smooth="yes"/>
      <point x="141" y="645"/>
      <point x="141" y="599" type="qcurve" smooth="yes"/>
      <point x="141" y="563"/>
      <point x="191" y="520"/>
      <point x="216" y="520" type="qcurve" smooth="yes"/>
      <point x="230" y="520"/>
      <point x="245" y="525" type="qcurve" smooth="yes"/>
      <point x="252" y="527"/>
      <point x="257" y="529" type="qcurve" smooth="yes"/>
      <point x="259" y="531" type="line"/>
      <point x="259" y="531" type="line"/>
      <point x="270" y="538"/>
      <point x="270" y="552" type="qcurve" smooth="yes"/>
      <point x="270" y="556"/>
      <point x="270" y="559" type="qcurve"/>
      <point x="263" y="581"/>
      <point x="239" y="579" type="qcurve"/>
      <point x="239" y="577" type="line"/>
      <point x="236" y="577" type="line"/>
      <point x="232" y="574" type="line"/>
      <point x="225" y="574"/>
      <point x="218" y="574" type="qcurve" smooth="yes"/>
      <point x="211" y="574"/>
      <point x="196" y="586"/>
      <point x="196" y="599" type="qcurve" smooth="yes"/>
      <point x="196" y="606"/>
      <point x="200" y="615" type="qcurve" smooth="yes"/>
      <point x="211" y="633"/>
      <point x="243" y="631" type="qcurve" smooth="yes"/>
      <point x="284" y="626"/>
      <point x="302" y="588" type="qcurve" smooth="yes"/>
      <point x="322" y="547"/>
      <point x="295" y="511" type="qcurve" smooth="yes"/>
      <point x="268" y="477"/>
      <point x="207" y="484" type="qcurve" smooth="yes"/>
      <point x="144" y="491"/>
      <point x="82" y="606"/>
      <point x="110" y="658" type="qcurve" smooth="yes"/>
      <point x="157" y="749"/>
      <point x="273" y="728" type="qcurve" smooth="yes"/>
      <point x="320" y="719"/>
      <point x="399" y="649"/>
      <point x="417" y="599" type="qcurve" smooth="yes"/>
      <point x="422" y="588"/>
      <point x="426" y="572" type="qcurve" smooth="yes"/>
      <point x="429" y="561" type="line"/>
      <point x="501" y="525" type="line"/>
      <point x="501" y="525" type="line"/>
    </contour>
    <contour>
      <point x="1010" y="905" type="line"/>
      <point x="1031" y="925"/>
      <point x="1087" y="923"/>
      <point x="1128" y="880"/>
      <point x="1126" y="823"/>
      <point x="1083" y="785"/>
      <point x="1026" y="787"/>
      <point x="988" y="828"/>
      <point x="990" y="887"/>
      <point x="1010" y="905" type="qcurve"/>
    </contour>
    <contour>
      <point x="899" y="518" type="line"/>
      <point x="902" y="518"/>
      <point x="902" y="520" type="qcurve" smooth="yes"/>
      <point x="902" y="540" type="line"/>
      <point x="899" y="540" type="line" smooth="yes"/>
      <point x="897" y="540"/>
      <point x="897" y="538" type="qcurve"/>
      <point x="893" y="531" type="line"/>
      <point x="888" y="538" type="line"/>
      <point x="888" y="540"/>
      <point x="888" y="540" type="qcurve"/>
      <point x="865" y="540" type="line" smooth="yes"/>
      <point x="863" y="540"/>
      <point x="863" y="538" type="qcurve" smooth="yes"/>
      <point x="863" y="536" type="line"/>
      <point x="863" y="536"/>
      <point x="865" y="536" type="qcurve" smooth="yes"/>
      <point x="872" y="536" type="line"/>
      <point x="872" y="520" type="line" smooth="yes"/>
      <point x="872" y="518"/>
      <point x="872" y="518" type="qcurve"/>
      <point x="874" y="518" type="line" smooth="yes"/>
      <point x="877" y="518"/>
      <point x="877" y="520" type="qcurve" smooth="yes"/>
      <point x="877" y="536" type="line"/>
      <point x="884" y="536" type="line"/>
      <point x="884" y="520" type="line" smooth="yes"/>
      <point x="884" y="518"/>
      <point x="886" y="518" type="qcurve" smooth="yes"/>
      <point x="888" y="518"/>
      <point x="888" y="520" type="qcurve" smooth="yes"/>
      <point x="888" y="534" type="line"/>
      <point x="890" y="529" type="line"/>
      <point x="893" y="529"/>
      <point x="895" y="529"/>
      <point x="895" y="529" type="qcurve"/>
      <point x="897" y="534" type="line"/>
      <point x="897" y="520" type="line" smooth="yes"/>
      <point x="897" y="518"/>
      <point x="899" y="518" type="qcurve"/>
    </contour>
  </outline>
</glyph>
<glyph name="Raspberry pi" format="2">
  <advance width="1200"/>
  <unicode hex="F315"/>
  <note>
Raspberry pi
</note>
  <outline>
    <contour>
      <point x="332" y="1420"/>
      <point x="321" y="1409" type="qcurve"/>
      <point x="282" y="1426"/>
      <point x="260" y="1403" type="qcurve"/>
      <point x="230" y="1409"/>
      <point x="216" y="1392" type="qcurve"/>
      <point x="163" y="1392"/>
      <point x="149" y="1370" type="qcurve"/>
      <point x="116" y="1373"/>
      <point x="88" y="1334"/>
      <point x="105" y="1312" type="qcurve"/>
      <point x="86" y="1281"/>
      <point x="108" y="1254" type="qcurve"/>
      <point x="94" y="1229"/>
      <point x="122" y="1198" type="qcurve"/>
      <point x="116" y="1170"/>
      <point x="144" y="1148" type="qcurve"/>
      <point x="141" y="1120"/>
      <point x="183" y="1096" type="qcurve"/>
      <point x="188" y="1062"/>
      <point x="230" y="1051" type="qcurve"/>
      <point x="235" y="1026"/>
      <point x="277" y="1015" type="qcurve"/>
      <point x="216" y="979"/>
      <point x="149" y="882"/>
      <point x="149" y="793" type="qcurve"/>
      <point x="141" y="777" type="line"/>
      <point x="97" y="749"/>
      <point x="41" y="646"/>
      <point x="49" y="508"/>
      <point x="102" y="449" type="qcurve"/>
      <point x="105" y="424"/>
      <point x="130" y="349" type="qcurve"/>
      <point x="141" y="269"/>
      <point x="244" y="169"/>
      <point x="280" y="161" type="qcurve"/>
      <point x="355" y="103"/>
      <point x="424" y="78" type="qcurve"/>
      <point x="499" y="0"/>
      <point x="599" y="0" type="qcurve" smooth="yes"/>
      <point x="601" y="0"/>
      <point x="601" y="0" type="qcurve"/>
      <point x="701" y="0"/>
      <point x="776" y="78" type="qcurve"/>
      <point x="845" y="103"/>
      <point x="920" y="161" type="qcurve"/>
      <point x="956" y="169"/>
      <point x="1059" y="269"/>
      <point x="1067" y="349" type="qcurve"/>
      <point x="1095" y="424"/>
      <point x="1098" y="449" type="qcurve"/>
      <point x="1151" y="508"/>
      <point x="1159" y="646"/>
      <point x="1103" y="749"/>
      <point x="1059" y="777" type="qcurve"/>
      <point x="1051" y="793" type="line"/>
      <point x="1051" y="882"/>
      <point x="984" y="979"/>
      <point x="923" y="1015" type="qcurve"/>
      <point x="965" y="1026"/>
      <point x="970" y="1051" type="qcurve"/>
      <point x="1012" y="1062"/>
      <point x="1017" y="1096" type="qcurve"/>
      <point x="1059" y="1120"/>
      <point x="1056" y="1148" type="qcurve"/>
      <point x="1084" y="1170"/>
      <point x="1078" y="1198" type="qcurve"/>
      <point x="1103" y="1229"/>
      <point x="1092" y="1254" type="qcurve"/>
      <point x="1114" y="1281"/>
      <point x="1095" y="1312" type="qcurve"/>
      <point x="1109" y="1334"/>
      <point x="1084" y="1373"/>
      <point x="1051" y="1370" type="qcurve"/>
      <point x="1037" y="1392"/>
      <point x="984" y="1392" type="qcurve"/>
      <point x="970" y="1409"/>
      <point x="940" y="1403" type="qcurve"/>
      <point x="918" y="1426"/>
      <point x="879" y="1409" type="qcurve"/>
      <point x="870" y="1417"/>
      <point x="851" y="1420"/>
      <point x="840" y="1417"/>
      <point x="820" y="1409"/>
      <point x="818" y="1409" type="qcurve" smooth="yes"/>
      <point x="798" y="1412"/>
      <point x="787" y="1412"/>
      <point x="768" y="1401"/>
      <point x="765" y="1398" type="qcurve"/>
      <point x="735" y="1406"/>
      <point x="710" y="1378" type="qcurve"/>
      <point x="704" y="1376"/>
      <point x="704" y="1373" type="qcurve"/>
      <point x="685" y="1376" type="line"/>
      <point x="624" y="1340"/>
      <point x="599" y="1251" type="qcurve"/>
      <point x="576" y="1340"/>
      <point x="515" y="1376" type="qcurve"/>
      <point x="496" y="1373" type="line"/>
      <point x="493" y="1376"/>
      <point x="490" y="1378" type="qcurve" smooth="yes"/>
      <point x="465" y="1406"/>
      <point x="435" y="1398" type="qcurve"/>
      <point x="432" y="1401"/>
      <point x="413" y="1412"/>
      <point x="402" y="1412"/>
      <point x="382" y="1409" type="qcurve"/>
      <point x="346" y="1420"/>
      <point x="346" y="1420" type="qcurve"/>
    </contour>
    <contour>
      <point x="840" y="1365"/>
      <point x="857" y="1384" type="qcurve"/>
      <point x="832" y="1376"/>
      <point x="804" y="1351" type="qcurve"/>
      <point x="793" y="1365"/>
      <point x="801" y="1376" type="qcurve"/>
      <point x="773" y="1362"/>
      <point x="757" y="1340" type="qcurve"/>
      <point x="751" y="1345"/>
      <point x="751" y="1365" type="qcurve"/>
      <point x="743" y="1359"/>
      <point x="704" y="1317" type="qcurve"/>
      <point x="701" y="1320"/>
      <point x="696" y="1340" type="qcurve"/>
      <point x="671" y="1312"/>
      <point x="632" y="1243"/>
      <point x="637" y="1159"/>
      <point x="679" y="1140" type="qcurve"/>
      <point x="790" y="1231"/>
      <point x="959" y="1287" type="qcurve"/>
      <point x="773" y="1193"/>
      <point x="704" y="1115" type="qcurve"/>
      <point x="718" y="1057"/>
      <point x="829" y="1021"/>
      <point x="882" y="1026" type="qcurve"/>
      <point x="868" y="1032"/>
      <point x="862" y="1040" type="qcurve"/>
      <point x="868" y="1043"/>
      <point x="923" y="1048"/>
      <point x="937" y="1057" type="qcurve"/>
      <point x="923" y="1059"/>
      <point x="918" y="1068" type="qcurve"/>
      <point x="973" y="1084"/>
      <point x="984" y="1096" type="qcurve"/>
      <point x="965" y="1096"/>
      <point x="956" y="1101" type="qcurve"/>
      <point x="1009" y="1129"/>
      <point x="1020" y="1140" type="qcurve"/>
      <point x="998" y="1143"/>
      <point x="995" y="1145" type="qcurve"/>
      <point x="1023" y="1165"/>
      <point x="1045" y="1187" type="qcurve"/>
      <point x="1026" y="1184"/>
      <point x="1017" y="1190" type="qcurve"/>
      <point x="1059" y="1231"/>
      <point x="1062" y="1237" type="qcurve"/>
      <point x="1042" y="1231"/>
      <point x="1031" y="1237" type="qcurve"/>
      <point x="1034" y="1243"/>
      <point x="1065" y="1267"/>
      <point x="1073" y="1284" type="qcurve"/>
      <point x="1045" y="1281"/>
      <point x="1042" y="1284" type="qcurve"/>
      <point x="1048" y="1306"/>
      <point x="1070" y="1334" type="qcurve"/>
      <point x="1062" y="1334"/>
      <point x="1048" y="1334" type="qcurve" smooth="yes"/>
      <point x="1004" y="1334"/>
      <point x="1004" y="1337" type="qcurve"/>
      <point x="1020" y="1353" type="line"/>
      <point x="995" y="1359"/>
      <point x="948" y="1345" type="qcurve"/>
      <point x="940" y="1353"/>
      <point x="959" y="1370" type="qcurve"/>
      <point x="926" y="1367"/>
      <point x="898" y="1356" type="qcurve"/>
      <point x="898" y="1362"/>
      <point x="895" y="1365"/>
      <point x="912" y="1381"/>
      <point x="912" y="1381" type="qcurve"/>
      <point x="879" y="1376"/>
      <point x="851" y="1356" type="qcurve"/>
    </contour>
    <contour>
      <point x="371" y="1376"/>
      <point x="346" y="1384" type="qcurve"/>
      <point x="363" y="1365"/>
      <point x="355" y="1356" type="qcurve"/>
      <point x="324" y="1376"/>
      <point x="291" y="1381" type="qcurve"/>
      <point x="291" y="1381"/>
      <point x="307" y="1365"/>
      <point x="305" y="1362"/>
      <point x="305" y="1356" type="qcurve"/>
      <point x="277" y="1367"/>
      <point x="244" y="1370" type="qcurve"/>
      <point x="263" y="1353"/>
      <point x="255" y="1345" type="qcurve"/>
      <point x="208" y="1359"/>
      <point x="183" y="1353" type="qcurve"/>
      <point x="199" y="1337" type="line"/>
      <point x="199" y="1334"/>
      <point x="133" y="1334" type="qcurve"/>
      <point x="155" y="1306"/>
      <point x="160" y="1284" type="qcurve"/>
      <point x="158" y="1281"/>
      <point x="130" y="1284" type="qcurve"/>
      <point x="138" y="1267"/>
      <point x="169" y="1243"/>
      <point x="172" y="1237" type="qcurve"/>
      <point x="160" y="1231"/>
      <point x="141" y="1237" type="qcurve"/>
      <point x="144" y="1231"/>
      <point x="185" y="1190" type="qcurve"/>
      <point x="177" y="1184"/>
      <point x="158" y="1187" type="qcurve"/>
      <point x="180" y="1165"/>
      <point x="210" y="1145" type="qcurve"/>
      <point x="205" y="1143"/>
      <point x="183" y="1140" type="qcurve"/>
      <point x="194" y="1129"/>
      <point x="246" y="1101" type="qcurve"/>
      <point x="238" y="1096"/>
      <point x="219" y="1096" type="qcurve"/>
      <point x="230" y="1084"/>
      <point x="285" y="1068" type="qcurve"/>
      <point x="280" y="1059"/>
      <point x="266" y="1057" type="qcurve"/>
      <point x="280" y="1048"/>
      <point x="335" y="1043"/>
      <point x="341" y="1040" type="qcurve"/>
      <point x="335" y="1032"/>
      <point x="321" y="1026" type="qcurve"/>
      <point x="352" y="1023"/>
      <point x="413" y="1032"/>
      <point x="490" y="1073"/>
      <point x="499" y="1115" type="qcurve"/>
      <point x="429" y="1193"/>
      <point x="244" y="1287" type="qcurve"/>
      <point x="413" y="1231"/>
      <point x="524" y="1140" type="qcurve"/>
      <point x="565" y="1159"/>
      <point x="571" y="1243"/>
      <point x="532" y="1312"/>
      <point x="507" y="1340" type="qcurve"/>
      <point x="502" y="1320"/>
      <point x="499" y="1317" type="qcurve"/>
      <point x="460" y="1359"/>
      <point x="452" y="1365" type="qcurve"/>
      <point x="452" y="1345"/>
      <point x="446" y="1340" type="qcurve"/>
      <point x="429" y="1362"/>
      <point x="402" y="1376" type="qcurve"/>
      <point x="410" y="1365"/>
      <point x="399" y="1351" type="qcurve"/>
    </contour>
    <contour>
      <point x="596" y="1021"/>
      <point x="599" y="1021" type="qcurve" smooth="yes"/>
      <point x="649" y="1021"/>
      <point x="748" y="960"/>
      <point x="746" y="924" type="qcurve" smooth="yes"/>
      <point x="746" y="893"/>
      <point x="665" y="849"/>
      <point x="599" y="849" type="qcurve" smooth="yes"/>
      <point x="538" y="851"/>
      <point x="454" y="901"/>
      <point x="454" y="932" type="qcurve" smooth="yes"/>
      <point x="454" y="960"/>
      <point x="540" y="1021"/>
      <point x="593" y="1021" type="qcurve" smooth="yes"/>
    </contour>
    <contour>
      <point x="396" y="993"/>
      <point x="421" y="990" type="qcurve"/>
      <point x="449" y="979"/>
      <point x="330" y="874" type="qcurve" smooth="yes"/>
      <point x="199" y="763"/>
      <point x="196" y="802" type="qcurve" smooth="yes"/>
      <point x="194" y="888"/>
      <point x="294" y="990"/>
      <point x="374" y="993" type="qcurve" smooth="yes"/>
    </contour>
    <contour>
      <point x="890" y="987"/>
      <point x="992" y="885"/>
      <point x="990" y="796" type="qcurve"/>
      <point x="981" y="763"/>
      <point x="851" y="876" type="qcurve" smooth="yes"/>
      <point x="732" y="979"/>
      <point x="765" y="985" type="qcurve" smooth="yes"/>
      <point x="787" y="990"/>
      <point x="809" y="990" type="qcurve" smooth="yes"/>
    </contour>
    <contour>
      <point x="762" y="846"/>
      <point x="765" y="846" type="qcurve" smooth="yes"/>
      <point x="851" y="840"/>
      <point x="904" y="763" type="qcurve" smooth="yes"/>
      <point x="945" y="704"/>
      <point x="931" y="574"/>
      <point x="882" y="541" type="qcurve"/>
      <point x="882" y="541"/>
      <point x="879" y="538"/>
      <point x="879" y="538" type="qcurve"/>
      <point x="829" y="505"/>
      <point x="704" y="541"/>
      <point x="624" y="660"/>
      <point x="637" y="790"/>
      <point x="687" y="824" type="qcurve"/>
      <point x="690" y="824"/>
      <point x="690" y="824" type="qcurve"/>
      <point x="721" y="843"/>
      <point x="759" y="846" type="qcurve" smooth="yes"/>
    </contour>
    <contour>
      <point x="477" y="838"/>
      <point x="510" y="815" type="qcurve" smooth="yes"/>
      <point x="560" y="782"/>
      <point x="574" y="652"/>
      <point x="535" y="594" type="qcurve" smooth="yes"/>
      <point x="496" y="535"/>
      <point x="371" y="499"/>
      <point x="321" y="530" type="qcurve"/>
      <point x="321" y="533"/>
      <point x="321" y="533" type="qcurve"/>
      <point x="271" y="566"/>
      <point x="255" y="696"/>
      <point x="296" y="754" type="qcurve" smooth="yes"/>
      <point x="349" y="835"/>
      <point x="435" y="838" type="qcurve" smooth="yes"/>
    </contour>
    <contour>
      <point x="1006" y="749"/>
      <point x="1009" y="749" type="qcurve"/>
      <point x="1067" y="716"/>
      <point x="1106" y="605"/>
      <point x="1078" y="502"/>
      <point x="1045" y="477" type="qcurve" smooth="yes"/>
      <point x="1040" y="474"/>
      <point x="1037" y="474" type="qcurve" smooth="yes"/>
      <point x="995" y="480"/>
      <point x="979" y="610" type="qcurve" smooth="yes"/>
      <point x="959" y="749"/>
      <point x="1004" y="749" type="qcurve" smooth="yes"/>
    </contour>
    <contour>
      <point x="202" y="746"/>
      <point x="208" y="710" type="qcurve" smooth="yes"/>
      <point x="227" y="621"/>
      <point x="185" y="516" type="qcurve" smooth="yes"/>
      <point x="163" y="460"/>
      <point x="141" y="471" type="qcurve"/>
      <point x="108" y="499"/>
      <point x="80" y="599"/>
      <point x="119" y="713"/>
      <point x="174" y="743" type="qcurve" smooth="yes"/>
      <point x="180" y="746"/>
      <point x="183" y="746" type="qcurve" smooth="yes"/>
    </contour>
    <contour>
      <point x="673" y="538"/>
      <point x="765" y="452"/>
      <point x="765" y="391" type="qcurve"/>
      <point x="765" y="391" type="line"/>
      <point x="765" y="330"/>
      <point x="671" y="241"/>
      <point x="538" y="241"/>
      <point x="441" y="330"/>
      <point x="441" y="391" type="qcurve"/>
      <point x="441" y="391" type="line"/>
      <point x="441" y="452"/>
      <point x="538" y="541"/>
      <point x="604" y="541" type="qcurve"/>
      <point x="604" y="541"/>
      <point x="607" y="541" type="qcurve" smooth="yes"/>
    </contour>
    <contour>
      <point x="979" y="485"/>
      <point x="995" y="474" type="qcurve"/>
      <point x="1020" y="449"/>
      <point x="1026" y="324"/>
      <point x="990" y="272" type="qcurve" smooth="yes"/>
      <point x="959" y="227"/>
      <point x="873" y="183"/>
      <point x="815" y="189"/>
      <point x="793" y="200" type="qcurve"/>
      <point x="768" y="227"/>
      <point x="796" y="355"/>
      <point x="834" y="399" type="qcurve" smooth="yes"/>
      <point x="909" y="483"/>
      <point x="959" y="485" type="qcurve" smooth="yes"/>
    </contour>
    <contour>
      <point x="294" y="463"/>
      <point x="366" y="383" type="qcurve"/>
      <point x="399" y="338"/>
      <point x="421" y="222"/>
      <point x="393" y="200" type="qcurve" smooth="yes"/>
      <point x="368" y="178"/>
      <point x="249" y="214"/>
      <point x="205" y="277" type="qcurve" smooth="yes"/>
      <point x="174" y="330"/>
      <point x="174" y="438"/>
      <point x="199" y="452" type="qcurve" smooth="yes"/>
      <point x="213" y="460"/>
      <point x="230" y="460" type="qcurve" smooth="yes"/>
    </contour>
    <contour>
      <point x="665" y="194"/>
      <point x="757" y="164"/>
      <point x="757" y="141" type="qcurve" smooth="yes"/>
      <point x="757" y="116"/>
      <point x="654" y="44"/>
      <point x="599" y="44" type="qcurve" smooth="yes"/>
      <point x="546" y="42"/>
      <point x="441" y="111"/>
      <point x="441" y="133" type="qcurve" smooth="yes"/>
      <point x="441" y="158"/>
      <point x="551" y="197"/>
      <point x="604" y="194" type="qcurve" smooth="yes"/>
      <point x="610" y="194"/>
      <point x="615" y="194" type="qcurve" smooth="yes"/>
    </contour>
  </outline>
</glyph>
<glyph name="Red Hat" format="2">
  <advance width="1200"/>
  <unicode hex="F316"/>
  <note>
Red Hat
</note>
  <outline>
    <contour>
      <point x="20" y="881"/>
      <point x="20" y="641" type="qcurve" smooth="yes"/>
      <point x="20" y="546"/>
      <point x="49" y="457" type="qcurve"/>
      <point x="90" y="457" type="line" smooth="yes"/>
      <point x="142" y="457"/>
      <point x="188" y="480" type="qcurve" smooth="yes"/>
      <point x="199" y="487"/>
      <point x="210" y="487" type="qcurve" smooth="yes"/>
      <point x="240" y="487"/>
      <point x="253" y="462" type="qcurve" smooth="yes"/>
      <point x="265" y="444"/>
      <point x="281" y="435" type="qcurve" smooth="yes"/>
      <point x="294" y="424"/>
      <point x="315" y="426" type="qcurve" smooth="yes"/>
      <point x="335" y="426"/>
      <point x="337" y="435" type="qcurve" smooth="yes"/>
      <point x="342" y="448"/>
      <point x="326" y="455" type="qcurve" smooth="yes"/>
      <point x="310" y="462"/>
      <point x="296" y="487" type="qcurve" smooth="yes"/>
      <point x="294" y="491"/>
      <point x="281" y="507"/>
      <point x="269" y="525"/>
      <point x="267" y="537" type="qcurve" smooth="yes"/>
      <point x="265" y="559"/>
      <point x="299" y="596"/>
      <point x="328" y="589" type="qcurve" smooth="yes"/>
      <point x="358" y="580"/>
      <point x="387" y="530" type="qcurve"/>
      <point x="389" y="523"/>
      <point x="407" y="519"/>
      <point x="416" y="523" type="qcurve"/>
      <point x="432" y="539"/>
      <point x="446" y="521" type="qcurve" smooth="yes"/>
      <point x="460" y="501"/>
      <point x="525" y="439"/>
      <point x="561" y="439" type="qcurve" smooth="yes"/>
      <point x="593" y="437"/>
      <point x="666" y="453"/>
      <point x="673" y="451" type="qcurve"/>
      <point x="684" y="451"/>
      <point x="706" y="439"/>
      <point x="709" y="439" type="qcurve" smooth="yes"/>
      <point x="718" y="439"/>
      <point x="750" y="453"/>
      <point x="759" y="453" type="qcurve" smooth="yes"/>
      <point x="768" y="453"/>
      <point x="799" y="442"/>
      <point x="811" y="442" type="qcurve" smooth="yes"/>
      <point x="818" y="442"/>
      <point x="847" y="451"/>
      <point x="863" y="457"/>
      <point x="865" y="453" type="qcurve"/>
      <point x="863" y="444"/>
      <point x="849" y="401"/>
      <point x="849" y="396"/>
      <point x="847" y="360"/>
      <point x="842" y="351" type="qcurve"/>
      <point x="840" y="340"/>
      <point x="818" y="306" type="qcurve" smooth="yes"/>
      <point x="813" y="299"/>
      <point x="788" y="269"/>
      <point x="781" y="256" type="qcurve" smooth="yes"/>
      <point x="779" y="249"/>
      <point x="743" y="199" type="qcurve"/>
      <point x="772" y="197"/>
      <point x="799" y="217" type="qcurve"/>
      <point x="799" y="217"/>
      <point x="829" y="254"/>
      <point x="861" y="276"/>
      <point x="876" y="279" type="qcurve" smooth="yes"/>
      <point x="897" y="283"/>
      <point x="910" y="297"/>
      <point x="906" y="306" type="qcurve"/>
      <point x="906" y="308"/>
      <point x="906" y="308" type="qcurve"/>
      <point x="906" y="315"/>
      <point x="910" y="317" type="qcurve" smooth="yes"/>
      <point x="956" y="335"/>
      <point x="1017" y="335" type="qcurve" smooth="yes"/>
      <point x="1053" y="335"/>
      <point x="1087" y="328" type="qcurve"/>
      <point x="1180" y="471"/>
      <point x="1180" y="641" type="qcurve" smooth="yes"/>
      <point x="1180" y="881"/>
      <point x="840" y="1221"/>
      <point x="360" y="1221"/>
    </contour>
    <contour>
      <point x="756" y="1101"/>
      <point x="788" y="1067" type="qcurve" smooth="yes"/>
      <point x="813" y="1042"/>
      <point x="872" y="913"/>
      <point x="890" y="849" type="qcurve" smooth="yes"/>
      <point x="904" y="804"/>
      <point x="892" y="777" type="qcurve" smooth="yes"/>
      <point x="885" y="763"/>
      <point x="872" y="741" type="qcurve" smooth="yes"/>
      <point x="870" y="736"/>
      <point x="874" y="732"/>
      <point x="876" y="734" type="qcurve"/>
      <point x="915" y="752"/>
      <point x="926" y="795" type="qcurve"/>
      <point x="1003" y="779"/>
      <point x="1080" y="704"/>
      <point x="1071" y="652" type="qcurve" smooth="yes"/>
      <point x="1051" y="541"/>
      <point x="734" y="467"/>
      <point x="550" y="523" type="qcurve" smooth="yes"/>
      <point x="376" y="575"/>
      <point x="122" y="754"/>
      <point x="140" y="815" type="qcurve" smooth="yes"/>
      <point x="149" y="849"/>
      <point x="253" y="879"/>
      <point x="330" y="872" type="qcurve"/>
      <point x="301" y="813"/>
      <point x="383" y="763" type="qcurve" smooth="yes"/>
      <point x="441" y="729"/>
      <point x="609" y="677"/>
      <point x="639" y="682" type="qcurve" smooth="yes"/>
      <point x="641" y="682"/>
      <point x="643" y="682" type="qcurve" smooth="yes"/>
      <point x="668" y="686"/>
      <point x="652" y="698" type="qcurve" smooth="yes"/>
      <point x="632" y="711"/>
      <point x="623" y="752" type="qcurve"/>
      <point x="618" y="763"/>
      <point x="611" y="777"/>
      <point x="566" y="800"/>
      <point x="525" y="806" type="qcurve" smooth="yes"/>
      <point x="460" y="820"/>
      <point x="378" y="854"/>
      <point x="355" y="883"/>
      <point x="344" y="915"/>
      <point x="351" y="926" type="qcurve"/>
      <point x="376" y="1028" type="line" smooth="yes"/>
      <point x="398" y="1115"/>
      <point x="521" y="1087" type="qcurve" smooth="yes"/>
      <point x="541" y="1083"/>
      <point x="575" y="1081"/>
      <point x="605" y="1085"/>
      <point x="623" y="1090"/>
      <point x="645" y="1096"/>
      <point x="648" y="1096" type="qcurve" smooth="yes"/>
      <point x="673" y="1103"/>
      <point x="697" y="1103" type="qcurve" smooth="yes"/>
    </contour>
    <contour>
      <point x="688" y="1076"/>
      <point x="679" y="1074" type="qcurve"/>
      <point x="645" y="1071"/>
      <point x="625" y="1060" type="qcurve"/>
      <point x="623" y="1060"/>
      <point x="623" y="1058" type="qcurve" smooth="yes"/>
      <point x="623" y="1056"/>
      <point x="625" y="1056" type="qcurve"/>
      <point x="625" y="1056" type="line"/>
      <point x="632" y="1058"/>
      <point x="636" y="1058" type="qcurve" smooth="yes"/>
      <point x="702" y="1065"/>
      <point x="704" y="1044" type="qcurve" smooth="yes"/>
      <point x="706" y="1031"/>
      <point x="666" y="1022" type="qcurve" smooth="yes"/>
      <point x="663" y="1022"/>
      <point x="663" y="1017"/>
      <point x="666" y="1017" type="qcurve" smooth="yes"/>
      <point x="682" y="1013"/>
      <point x="700" y="1013" type="qcurve" smooth="yes"/>
      <point x="727" y="1013"/>
      <point x="768" y="1028"/>
      <point x="768" y="1056"/>
      <point x="729" y="1074"/>
      <point x="702" y="1076" type="qcurve" smooth="yes"/>
      <point x="697" y="1076" type="line" smooth="yes"/>
    </contour>
    <contour>
      <point x="412" y="1006"/>
      <point x="405" y="992" type="qcurve" smooth="yes"/>
      <point x="398" y="976"/>
      <point x="416" y="947"/>
      <point x="428" y="945" type="qcurve"/>
      <point x="435" y="933" type="line" smooth="yes"/>
      <point x="441" y="924"/>
      <point x="460" y="913"/>
      <point x="469" y="920" type="qcurve"/>
      <point x="487" y="940"/>
      <point x="555" y="945" type="qcurve" smooth="yes"/>
      <point x="577" y="947"/>
      <point x="589" y="956"/>
      <point x="589" y="963" type="qcurve" smooth="yes"/>
      <point x="586" y="983"/>
      <point x="539" y="983" type="qcurve" smooth="yes"/>
      <point x="523" y="983"/>
      <point x="480" y="979"/>
      <point x="473" y="979" type="qcurve" smooth="yes"/>
      <point x="453" y="979"/>
      <point x="437" y="999" type="qcurve" smooth="yes"/>
      <point x="430" y="1006"/>
      <point x="423" y="1006" type="qcurve" smooth="yes"/>
    </contour>
    <contour>
      <point x="716" y="369"/>
      <point x="709" y="365" type="qcurve" smooth="yes"/>
      <point x="700" y="356"/>
      <point x="673" y="371" type="qcurve" smooth="yes"/>
      <point x="654" y="380"/>
      <point x="632" y="374"/>
      <point x="629" y="365" type="qcurve"/>
      <point x="625" y="358"/>
      <point x="632" y="344"/>
      <point x="641" y="346" type="qcurve" smooth="yes"/>
      <point x="654" y="349"/>
      <point x="670" y="337" type="qcurve" smooth="yes"/>
      <point x="695" y="322"/>
      <point x="716" y="337" type="qcurve" smooth="yes"/>
      <point x="725" y="344"/>
      <point x="729" y="356" type="qcurve" smooth="yes"/>
      <point x="738" y="371"/>
      <point x="727" y="380" type="qcurve"/>
      <point x="725" y="380" type="line"/>
    </contour>
    <contour>
      <point x="1144" y="351" type="qcurve" smooth="yes"/>
      <point x="1144" y="335"/>
      <point x="1175" y="335"/>
      <point x="1175" y="351" type="qcurve" smooth="yes"/>
      <point x="1175" y="367"/>
      <point x="1144" y="367"/>
    </contour>
    <contour>
      <point x="1173" y="365"/>
      <point x="1173" y="351" type="qcurve" smooth="yes"/>
      <point x="1173" y="337"/>
      <point x="1160" y="337" type="qcurve" smooth="yes"/>
      <point x="1146" y="337"/>
      <point x="1146" y="351" type="qcurve" smooth="yes"/>
      <point x="1146" y="365"/>
      <point x="1160" y="365" type="qcurve" smooth="yes"/>
    </contour>
    <contour>
      <point x="1155" y="342" type="line"/>
      <point x="1157" y="342" type="line"/>
      <point x="1157" y="349" type="line"/>
      <point x="1160" y="349" type="line"/>
      <point x="1164" y="342" type="line"/>
      <point x="1166" y="342" type="line"/>
      <point x="1162" y="349" type="line"/>
      <point x="1166" y="351"/>
      <point x="1166" y="356" type="qcurve" smooth="yes"/>
      <point x="1166" y="360"/>
      <point x="1162" y="360" type="qcurve" smooth="yes"/>
      <point x="1155" y="360" type="line"/>
    </contour>
    <contour>
      <point x="1157" y="351" type="line"/>
      <point x="1157" y="358" type="line"/>
      <point x="1160" y="358" type="line" smooth="yes"/>
      <point x="1164" y="358"/>
      <point x="1164" y="351"/>
      <point x="1160" y="351" type="qcurve" smooth="yes"/>
    </contour>
  </outline>
</glyph>
<glyph name="Sabayon" format="2">
  <advance width="1200"/>
  <unicode hex="F317"/>
  <note>
Sabayon
</note>
  <outline>
    <contour>
      <point x="595" y="1290"/>
      <point x="589" y="1290" type="qcurve" smooth="yes"/>
      <point x="349" y="1285"/>
      <point x="16" y="939"/>
      <point x="25" y="459"/>
      <point x="371" y="126"/>
      <point x="851" y="135"/>
      <point x="1184" y="481"/>
      <point x="1180" y="721" type="qcurve" smooth="yes"/>
      <point x="1175" y="957"/>
      <point x="838" y="1288"/>
      <point x="605" y="1290" type="qcurve" smooth="yes"/>
    </contour>
    <contour>
      <point x="609" y="1127"/>
      <point x="614" y="1095"/>
      <point x="618" y="1095" type="qcurve"/>
      <point x="629" y="1032"/>
      <point x="616" y="993" type="qcurve" smooth="yes"/>
      <point x="611" y="982"/>
      <point x="589" y="982"/>
      <point x="571" y="1002"/>
      <point x="573" y="1014" type="qcurve" smooth="yes"/>
      <point x="573" y="1016"/>
      <point x="568" y="1034"/>
      <point x="566" y="1045"/>
      <point x="573" y="1050" type="qcurve"/>
      <point x="573" y="1057"/>
      <point x="575" y="1100"/>
      <point x="584" y="1125"/>
      <point x="598" y="1127" type="qcurve" smooth="yes"/>
    </contour>
    <contour>
      <point x="600" y="957"/>
      <point x="609" y="955"/>
      <point x="616" y="952"/>
      <point x="625" y="943"/>
      <point x="629" y="939"/>
      <point x="636" y="928"/>
      <point x="639" y="925"/>
      <point x="645" y="909"/>
      <point x="648" y="909" type="qcurve"/>
      <point x="657" y="837"/>
      <point x="663" y="792" type="qcurve"/>
      <point x="663" y="778"/>
      <point x="663" y="665"/>
      <point x="663" y="651" type="qcurve"/>
      <point x="659" y="647"/>
      <point x="661" y="615"/>
      <point x="659" y="608" type="qcurve"/>
      <point x="654" y="604"/>
      <point x="661" y="585"/>
      <point x="659" y="583" type="qcurve"/>
      <point x="645" y="556"/>
      <point x="682" y="515"/>
      <point x="711" y="511" type="qcurve"/>
      <point x="752" y="518"/>
      <point x="870" y="606"/>
      <point x="888" y="613" type="qcurve" smooth="yes"/>
      <point x="917" y="624"/>
      <point x="969" y="579"/>
      <point x="940" y="551" type="qcurve"/>
      <point x="917" y="495"/>
      <point x="849" y="454" type="qcurve"/>
      <point x="822" y="434"/>
      <point x="709" y="370"/>
      <point x="686" y="354" type="qcurve"/>
      <point x="623" y="296"/>
      <point x="564" y="307" type="qcurve"/>
      <point x="516" y="309"/>
      <point x="430" y="357"/>
      <point x="328" y="438"/>
      <point x="303" y="454" type="qcurve" smooth="yes"/>
      <point x="299" y="456"/>
      <point x="274" y="470"/>
      <point x="262" y="477"/>
      <point x="244" y="490"/>
      <point x="240" y="499" type="qcurve"/>
      <point x="204" y="524"/>
      <point x="253" y="588"/>
      <point x="292" y="574" type="qcurve"/>
      <point x="319" y="574"/>
      <point x="405" y="529"/>
      <point x="421" y="524" type="qcurve" smooth="yes"/>
      <point x="428" y="522"/>
      <point x="478" y="497"/>
      <point x="509" y="499"/>
      <point x="518" y="520" type="qcurve"/>
      <point x="525" y="522"/>
      <point x="521" y="536"/>
      <point x="521" y="540" type="qcurve" smooth="yes"/>
      <point x="523" y="601"/>
      <point x="521" y="701"/>
      <point x="528" y="823"/>
      <point x="539" y="871" type="qcurve"/>
      <point x="539" y="875"/>
      <point x="552" y="916"/>
      <point x="559" y="934"/>
      <point x="580" y="955"/>
      <point x="593" y="957" type="qcurve" smooth="yes"/>
    </contour>
    <contour>
      <point x="1053" y="696"/>
      <point x="1058" y="694" type="qcurve"/>
      <point x="1078" y="672"/>
      <point x="1030" y="615"/>
      <point x="1003" y="608" type="qcurve" smooth="yes"/>
      <point x="974" y="599"/>
      <point x="958" y="626" type="qcurve"/>
      <point x="956" y="629" type="line"/>
      <point x="967" y="681"/>
      <point x="1049" y="696" type="qcurve"/>
    </contour>
    <contour>
      <point x="151" y="649"/>
      <point x="154" y="649" type="qcurve"/>
      <point x="190" y="629"/>
      <point x="213" y="608" type="qcurve"/>
      <point x="231" y="597"/>
      <point x="206" y="570"/>
      <point x="190" y="567" type="qcurve"/>
      <point x="149" y="576"/>
      <point x="129" y="649" type="qcurve"/>
    </contour>
  </outline>
</glyph>
<glyph name="Slackware (inverse)" format="2">
  <advance width="1200"/>
  <unicode hex="F319"/>
  <note>
Slackware (inverse)
</note>
  <outline>
    <contour>
      <point x="20" y="950"/>
      <point x="20" y="470"/>
      <point x="360" y="130"/>
      <point x="840" y="130"/>
      <point x="1180" y="470"/>
      <point x="1180" y="950"/>
      <point x="840" y="1290"/>
      <point x="360" y="1290"/>
    </contour>
    <contour>
      <point x="1148" y="937"/>
      <point x="1148" y="483"/>
      <point x="827" y="162"/>
      <point x="373" y="162"/>
      <point x="52" y="483"/>
      <point x="52" y="937"/>
      <point x="373" y="1258"/>
      <point x="827" y="1258"/>
    </contour>
    <contour>
      <point x="480" y="1082"/>
      <point x="405" y="1043" type="qcurve" smooth="yes"/>
      <point x="315" y="993"/>
      <point x="315" y="905" type="qcurve" smooth="yes"/>
      <point x="315" y="821"/>
      <point x="403" y="776" type="qcurve" smooth="yes"/>
      <point x="469" y="739"/>
      <point x="557" y="739" type="qcurve" smooth="yes"/>
      <point x="634" y="739"/>
      <point x="677" y="721" type="qcurve" smooth="yes"/>
      <point x="725" y="699"/>
      <point x="725" y="656" type="qcurve" smooth="yes"/>
      <point x="725" y="613"/>
      <point x="679" y="590" type="qcurve" smooth="yes"/>
      <point x="632" y="565"/>
      <point x="559" y="565" type="qcurve" smooth="yes"/>
      <point x="489" y="565"/>
      <point x="444" y="604" type="qcurve" smooth="yes"/>
      <point x="407" y="633"/>
      <point x="407" y="662" type="qcurve" smooth="yes"/>
      <point x="407" y="681"/>
      <point x="389" y="692" type="qcurve" smooth="yes"/>
      <point x="373" y="703"/>
      <point x="351" y="703" type="qcurve" smooth="yes"/>
      <point x="330" y="703"/>
      <point x="317" y="692" type="qcurve" smooth="yes"/>
      <point x="301" y="681"/>
      <point x="301" y="662" type="qcurve" smooth="yes"/>
      <point x="301" y="545" type="line" smooth="yes"/>
      <point x="303" y="517"/>
      <point x="315" y="499" type="qcurve" smooth="yes"/>
      <point x="330" y="479"/>
      <point x="360" y="479" type="qcurve" smooth="yes"/>
      <point x="392" y="479"/>
      <point x="403" y="488" type="qcurve" smooth="yes"/>
      <point x="412" y="495"/>
      <point x="414" y="506" type="qcurve"/>
      <point x="414" y="506"/>
      <point x="414" y="513"/>
      <point x="414" y="513" type="qcurve"/>
      <point x="491" y="479"/>
      <point x="573" y="479" type="qcurve" smooth="yes"/>
      <point x="688" y="479"/>
      <point x="761" y="529" type="qcurve" smooth="yes"/>
      <point x="838" y="579"/>
      <point x="836" y="656" type="qcurve" smooth="yes"/>
      <point x="836" y="762"/>
      <point x="727" y="807" type="qcurve" smooth="yes"/>
      <point x="659" y="835"/>
      <point x="557" y="835" type="qcurve" smooth="yes"/>
      <point x="498" y="835"/>
      <point x="462" y="860" type="qcurve" smooth="yes"/>
      <point x="430" y="880"/>
      <point x="430" y="905" type="qcurve" smooth="yes"/>
      <point x="430" y="937"/>
      <point x="500" y="995"/>
      <point x="568" y="995" type="qcurve" smooth="yes"/>
      <point x="620" y="995"/>
      <point x="688" y="961"/>
      <point x="704" y="932"/>
      <point x="706" y="921" type="qcurve"/>
      <point x="709" y="918" type="line"/>
      <point x="718" y="884"/>
      <point x="761" y="884" type="qcurve" smooth="yes"/>
      <point x="781" y="884"/>
      <point x="795" y="894" type="qcurve" smooth="yes"/>
      <point x="811" y="905"/>
      <point x="811" y="923" type="qcurve" smooth="yes"/>
      <point x="811" y="1034" type="line" smooth="yes"/>
      <point x="811" y="1050"/>
      <point x="793" y="1066" type="qcurve" smooth="yes"/>
      <point x="774" y="1079"/>
      <point x="754" y="1079" type="qcurve" smooth="yes"/>
      <point x="734" y="1079"/>
      <point x="720" y="1070" type="qcurve" smooth="yes"/>
      <point x="711" y="1066"/>
      <point x="704" y="1057" type="qcurve"/>
      <point x="684" y="1066"/>
      <point x="659" y="1073" type="qcurve" smooth="yes"/>
      <point x="614" y="1082"/>
      <point x="571" y="1082" type="qcurve" smooth="yes"/>
    </contour>
    <contour>
      <point x="194" y="608"/>
      <point x="194" y="608" type="qcurve"/>
      <point x="183" y="606"/>
      <point x="183" y="594" type="qcurve" smooth="yes"/>
      <point x="185" y="409" type="line" smooth="yes"/>
      <point x="185" y="397"/>
      <point x="199" y="397" type="qcurve" smooth="yes"/>
      <point x="940" y="397" type="line" smooth="yes"/>
      <point x="951" y="397"/>
      <point x="951" y="409" type="qcurve" smooth="yes"/>
      <point x="951" y="431" type="line" smooth="yes"/>
      <point x="951" y="445"/>
      <point x="940" y="445" type="qcurve" smooth="yes"/>
      <point x="233" y="445" type="line"/>
      <point x="233" y="594" type="line" smooth="yes"/>
      <point x="233" y="606"/>
      <point x="222" y="608" type="qcurve"/>
      <point x="197" y="608" type="line" smooth="yes"/>
    </contour>
  </outline>
</glyph>
<glyph name="Tux" format="2">
  <advance width="1200"/>
  <unicode hex="F31A"/>
  <note>
Tux
</note>
  <outline>
    <contour>
      <point x="784" y="297"/>
      <point x="770" y="284" type="qcurve" smooth="yes"/>
      <point x="715" y="231"/>
      <point x="678" y="210" type="qcurve" smooth="yes"/>
      <point x="662" y="202"/>
      <point x="643" y="196" type="qcurve" smooth="yes"/>
      <point x="619" y="188"/>
      <point x="582" y="186" type="qcurve"/>
      <point x="577" y="183"/>
      <point x="566" y="183" type="qcurve" smooth="yes"/>
      <point x="516" y="186"/>
      <point x="474" y="202" type="qcurve" smooth="yes"/>
      <point x="455" y="210"/>
      <point x="450" y="212" type="qcurve"/>
      <point x="460" y="202"/>
      <point x="474" y="170"/>
      <point x="484" y="133"/>
      <point x="487" y="125" type="qcurve"/>
      <point x="513" y="130"/>
      <point x="535" y="133" type="qcurve" smooth="yes"/>
      <point x="548" y="133"/>
      <point x="550" y="133" type="qcurve" smooth="yes"/>
      <point x="572" y="130"/>
      <point x="590" y="130" type="qcurve" smooth="yes"/>
      <point x="593" y="130"/>
      <point x="596" y="130" type="qcurve" smooth="yes"/>
      <point x="601" y="130"/>
      <point x="609" y="130" type="qcurve" smooth="yes"/>
      <point x="646" y="127"/>
      <point x="680" y="122" type="qcurve" smooth="yes"/>
      <point x="712" y="117"/>
      <point x="747" y="109" type="qcurve"/>
      <point x="752" y="109"/>
      <point x="773" y="104"/>
      <point x="776" y="104" type="qcurve"/>
      <point x="760" y="194"/>
      <point x="794" y="305" type="qcurve"/>
      <point x="794" y="305"/>
      <point x="794" y="308"/>
      <point x="794" y="308" type="qcurve"/>
    </contour>
    <contour>
      <point x="784" y="992"/>
      <point x="755" y="946"/>
      <point x="749" y="888" type="qcurve"/>
      <point x="752" y="880"/>
      <point x="755" y="878" type="qcurve"/>
      <point x="776" y="827"/>
      <point x="784" y="774" type="qcurve"/>
      <point x="813" y="745"/>
      <point x="831" y="708" type="qcurve" smooth="yes"/>
      <point x="876" y="618"/>
      <point x="858" y="469" type="qcurve" smooth="yes"/>
      <point x="858" y="467"/>
      <point x="855" y="461"/>
      <point x="855" y="456" type="qcurve"/>
      <point x="863" y="453"/>
      <point x="869" y="451" type="qcurve"/>
      <point x="863" y="432"/>
      <point x="863" y="411" type="qcurve" smooth="yes"/>
      <point x="866" y="387"/>
      <point x="876" y="377" type="qcurve" smooth="yes"/>
      <point x="884" y="366"/>
      <point x="903" y="361" type="qcurve" smooth="yes"/>
      <point x="927" y="353"/>
      <point x="951" y="361" type="qcurve"/>
      <point x="951" y="361" type="line"/>
      <point x="993" y="377"/>
      <point x="1017" y="411" type="qcurve" smooth="yes"/>
      <point x="1028" y="424"/>
      <point x="1030" y="435" type="qcurve" smooth="yes"/>
      <point x="1030" y="438"/>
      <point x="1030" y="440" type="qcurve"/>
      <point x="1043" y="461"/>
      <point x="1046" y="488" type="qcurve" smooth="yes"/>
      <point x="1054" y="525"/>
      <point x="1046" y="581" type="qcurve" smooth="yes"/>
      <point x="1036" y="642"/>
      <point x="1009" y="703" type="qcurve" smooth="yes"/>
      <point x="988" y="756"/>
      <point x="967" y="787" type="qcurve"/>
      <point x="956" y="798"/>
      <point x="914" y="846"/>
      <point x="906" y="856" type="qcurve" smooth="yes"/>
      <point x="900" y="862"/>
      <point x="884" y="891"/>
      <point x="876" y="899" type="qcurve"/>
      <point x="871" y="912"/>
      <point x="866" y="923" type="qcurve" smooth="yes"/>
      <point x="837" y="989"/>
      <point x="829" y="1000" type="qcurve" smooth="yes"/>
      <point x="826" y="1005"/>
      <point x="821" y="1013" type="qcurve"/>
    </contour>
    <contour>
      <point x="829" y="764"/>
      <point x="855" y="750" type="qcurve" smooth="yes"/>
      <point x="922" y="719"/>
      <point x="940" y="658" type="qcurve" smooth="yes"/>
      <point x="961" y="594"/>
      <point x="922" y="493" type="qcurve"/>
      <point x="922" y="493"/>
      <point x="924" y="493" type="qcurve" smooth="yes"/>
      <point x="932" y="493"/>
      <point x="943" y="491" type="qcurve" smooth="yes"/>
      <point x="951" y="491"/>
      <point x="969" y="485"/>
      <point x="972" y="485" type="qcurve" smooth="yes"/>
      <point x="975" y="485"/>
      <point x="977" y="485" type="qcurve"/>
      <point x="975" y="485"/>
      <point x="969" y="485" type="qcurve"/>
      <point x="969" y="485"/>
      <point x="967" y="485" type="qcurve" smooth="yes"/>
      <point x="964" y="485"/>
      <point x="961" y="485" type="qcurve" smooth="yes"/>
      <point x="959" y="485"/>
      <point x="959" y="485" type="qcurve"/>
      <point x="953" y="485"/>
      <point x="948" y="485" type="qcurve" smooth="yes"/>
      <point x="940" y="485"/>
      <point x="930" y="483" type="qcurve" smooth="yes"/>
      <point x="924" y="483"/>
      <point x="919" y="483"/>
      <point x="916" y="483" type="qcurve"/>
      <point x="916" y="483" type="line"/>
      <point x="911" y="480"/>
      <point x="906" y="480" type="qcurve"/>
      <point x="903" y="477"/>
      <point x="900" y="477" type="qcurve" smooth="yes"/>
      <point x="898" y="477"/>
      <point x="898" y="477" type="qcurve"/>
      <point x="895" y="475"/>
      <point x="890" y="472" type="qcurve" smooth="yes"/>
      <point x="882" y="467"/>
      <point x="882" y="464" type="qcurve"/>
      <point x="879" y="464"/>
      <point x="876" y="464" type="qcurve"/>
      <point x="876" y="461" type="line"/>
      <point x="882" y="472"/>
      <point x="890" y="480" type="qcurve" smooth="yes"/>
      <point x="898" y="488"/>
      <point x="911" y="491" type="qcurve"/>
      <point x="943" y="583"/>
      <point x="935" y="636" type="qcurve" smooth="yes"/>
      <point x="927" y="692"/>
      <point x="884" y="724" type="qcurve" smooth="yes"/>
      <point x="876" y="732"/>
      <point x="839" y="753"/>
      <point x="831" y="761" type="qcurve" smooth="yes"/>
      <point x="829" y="764"/>
      <point x="826" y="766" type="qcurve"/>
    </contour>
    <contour>
      <point x="821" y="467"/>
      <point x="818" y="467" type="qcurve" smooth="yes"/>
      <point x="802" y="467"/>
      <point x="789" y="456" type="qcurve" smooth="yes"/>
      <point x="781" y="448"/>
      <point x="776" y="432" type="qcurve"/>
      <point x="776" y="430"/>
      <point x="776" y="427" type="qcurve" smooth="yes"/>
      <point x="773" y="419"/>
      <point x="776" y="403" type="qcurve" smooth="yes"/>
      <point x="778" y="337"/>
      <point x="773" y="284" type="qcurve" smooth="yes"/>
      <point x="770" y="257"/>
      <point x="763" y="218" type="qcurve" smooth="yes"/>
      <point x="752" y="159"/>
      <point x="752" y="133" type="qcurve" smooth="yes"/>
      <point x="752" y="98"/>
      <point x="765" y="80" type="qcurve" smooth="yes"/>
      <point x="778" y="59"/>
      <point x="810" y="45" type="qcurve" smooth="yes"/>
      <point x="847" y="27"/>
      <point x="884" y="32" type="qcurve" smooth="yes"/>
      <point x="914" y="37"/>
      <point x="943" y="59" type="qcurve" smooth="yes"/>
      <point x="951" y="64"/>
      <point x="985" y="96" type="qcurve" smooth="yes"/>
      <point x="1006" y="117"/>
      <point x="1030" y="133" type="qcurve" smooth="yes"/>
      <point x="1041" y="138"/>
      <point x="1112" y="175" type="qcurve" smooth="yes"/>
      <point x="1147" y="191"/>
      <point x="1163" y="210" type="qcurve" smooth="yes"/>
      <point x="1173" y="223"/>
      <point x="1179" y="236" type="qcurve"/>
      <point x="1179" y="239"/>
      <point x="1179" y="239" type="qcurve"/>
      <point x="1181" y="252"/>
      <point x="1179" y="263" type="qcurve" smooth="yes"/>
      <point x="1176" y="268"/>
      <point x="1173" y="273" type="qcurve" smooth="yes"/>
      <point x="1168" y="284"/>
      <point x="1157" y="292" type="qcurve"/>
      <point x="1157" y="292"/>
      <point x="1144" y="302" type="qcurve"/>
      <point x="1134" y="308"/>
      <point x="1102" y="337"/>
      <point x="1094" y="345" type="qcurve" smooth="yes"/>
      <point x="1083" y="355"/>
      <point x="1081" y="366" type="qcurve" smooth="yes"/>
      <point x="1081" y="369"/>
      <point x="1081" y="369" type="qcurve"/>
      <point x="1081" y="374"/>
      <point x="1081" y="385"/>
      <point x="1081" y="387" type="qcurve" smooth="yes"/>
      <point x="1078" y="403"/>
      <point x="1070" y="427"/>
      <point x="1062" y="435" type="qcurve" smooth="yes"/>
      <point x="1051" y="443"/>
      <point x="1036" y="448" type="qcurve" smooth="yes"/>
      <point x="1022" y="453"/>
      <point x="996" y="453"/>
      <point x="959" y="446"/>
      <point x="956" y="446" type="qcurve" smooth="yes"/>
      <point x="937" y="443"/>
      <point x="916" y="448" type="qcurve"/>
      <point x="911" y="451"/>
      <point x="892" y="456"/>
      <point x="887" y="456" type="qcurve" smooth="yes"/>
      <point x="876" y="459"/>
      <point x="842" y="464" type="qcurve" smooth="yes"/>
      <point x="829" y="467"/>
      <point x="821" y="467" type="qcurve"/>
    </contour>
    <contour>
      <point x="831" y="453"/>
      <point x="826" y="453" type="qcurve" smooth="yes"/>
      <point x="823" y="453"/>
      <point x="823" y="453" type="qcurve"/>
      <point x="810" y="453"/>
      <point x="805" y="446" type="qcurve"/>
      <point x="802" y="446"/>
      <point x="802" y="443" type="qcurve"/>
      <point x="800" y="440"/>
      <point x="797" y="438" type="qcurve"/>
      <point x="797" y="435"/>
      <point x="797" y="435" type="qcurve"/>
      <point x="797" y="432" type="line" smooth="yes"/>
      <point x="797" y="430"/>
      <point x="794" y="427"/>
      <point x="794" y="422"/>
      <point x="794" y="422" type="qcurve"/>
      <point x="794" y="416"/>
      <point x="794" y="414" type="qcurve" smooth="yes"/>
      <point x="794" y="411"/>
      <point x="794" y="408"/>
      <point x="794" y="408" type="qcurve"/>
      <point x="800" y="342"/>
      <point x="794" y="284" type="qcurve" smooth="yes"/>
      <point x="792" y="257"/>
      <point x="784" y="218" type="qcurve" smooth="yes"/>
      <point x="773" y="162"/>
      <point x="773" y="135" type="qcurve" smooth="yes"/>
      <point x="773" y="106"/>
      <point x="784" y="90" type="qcurve" smooth="yes"/>
      <point x="794" y="74"/>
      <point x="821" y="64" type="qcurve" smooth="yes"/>
      <point x="853" y="48"/>
      <point x="884" y="53" type="qcurve" smooth="yes"/>
      <point x="911" y="56"/>
      <point x="935" y="74" type="qcurve" smooth="yes"/>
      <point x="943" y="80"/>
      <point x="975" y="109" type="qcurve" smooth="yes"/>
      <point x="998" y="133"/>
      <point x="1022" y="149" type="qcurve" smooth="yes"/>
      <point x="1033" y="157"/>
      <point x="1104" y="194" type="qcurve" smooth="yes"/>
      <point x="1136" y="210"/>
      <point x="1150" y="226" type="qcurve" smooth="yes"/>
      <point x="1155" y="231"/>
      <point x="1160" y="239" type="qcurve"/>
      <point x="1160" y="241" type="line" smooth="yes"/>
      <point x="1160" y="244"/>
      <point x="1163" y="247" type="qcurve"/>
      <point x="1165" y="257"/>
      <point x="1160" y="268" type="qcurve"/>
      <point x="1157" y="268"/>
      <point x="1157" y="271" type="qcurve"/>
      <point x="1155" y="273"/>
      <point x="1155" y="273" type="qcurve"/>
      <point x="1152" y="276"/>
      <point x="1147" y="279" type="qcurve"/>
      <point x="1147" y="281"/>
      <point x="1134" y="289" type="qcurve" smooth="yes"/>
      <point x="1123" y="297"/>
      <point x="1089" y="326"/>
      <point x="1081" y="334" type="qcurve" smooth="yes"/>
      <point x="1067" y="350"/>
      <point x="1065" y="366" type="qcurve" smooth="yes"/>
      <point x="1065" y="369"/>
      <point x="1065" y="385" type="qcurve" smooth="yes"/>
      <point x="1065" y="387"/>
      <point x="1065" y="387" type="qcurve"/>
      <point x="1062" y="400"/>
      <point x="1059" y="411" type="qcurve"/>
      <point x="1054" y="419"/>
      <point x="1049" y="424" type="qcurve" smooth="yes"/>
      <point x="1043" y="432"/>
      <point x="1030" y="435" type="qcurve" smooth="yes"/>
      <point x="1020" y="438"/>
      <point x="1001" y="440"/>
      <point x="967" y="432"/>
      <point x="961" y="432" type="qcurve" smooth="yes"/>
      <point x="937" y="430"/>
      <point x="914" y="435" type="qcurve"/>
      <point x="908" y="438"/>
      <point x="890" y="443"/>
      <point x="887" y="443" type="qcurve" smooth="yes"/>
      <point x="876" y="446"/>
      <point x="842" y="451" type="qcurve" smooth="yes"/>
    </contour>
    <contour>
      <point x="545" y="1389"/>
      <point x="505" y="1368" type="qcurve" smooth="yes"/>
      <point x="458" y="1341"/>
      <point x="434" y="1294" type="qcurve" smooth="yes"/>
      <point x="415" y="1254"/>
      <point x="413" y="1196" type="qcurve" smooth="yes"/>
      <point x="413" y="1188"/>
      <point x="415" y="1095" type="qcurve" smooth="yes"/>
      <point x="415" y="1090"/>
      <point x="418" y="1010"/>
      <point x="418" y="989" type="qcurve" smooth="yes"/>
      <point x="421" y="962"/>
      <point x="421" y="957" type="qcurve" smooth="yes"/>
      <point x="421" y="925"/>
      <point x="423" y="920" type="qcurve"/>
      <point x="426" y="907"/>
      <point x="434" y="899" type="qcurve" smooth="yes"/>
      <point x="439" y="893"/>
      <point x="442" y="888" type="qcurve"/>
      <point x="452" y="904"/>
      <point x="455" y="915" type="qcurve" smooth="yes"/>
      <point x="458" y="923"/>
      <point x="458" y="960" type="qcurve"/>
      <point x="460" y="970"/>
      <point x="460" y="976" type="qcurve"/>
      <point x="455" y="981"/>
      <point x="444" y="989"/>
      <point x="444" y="989" type="qcurve"/>
      <point x="439" y="992"/>
      <point x="439" y="994" type="qcurve"/>
      <point x="439" y="994"/>
      <point x="436" y="997" type="qcurve"/>
      <point x="436" y="1000"/>
      <point x="436" y="1002"/>
      <point x="436" y="1005" type="qcurve"/>
      <point x="439" y="1007"/>
      <point x="439" y="1013"/>
      <point x="439" y="1013" type="qcurve"/>
      <point x="439" y="1015"/>
      <point x="442" y="1018" type="qcurve"/>
      <point x="442" y="1026"/>
      <point x="450" y="1034" type="qcurve"/>
      <point x="450" y="1037"/>
      <point x="452" y="1039" type="qcurve"/>
      <point x="455" y="1039"/>
      <point x="455" y="1042"/>
      <point x="458" y="1045"/>
      <point x="463" y="1047"/>
      <point x="463" y="1047" type="qcurve"/>
      <point x="460" y="1050"/>
      <point x="460" y="1050" type="qcurve"/>
      <point x="452" y="1058"/>
      <point x="450" y="1068" type="qcurve" smooth="yes"/>
      <point x="444" y="1082"/>
      <point x="442" y="1111" type="qcurve" smooth="yes"/>
      <point x="439" y="1145"/>
      <point x="444" y="1159" type="qcurve" smooth="yes"/>
      <point x="447" y="1172"/>
      <point x="458" y="1180" type="qcurve" smooth="yes"/>
      <point x="466" y="1188"/>
      <point x="479" y="1190" type="qcurve" smooth="yes"/>
      <point x="487" y="1190"/>
      <point x="495" y="1185" type="qcurve"/>
      <point x="503" y="1182"/>
      <point x="511" y="1174" type="qcurve" smooth="yes"/>
      <point x="521" y="1161"/>
      <point x="529" y="1143" type="qcurve" smooth="yes"/>
      <point x="535" y="1127"/>
      <point x="535" y="1106" type="qcurve" smooth="yes"/>
      <point x="535" y="1100"/>
      <point x="535" y="1095" type="qcurve"/>
      <point x="535" y="1095" type="line"/>
      <point x="537" y="1095"/>
      <point x="537" y="1095" type="qcurve"/>
      <point x="540" y="1098"/>
      <point x="540" y="1098" type="qcurve"/>
      <point x="545" y="1098"/>
      <point x="550" y="1098"/>
      <point x="553" y="1098" type="qcurve" smooth="yes"/>
      <point x="561" y="1100"/>
      <point x="566" y="1098" type="qcurve"/>
      <point x="569" y="1098"/>
      <point x="572" y="1098" type="qcurve" smooth="yes"/>
      <point x="574" y="1098"/>
      <point x="574" y="1098" type="qcurve"/>
      <point x="577" y="1098"/>
      <point x="577" y="1098" type="qcurve"/>
      <point x="580" y="1098" type="line"/>
      <point x="580" y="1098"/>
      <point x="582" y="1098" type="qcurve"/>
      <point x="585" y="1095"/>
      <point x="585" y="1095" type="qcurve"/>
      <point x="590" y="1095"/>
      <point x="596" y="1092" type="qcurve"/>
      <point x="596" y="1095"/>
      <point x="593" y="1098" type="qcurve"/>
      <point x="582" y="1129"/>
      <point x="593" y="1156" type="qcurve" smooth="yes"/>
      <point x="598" y="1174"/>
      <point x="619" y="1190" type="qcurve"/>
      <point x="627" y="1193"/>
      <point x="633" y="1196" type="qcurve" smooth="yes"/>
      <point x="643" y="1201"/>
      <point x="656" y="1198" type="qcurve" smooth="yes"/>
      <point x="670" y="1198"/>
      <point x="680" y="1190" type="qcurve" smooth="yes"/>
      <point x="699" y="1177"/>
      <point x="710" y="1151" type="qcurve" smooth="yes"/>
      <point x="715" y="1132"/>
      <point x="715" y="1106" type="qcurve" smooth="yes"/>
      <point x="712" y="1087"/>
      <point x="707" y="1071" type="qcurve" smooth="yes"/>
      <point x="702" y="1060"/>
      <point x="691" y="1053" type="qcurve"/>
      <point x="694" y="1053"/>
      <point x="696" y="1050" type="qcurve"/>
      <point x="696" y="1050"/>
      <point x="699" y="1050"/>
      <point x="702" y="1047" type="qcurve"/>
      <point x="704" y="1047"/>
      <point x="707" y="1045" type="qcurve"/>
      <point x="707" y="1042"/>
      <point x="707" y="1042" type="qcurve"/>
      <point x="710" y="1042" type="line"/>
      <point x="710" y="1039" type="line"/>
      <point x="712" y="1037"/>
      <point x="712" y="1031" type="qcurve"/>
      <point x="715" y="1026"/>
      <point x="712" y="1021" type="qcurve"/>
      <point x="712" y="1018"/>
      <point x="710" y="1005"/>
      <point x="710" y="1002" type="qcurve" smooth="yes"/>
      <point x="707" y="989"/>
      <point x="707" y="986" type="qcurve" smooth="yes"/>
      <point x="707" y="984"/>
      <point x="704" y="984" type="qcurve"/>
      <point x="707" y="978"/>
      <point x="710" y="973" type="qcurve" smooth="yes"/>
      <point x="712" y="968"/>
      <point x="720" y="946"/>
      <point x="720" y="946" type="qcurve"/>
      <point x="723" y="944"/>
      <point x="749" y="888" type="qcurve"/>
      <point x="821" y="888"/>
      <point x="823" y="946" type="qcurve" smooth="yes"/>
      <point x="826" y="976"/>
      <point x="816" y="1082"/>
      <point x="816" y="1084" type="qcurve" smooth="yes"/>
      <point x="810" y="1204"/>
      <point x="805" y="1227" type="qcurve" smooth="yes"/>
      <point x="794" y="1259"/>
      <point x="776" y="1291" type="qcurve" smooth="yes"/>
      <point x="752" y="1326"/>
      <point x="720" y="1349" type="qcurve" smooth="yes"/>
      <point x="667" y="1389"/>
      <point x="598" y="1389" type="qcurve" smooth="yes"/>
    </contour>
    <contour>
      <point x="680" y="1227"/>
      <point x="686" y="1225" type="qcurve" smooth="yes"/>
      <point x="704" y="1212"/>
      <point x="712" y="1190" type="qcurve" smooth="yes"/>
      <point x="715" y="1182"/>
      <point x="715" y="1180" type="qcurve"/>
      <point x="702" y="1204"/>
      <point x="683" y="1217" type="qcurve" smooth="yes"/>
      <point x="672" y="1222"/>
      <point x="659" y="1225" type="qcurve"/>
      <point x="662" y="1227"/>
      <point x="667" y="1227" type="qcurve" smooth="yes"/>
      <point x="670" y="1227"/>
      <point x="672" y="1227" type="qcurve" smooth="yes"/>
    </contour>
    <contour>
      <point x="490" y="1217"/>
      <point x="505" y="1212"/>
      <point x="516" y="1204" type="qcurve" smooth="yes"/>
      <point x="519" y="1201"/>
      <point x="521" y="1198" type="qcurve" smooth="yes"/>
      <point x="527" y="1190"/>
      <point x="529" y="1177" type="qcurve"/>
      <point x="521" y="1193"/>
      <point x="508" y="1204" type="qcurve" smooth="yes"/>
      <point x="500" y="1212"/>
      <point x="492" y="1214" type="qcurve" smooth="yes"/>
      <point x="484" y="1217"/>
      <point x="476" y="1217" type="qcurve"/>
      <point x="476" y="1217"/>
      <point x="479" y="1217" type="qcurve" smooth="yes"/>
      <point x="482" y="1217"/>
      <point x="482" y="1217" type="qcurve"/>
    </contour>
    <contour>
      <point x="651" y="1151"/>
      <point x="649" y="1151" type="qcurve" smooth="yes"/>
      <point x="641" y="1151"/>
      <point x="630" y="1143"/>
      <point x="625" y="1137" type="qcurve" smooth="yes"/>
      <point x="617" y="1127"/>
      <point x="617" y="1111" type="qcurve" smooth="yes"/>
      <point x="617" y="1100"/>
      <point x="625" y="1079"/>
      <point x="630" y="1074" type="qcurve"/>
      <point x="643" y="1071"/>
      <point x="649" y="1066" type="qcurve"/>
      <point x="651" y="1066"/>
      <point x="651" y="1066" type="qcurve"/>
      <point x="662" y="1063"/>
      <point x="672" y="1071" type="qcurve" smooth="yes"/>
      <point x="680" y="1076"/>
      <point x="683" y="1084" type="qcurve"/>
      <point x="688" y="1090"/>
      <point x="688" y="1100" type="qcurve" smooth="yes"/>
      <point x="691" y="1116"/>
      <point x="683" y="1129" type="qcurve" smooth="yes"/>
      <point x="675" y="1145"/>
      <point x="662" y="1151" type="qcurve"/>
      <point x="656" y="1151"/>
      <point x="651" y="1151" type="qcurve"/>
    </contour>
    <contour>
      <point x="656" y="1140"/>
      <point x="659" y="1140" type="qcurve" smooth="yes"/>
      <point x="667" y="1140"/>
      <point x="672" y="1132" type="qcurve" smooth="yes"/>
      <point x="680" y="1119"/>
      <point x="678" y="1111" type="qcurve"/>
      <point x="675" y="1108"/>
      <point x="670" y="1111"/>
      <point x="667" y="1121"/>
      <point x="664" y="1127"/>
      <point x="659" y="1129" type="qcurve"/>
      <point x="659" y="1129"/>
      <point x="654" y="1132"/>
      <point x="654" y="1132" type="qcurve"/>
      <point x="651" y="1135"/>
      <point x="654" y="1140"/>
      <point x="656" y="1140" type="qcurve"/>
    </contour>
    <contour>
      <point x="474" y="1145" type="qcurve"/>
      <point x="466" y="1143"/>
      <point x="463" y="1137" type="qcurve" smooth="yes"/>
      <point x="460" y="1132"/>
      <point x="458" y="1124" type="qcurve" smooth="yes"/>
      <point x="455" y="1106"/>
      <point x="460" y="1092" type="qcurve" smooth="yes"/>
      <point x="463" y="1084"/>
      <point x="471" y="1076" type="qcurve" smooth="yes"/>
      <point x="476" y="1071"/>
      <point x="482" y="1068" type="qcurve"/>
      <point x="484" y="1068"/>
      <point x="505" y="1084"/>
      <point x="511" y="1084" type="qcurve"/>
      <point x="516" y="1103"/>
      <point x="511" y="1119" type="qcurve" smooth="yes"/>
      <point x="505" y="1135"/>
      <point x="495" y="1143" type="qcurve" smooth="yes"/>
      <point x="490" y="1145"/>
      <point x="484" y="1148" type="qcurve"/>
      <point x="482" y="1148"/>
      <point x="476" y="1148"/>
    </contour>
    <contour>
      <point x="490" y="1137"/>
      <point x="492" y="1135" type="qcurve"/>
      <point x="500" y="1132"/>
      <point x="503" y="1124" type="qcurve" smooth="yes"/>
      <point x="505" y="1111"/>
      <point x="500" y="1106" type="qcurve"/>
      <point x="497" y="1106"/>
      <point x="495" y="1106" type="qcurve"/>
      <point x="495" y="1108"/>
      <point x="495" y="1119"/>
      <point x="495" y="1121" type="qcurve"/>
      <point x="492" y="1124"/>
      <point x="490" y="1127" type="qcurve"/>
      <point x="490" y="1127"/>
      <point x="484" y="1129"/>
      <point x="484" y="1132" type="qcurve" smooth="yes"/>
      <point x="484" y="1135"/>
      <point x="484" y="1137" type="qcurve"/>
      <point x="487" y="1137"/>
      <point x="487" y="1137" type="qcurve"/>
    </contour>
    <contour>
      <point x="712" y="1023"/>
      <point x="712" y="1021" type="qcurve" smooth="yes"/>
      <point x="712" y="1018"/>
      <point x="710" y="1005"/>
      <point x="710" y="1002" type="qcurve" smooth="yes"/>
      <point x="707" y="989"/>
      <point x="707" y="986" type="qcurve" smooth="yes"/>
      <point x="704" y="978"/>
      <point x="694" y="976" type="qcurve"/>
      <point x="691" y="973"/>
      <point x="680" y="970"/>
      <point x="680" y="970" type="qcurve"/>
      <point x="667" y="965"/>
      <point x="625" y="933"/>
      <point x="619" y="931" type="qcurve" smooth="yes"/>
      <point x="603" y="920"/>
      <point x="582" y="915" type="qcurve" smooth="yes"/>
      <point x="561" y="907"/>
      <point x="524" y="912"/>
      <point x="511" y="923" type="qcurve"/>
      <point x="500" y="928"/>
      <point x="476" y="960" type="qcurve" smooth="yes"/>
      <point x="463" y="976"/>
      <point x="450" y="984" type="qcurve"/>
      <point x="444" y="989"/>
      <point x="444" y="989" type="qcurve"/>
      <point x="439" y="992"/>
      <point x="439" y="994" type="qcurve"/>
      <point x="439" y="994"/>
      <point x="436" y="997" type="qcurve"/>
      <point x="436" y="1000"/>
      <point x="436" y="1000" type="qcurve"/>
      <point x="431" y="997"/>
      <point x="431" y="984"/>
      <point x="434" y="981" type="qcurve" smooth="yes"/>
      <point x="455" y="968"/>
      <point x="471" y="949" type="qcurve" smooth="yes"/>
      <point x="497" y="917"/>
      <point x="505" y="912" type="qcurve" smooth="yes"/>
      <point x="521" y="901"/>
      <point x="543" y="901" type="qcurve" smooth="yes"/>
      <point x="561" y="899"/>
      <point x="585" y="904" type="qcurve" smooth="yes"/>
      <point x="606" y="909"/>
      <point x="622" y="920" type="qcurve" smooth="yes"/>
      <point x="627" y="923"/>
      <point x="670" y="952"/>
      <point x="683" y="957" type="qcurve"/>
      <point x="683" y="957"/>
      <point x="686" y="957" type="qcurve" smooth="yes"/>
      <point x="694" y="960"/>
      <point x="696" y="962" type="qcurve"/>
      <point x="702" y="962"/>
      <point x="707" y="965" type="qcurve"/>
      <point x="710" y="970"/>
      <point x="712" y="976" type="qcurve"/>
      <point x="712" y="978"/>
      <point x="720" y="1005"/>
      <point x="720" y="1021"/>
      <point x="712" y="1023" type="qcurve"/>
    </contour>
    <contour>
      <point x="680" y="1029"/>
      <point x="678" y="1029" type="qcurve"/>
      <point x="675" y="1026"/>
      <point x="670" y="1023" type="qcurve"/>
      <point x="670" y="1023"/>
      <point x="664" y="1018" type="qcurve" smooth="yes"/>
      <point x="656" y="1010"/>
      <point x="646" y="1002" type="qcurve" smooth="yes"/>
      <point x="619" y="984"/>
      <point x="601" y="976" type="qcurve" smooth="yes"/>
      <point x="588" y="970"/>
      <point x="566" y="965" type="qcurve" smooth="yes"/>
      <point x="540" y="960"/>
      <point x="524" y="962" type="qcurve"/>
      <point x="497" y="962"/>
      <point x="482" y="973" type="qcurve" smooth="yes"/>
      <point x="479" y="976"/>
      <point x="468" y="984"/>
      <point x="466" y="986" type="qcurve"/>
      <point x="455" y="992"/>
      <point x="447" y="992" type="qcurve"/>
      <point x="442" y="994"/>
      <point x="442" y="994" type="qcurve"/>
      <point x="442" y="992"/>
      <point x="442" y="992" type="qcurve"/>
      <point x="444" y="984"/>
      <point x="452" y="981" type="qcurve"/>
      <point x="458" y="981"/>
      <point x="466" y="976" type="qcurve"/>
      <point x="466" y="973"/>
      <point x="474" y="965"/>
      <point x="476" y="962" type="qcurve" smooth="yes"/>
      <point x="495" y="949"/>
      <point x="521" y="949" type="qcurve" smooth="yes"/>
      <point x="540" y="949"/>
      <point x="569" y="954" type="qcurve" smooth="yes"/>
      <point x="590" y="960"/>
      <point x="603" y="965" type="qcurve" smooth="yes"/>
      <point x="627" y="973"/>
      <point x="651" y="992" type="qcurve" smooth="yes"/>
      <point x="664" y="1005"/>
      <point x="670" y="1010"/>
      <point x="683" y="1015"/>
      <point x="686" y="1018" type="qcurve"/>
      <point x="688" y="1018"/>
      <point x="688" y="1018" type="qcurve"/>
      <point x="691" y="1021"/>
      <point x="694" y="1026"/>
      <point x="694" y="1026" type="qcurve"/>
      <point x="694" y="1029"/>
      <point x="691" y="1029" type="qcurve" smooth="yes"/>
      <point x="686" y="1029"/>
      <point x="683" y="1029" type="qcurve" smooth="yes"/>
    </contour>
    <contour>
      <point x="495" y="1087"/>
      <point x="471" y="1063" type="qcurve" smooth="yes"/>
      <point x="460" y="1053"/>
      <point x="447" y="1042" type="qcurve"/>
      <point x="444" y="1034"/>
      <point x="436" y="1015"/>
      <point x="434" y="1005"/>
      <point x="436" y="1002" type="qcurve"/>
      <point x="436" y="1002"/>
      <point x="436" y="1005" type="qcurve" smooth="yes"/>
      <point x="439" y="1018"/>
      <point x="442" y="1018" type="qcurve"/>
      <point x="442" y="1026"/>
      <point x="450" y="1034" type="qcurve" smooth="yes"/>
      <point x="460" y="1047"/>
      <point x="474" y="1055" type="qcurve"/>
      <point x="495" y="1082"/>
      <point x="527" y="1092" type="qcurve" smooth="yes"/>
      <point x="558" y="1103"/>
      <point x="585" y="1095" type="qcurve" smooth="yes"/>
      <point x="596" y="1092"/>
      <point x="611" y="1084" type="qcurve" smooth="yes"/>
      <point x="630" y="1074"/>
      <point x="633" y="1074" type="qcurve"/>
      <point x="656" y="1060"/>
      <point x="683" y="1055" type="qcurve" smooth="yes"/>
      <point x="694" y="1053"/>
      <point x="699" y="1050" type="qcurve" smooth="yes"/>
      <point x="704" y="1047"/>
      <point x="707" y="1042" type="qcurve"/>
      <point x="712" y="1042" type="line"/>
      <point x="712" y="1050"/>
      <point x="699" y="1055" type="qcurve"/>
      <point x="696" y="1058"/>
      <point x="683" y="1060" type="qcurve" smooth="yes"/>
      <point x="656" y="1068"/>
      <point x="635" y="1079" type="qcurve"/>
      <point x="633" y="1079"/>
      <point x="611" y="1092" type="qcurve" smooth="yes"/>
      <point x="596" y="1100"/>
      <point x="588" y="1103" type="qcurve" smooth="yes"/>
      <point x="558" y="1111"/>
      <point x="527" y="1100" type="qcurve" smooth="yes"/>
    </contour>
    <contour>
      <point x="582" y="1084"/>
      <point x="577" y="1084" type="qcurve" smooth="yes"/>
      <point x="574" y="1084"/>
      <point x="569" y="1082"/>
      <point x="572" y="1076"/>
      <point x="577" y="1076" type="qcurve" smooth="yes"/>
      <point x="580" y="1076"/>
      <point x="580" y="1076" type="qcurve"/>
      <point x="580" y="1074"/>
      <point x="588" y="1071"/>
      <point x="588" y="1071" type="qcurve"/>
      <point x="596" y="1071"/>
      <point x="596" y="1079"/>
      <point x="588" y="1082" type="qcurve" smooth="yes"/>
    </contour>
    <contour>
      <point x="519" y="1082" type="qcurve"/>
      <point x="519" y="1082" type="line"/>
      <point x="505" y="1079"/>
      <point x="511" y="1071" type="qcurve" smooth="yes"/>
      <point x="513" y="1068"/>
      <point x="513" y="1071" type="qcurve"/>
      <point x="516" y="1071"/>
      <point x="519" y="1076"/>
      <point x="521" y="1076"/>
      <point x="521" y="1082"/>
    </contour>
    <contour>
      <point x="426" y="954"/>
      <point x="421" y="939" type="qcurve" smooth="yes"/>
      <point x="415" y="923"/>
      <point x="405" y="907" type="qcurve"/>
      <point x="405" y="907"/>
      <point x="341" y="756"/>
      <point x="330" y="721" type="qcurve" smooth="yes"/>
      <point x="317" y="681"/>
      <point x="307" y="655" type="qcurve" smooth="yes"/>
      <point x="291" y="620"/>
      <point x="288" y="615" type="qcurve" smooth="yes"/>
      <point x="272" y="567"/>
      <point x="283" y="520" type="qcurve" smooth="yes"/>
      <point x="288" y="501"/>
      <point x="299" y="483" type="qcurve"/>
      <point x="299" y="483"/>
      <point x="301" y="483" type="qcurve"/>
      <point x="299" y="504"/>
      <point x="301" y="525" type="qcurve" smooth="yes"/>
      <point x="309" y="597"/>
      <point x="341" y="666" type="qcurve" smooth="yes"/>
      <point x="360" y="711"/>
      <point x="386" y="750" type="qcurve"/>
      <point x="383" y="777"/>
      <point x="391" y="801" type="qcurve" smooth="yes"/>
      <point x="399" y="827"/>
      <point x="431" y="872" type="qcurve" smooth="yes"/>
      <point x="450" y="899"/>
      <point x="455" y="915" type="qcurve" smooth="yes"/>
      <point x="458" y="923"/>
      <point x="458" y="960" type="qcurve"/>
      <point x="460" y="970"/>
      <point x="460" y="976" type="qcurve"/>
      <point x="455" y="981"/>
      <point x="444" y="989"/>
      <point x="444" y="989" type="qcurve"/>
      <point x="439" y="992"/>
      <point x="439" y="994" type="qcurve"/>
      <point x="439" y="994"/>
      <point x="436" y="997" type="qcurve"/>
      <point x="436" y="1000" type="line" smooth="yes"/>
    </contour>
    <contour>
      <point x="330" y="393"/>
      <point x="338" y="379"/>
      <point x="346" y="369"/>
      <point x="352" y="358" type="qcurve" smooth="yes"/>
      <point x="354" y="353"/>
      <point x="360" y="345" type="qcurve" smooth="yes"/>
      <point x="397" y="284"/>
      <point x="405" y="273" type="qcurve" smooth="yes"/>
      <point x="410" y="265"/>
      <point x="434" y="236"/>
      <point x="439" y="228" type="qcurve" smooth="yes"/>
      <point x="460" y="202"/>
      <point x="466" y="178" type="qcurve" smooth="yes"/>
      <point x="476" y="141"/>
      <point x="458" y="106" type="qcurve" smooth="yes"/>
      <point x="447" y="82"/>
      <point x="399" y="53"/>
      <point x="373" y="56" type="qcurve" smooth="yes"/>
      <point x="357" y="56"/>
      <point x="296" y="80" type="qcurve" smooth="yes"/>
      <point x="267" y="93"/>
      <point x="153" y="119"/>
      <point x="134" y="125" type="qcurve"/>
      <point x="129" y="125"/>
      <point x="95" y="135"/>
      <point x="84" y="138" type="qcurve" smooth="yes"/>
      <point x="68" y="143"/>
      <point x="63" y="146" type="qcurve" smooth="yes"/>
      <point x="49" y="151"/>
      <point x="44" y="162" type="qcurve" smooth="yes"/>
      <point x="42" y="167"/>
      <point x="42" y="178" type="qcurve" smooth="yes"/>
      <point x="42" y="186"/>
      <point x="44" y="194" type="qcurve" smooth="yes"/>
      <point x="47" y="202"/>
      <point x="57" y="223"/>
      <point x="60" y="228" type="qcurve" smooth="yes"/>
      <point x="68" y="249"/>
      <point x="68" y="284" type="qcurve"/>
      <point x="65" y="294"/>
      <point x="63" y="334"/>
      <point x="63" y="342" type="qcurve" smooth="yes"/>
      <point x="60" y="358"/>
      <point x="63" y="369" type="qcurve" smooth="yes"/>
      <point x="65" y="382"/>
      <point x="73" y="390" type="qcurve" smooth="yes"/>
      <point x="81" y="398"/>
      <point x="95" y="400" type="qcurve" smooth="yes"/>
      <point x="103" y="403"/>
      <point x="118" y="403" type="qcurve" smooth="yes"/>
      <point x="137" y="403"/>
      <point x="142" y="403" type="qcurve" smooth="yes"/>
      <point x="156" y="403"/>
      <point x="174" y="414"/>
      <point x="182" y="424" type="qcurve" smooth="yes"/>
      <point x="185" y="430"/>
      <point x="193" y="443" type="qcurve" smooth="yes"/>
      <point x="201" y="456"/>
      <point x="206" y="461" type="qcurve" smooth="yes"/>
      <point x="214" y="472"/>
      <point x="224" y="477" type="qcurve" smooth="yes"/>
      <point x="235" y="480"/>
      <point x="246" y="477" type="qcurve" smooth="yes"/>
      <point x="256" y="477"/>
      <point x="267" y="469" type="qcurve" smooth="yes"/>
      <point x="280" y="461"/>
      <point x="299" y="435" type="qcurve" smooth="yes"/>
      <point x="312" y="416"/>
      <point x="325" y="400" type="qcurve" smooth="yes"/>
    </contour>
    <contour>
      <point x="219" y="504"/>
      <point x="190" y="472" type="qcurve" smooth="yes"/>
      <point x="185" y="464"/>
      <point x="177" y="448" type="qcurve" smooth="yes"/>
      <point x="163" y="422"/>
      <point x="156" y="419" type="qcurve" smooth="yes"/>
      <point x="148" y="416"/>
      <point x="116" y="414" type="qcurve" smooth="yes"/>
      <point x="76" y="414"/>
      <point x="60" y="398" type="qcurve" smooth="yes"/>
      <point x="44" y="385"/>
      <point x="42" y="369" type="qcurve"/>
      <point x="36" y="355"/>
      <point x="42" y="334" type="qcurve" smooth="yes"/>
      <point x="55" y="260"/>
      <point x="26" y="202"/>
      <point x="23" y="194" type="qcurve" smooth="yes"/>
      <point x="15" y="167"/>
      <point x="28" y="146" type="qcurve" smooth="yes"/>
      <point x="36" y="130"/>
      <point x="52" y="125" type="qcurve" smooth="yes"/>
      <point x="57" y="122"/>
      <point x="76" y="119"/>
      <point x="76" y="117" type="qcurve"/>
      <point x="81" y="117"/>
      <point x="100" y="112"/>
      <point x="124" y="104"/>
      <point x="126" y="104" type="qcurve"/>
      <point x="156" y="93"/>
      <point x="262" y="66"/>
      <point x="291" y="59" type="qcurve" smooth="yes"/>
      <point x="293" y="59"/>
      <point x="307" y="53"/>
      <point x="323" y="45"/>
      <point x="328" y="43" type="qcurve" smooth="yes"/>
      <point x="354" y="32"/>
      <point x="376" y="35" type="qcurve" smooth="yes"/>
      <point x="444" y="40"/>
      <point x="474" y="93" type="qcurve" smooth="yes"/>
      <point x="497" y="130"/>
      <point x="484" y="178" type="qcurve" smooth="yes"/>
      <point x="479" y="196"/>
      <point x="455" y="233"/>
      <point x="423" y="271"/>
      <point x="421" y="276" type="qcurve" smooth="yes"/>
      <point x="357" y="416"/>
      <point x="272" y="475" type="qcurve"/>
    </contour>
    <contour>
      <point x="389" y="888"/>
      <point x="370" y="864" type="qcurve" smooth="yes"/>
      <point x="341" y="827"/>
      <point x="330" y="814" type="qcurve" smooth="yes"/>
      <point x="299" y="774"/>
      <point x="288" y="753" type="qcurve" smooth="yes"/>
      <point x="285" y="745"/>
      <point x="269" y="689" type="qcurve" smooth="yes"/>
      <point x="262" y="658"/>
      <point x="243" y="620" type="qcurve" smooth="yes"/>
      <point x="232" y="599"/>
      <point x="211" y="560" type="qcurve" smooth="yes"/>
      <point x="195" y="530"/>
      <point x="193" y="514" type="qcurve" smooth="yes"/>
      <point x="190" y="496"/>
      <point x="195" y="475" type="qcurve"/>
      <point x="198" y="477"/>
      <point x="227" y="485"/>
      <point x="235" y="485"/>
      <point x="259" y="480"/>
      <point x="272" y="475" type="qcurve"/>
      <point x="312" y="443"/>
      <point x="394" y="318"/>
      <point x="405" y="273" type="qcurve"/>
      <point x="407" y="271"/>
      <point x="410" y="265" type="qcurve"/>
      <point x="418" y="265"/>
      <point x="423" y="265" type="qcurve" smooth="yes"/>
      <point x="436" y="265"/>
      <point x="444" y="268" type="qcurve" smooth="yes"/>
      <point x="455" y="273"/>
      <point x="460" y="281" type="qcurve" smooth="yes"/>
      <point x="466" y="292"/>
      <point x="466" y="305" type="qcurve" smooth="yes"/>
      <point x="463" y="318"/>
      <point x="458" y="329" type="qcurve" smooth="yes"/>
      <point x="447" y="345"/>
      <point x="413" y="371" type="qcurve" smooth="yes"/>
      <point x="360" y="414"/>
      <point x="309" y="459" type="qcurve" smooth="yes"/>
      <point x="293" y="475"/>
      <point x="285" y="488" type="qcurve" smooth="yes"/>
      <point x="277" y="501"/>
      <point x="275" y="522" type="qcurve" smooth="yes"/>
      <point x="264" y="575"/>
      <point x="280" y="620" type="qcurve" smooth="yes"/>
      <point x="283" y="631"/>
      <point x="296" y="658" type="qcurve" smooth="yes"/>
      <point x="317" y="703"/>
      <point x="328" y="719" type="qcurve"/>
      <point x="344" y="734"/>
      <point x="365" y="766"/>
      <point x="378" y="790"/>
      <point x="389" y="830"/>
      <point x="394" y="848"/>
      <point x="405" y="899"/>
      <point x="407" y="909" type="qcurve"/>
    </contour>
  </outline>
</glyph>
<glyph name="Ubuntu" format="2">
  <advance width="1200"/>
  <unicode hex="F31B"/>
  <note>
Ubuntu
</note>
  <outline>
    <contour>
      <point x="705" y="1170"/>
      <point x="705" y="1034"/>
      <point x="802" y="938"/>
      <point x="938" y="938"/>
      <point x="1034" y="1034"/>
      <point x="1034" y="1170"/>
      <point x="938" y="1267"/>
      <point x="802" y="1267"/>
    </contour>
    <contour>
      <point x="499" y="1252"/>
      <point x="243" y="1105"/>
      <point x="173" y="979" type="qcurve"/>
      <point x="177" y="979"/>
      <point x="185" y="979" type="qcurve" smooth="yes"/>
      <point x="209" y="979"/>
      <point x="233" y="974" type="qcurve" smooth="yes"/>
      <point x="274" y="964"/>
      <point x="311" y="942" type="qcurve"/>
      <point x="364" y="1022"/>
      <point x="536" y="1114"/>
      <point x="632" y="1114" type="qcurve"/>
      <point x="635" y="1134"/>
      <point x="637" y="1153" type="qcurve" smooth="yes"/>
      <point x="649" y="1206"/>
      <point x="683" y="1250" type="qcurve"/>
      <point x="664" y="1250"/>
      <point x="645" y="1250" type="qcurve" smooth="yes"/>
    </contour>
    <contour>
      <point x="1061" y="940"/>
      <point x="998" y="901" type="qcurve"/>
      <point x="1066" y="771"/>
      <point x="1034" y="628" type="qcurve" smooth="yes"/>
      <point x="1020" y="560"/>
      <point x="984" y="499" type="qcurve"/>
      <point x="1044" y="451"/>
      <point x="1063" y="378" type="qcurve"/>
      <point x="1141" y="475"/>
      <point x="1168" y="599" type="qcurve" smooth="yes"/>
      <point x="1214" y="821"/>
      <point x="1090" y="1010" type="qcurve"/>
    </contour>
    <contour>
      <point x="1063" y="378" type="line"/>
      <point x="1063" y="378" type="line"/>
    </contour>
    <contour>
      <point x="20" y="809"/>
      <point x="20" y="674"/>
      <point x="117" y="577"/>
      <point x="252" y="577"/>
      <point x="349" y="674"/>
      <point x="349" y="809"/>
      <point x="252" y="906"/>
      <point x="117" y="906"/>
    </contour>
    <contour>
      <point x="214" y="495"/>
      <point x="141" y="509" type="qcurve"/>
      <point x="192" y="386"/>
      <point x="395" y="214"/>
      <point x="528" y="185" type="qcurve" smooth="yes"/>
      <point x="586" y="173"/>
      <point x="645" y="173" type="qcurve"/>
      <point x="599" y="236"/>
      <point x="596" y="311" type="qcurve"/>
      <point x="577" y="313"/>
      <point x="555" y="318" type="qcurve" smooth="yes"/>
      <point x="371" y="357"/>
      <point x="281" y="526" type="qcurve"/>
    </contour>
    <contour>
      <point x="669" y="386"/>
      <point x="669" y="248"/>
      <point x="766" y="153"/>
      <point x="901" y="153"/>
      <point x="998" y="248"/>
      <point x="998" y="386"/>
      <point x="901" y="482"/>
      <point x="766" y="482"/>
    </contour>
  </outline>
</glyph>
<glyph name="Ubuntu (inverse)" format="2">
  <advance width="1200"/>
  <unicode hex="F31C"/>
  <note>
Ubuntu (inverse)
</note>
  <outline>
    <contour>
      <point x="20" y="951"/>
      <point x="20" y="469"/>
      <point x="360" y="129"/>
      <point x="840" y="129"/>
      <point x="1180" y="469"/>
      <point x="1180" y="951"/>
      <point x="840" y="1291"/>
      <point x="360" y="1291"/>
    </contour>
    <contour>
      <point x="901" y="1067"/>
      <point x="901" y="960"/>
      <point x="824" y="886"/>
      <point x="718" y="886"/>
      <point x="643" y="960"/>
      <point x="643" y="1067"/>
      <point x="718" y="1144"/>
      <point x="824" y="1144"/>
    </contour>
    <contour>
      <point x="609" y="1130"/>
      <point x="625" y="1128" type="qcurve"/>
      <point x="598" y="1094"/>
      <point x="589" y="1053" type="qcurve" smooth="yes"/>
      <point x="586" y="1040"/>
      <point x="586" y="1024" type="qcurve"/>
      <point x="509" y="1024"/>
      <point x="376" y="951"/>
      <point x="333" y="888" type="qcurve"/>
      <point x="305" y="906"/>
      <point x="274" y="913" type="qcurve" smooth="yes"/>
      <point x="253" y="917"/>
      <point x="235" y="917" type="qcurve" smooth="yes"/>
      <point x="228" y="917"/>
      <point x="224" y="917" type="qcurve"/>
      <point x="281" y="1015"/>
      <point x="480" y="1130"/>
      <point x="595" y="1130" type="qcurve" smooth="yes"/>
    </contour>
    <contour>
      <point x="1042" y="793"/>
      <point x="1003" y="621" type="qcurve" smooth="yes"/>
      <point x="983" y="523"/>
      <point x="922" y="446" type="qcurve"/>
      <point x="922" y="446" type="line"/>
      <point x="908" y="505"/>
      <point x="861" y="541" type="qcurve"/>
      <point x="890" y="589"/>
      <point x="901" y="643" type="qcurve" smooth="yes"/>
      <point x="924" y="754"/>
      <point x="872" y="856" type="qcurve"/>
      <point x="922" y="888"/>
      <point x="944" y="942" type="qcurve"/>
    </contour>
    <contour>
      <point x="364" y="786"/>
      <point x="364" y="677"/>
      <point x="287" y="602"/>
      <point x="181" y="602"/>
      <point x="106" y="677"/>
      <point x="106" y="786"/>
      <point x="181" y="861"/>
      <point x="287" y="861"/>
    </contour>
    <contour>
      <point x="380" y="430"/>
      <point x="525" y="398" type="qcurve" smooth="yes"/>
      <point x="541" y="396"/>
      <point x="557" y="394" type="qcurve"/>
      <point x="559" y="335"/>
      <point x="595" y="287" type="qcurve"/>
      <point x="548" y="285"/>
      <point x="503" y="297" type="qcurve" smooth="yes"/>
      <point x="401" y="317"/>
      <point x="240" y="453"/>
      <point x="201" y="550" type="qcurve"/>
      <point x="258" y="539"/>
      <point x="312" y="564" type="qcurve"/>
    </contour>
    <contour>
      <point x="872" y="453"/>
      <point x="872" y="346"/>
      <point x="797" y="269"/>
      <point x="691" y="269"/>
      <point x="614" y="346"/>
      <point x="614" y="453"/>
      <point x="691" y="528"/>
      <point x="797" y="528"/>
    </contour>
  </outline>
</glyph>
<glyph name="Alma Linux" format="2">
  <advance width="1200"/>
  <unicode hex="F31D"/>
  <note>
Alma Linux
</note>
  <outline>
    <contour>
      <point x="1048" y="634"/>
      <point x="1003" y="579"/>
      <point x="1005" y="543" type="qcurve" smooth="yes"/>
      <point x="1008" y="507"/>
      <point x="1062" y="459"/>
      <point x="1098" y="462" type="qcurve" smooth="yes"/>
      <point x="1135" y="466"/>
      <point x="1182" y="521"/>
      <point x="1180" y="559" type="qcurve" smooth="yes"/>
      <point x="1178" y="595"/>
      <point x="1123" y="641"/>
      <point x="1087" y="638" type="qcurve" smooth="yes"/>
    </contour>
    <contour>
      <point x="487" y="190"/>
      <point x="537" y="142"/>
      <point x="577" y="142" type="qcurve" smooth="yes"/>
      <point x="611" y="145"/>
      <point x="659" y="197"/>
      <point x="659" y="231" type="qcurve" smooth="yes"/>
      <point x="659" y="267"/>
      <point x="605" y="319"/>
      <point x="534" y="319"/>
      <point x="487" y="269"/>
      <point x="487" y="233" type="qcurve" smooth="yes"/>
    </contour>
    <contour>
      <point x="618" y="872"/>
      <point x="625" y="910" type="qcurve" smooth="yes"/>
      <point x="641" y="1003"/>
      <point x="668" y="1041" type="qcurve" smooth="yes"/>
      <point x="695" y="1075"/>
      <point x="761" y="1073"/>
      <point x="786" y="1035" type="qcurve" smooth="yes"/>
      <point x="804" y="1003"/>
      <point x="808" y="955" type="qcurve" smooth="yes"/>
      <point x="808" y="933"/>
      <point x="831" y="935" type="qcurve" smooth="yes"/>
      <point x="903" y="949"/>
      <point x="965" y="926" type="qcurve" smooth="yes"/>
      <point x="978" y="921"/>
      <point x="985" y="926" type="qcurve" smooth="yes"/>
      <point x="996" y="935"/>
      <point x="1001" y="1010"/>
      <point x="994" y="1023" type="qcurve"/>
      <point x="990" y="1028"/>
      <point x="983" y="1037"/>
      <point x="976" y="1044"/>
      <point x="965" y="1046"/>
      <point x="960" y="1048"/>
      <point x="947" y="1050"/>
      <point x="940" y="1050"/>
      <point x="926" y="1050"/>
      <point x="924" y="1050" type="qcurve" smooth="yes"/>
      <point x="876" y="1046"/>
      <point x="845" y="1082" type="qcurve" smooth="yes"/>
      <point x="824" y="1107"/>
      <point x="817" y="1161" type="qcurve" smooth="yes"/>
      <point x="813" y="1186"/>
      <point x="802" y="1195" type="qcurve" smooth="yes"/>
      <point x="781" y="1216"/>
      <point x="706" y="1211"/>
      <point x="682" y="1191" type="qcurve" smooth="yes"/>
      <point x="591" y="1118"/>
      <point x="552" y="892"/>
      <point x="607" y="795" type="qcurve"/>
      <point x="611" y="783"/>
      <point x="620" y="788" type="qcurve"/>
    </contour>
    <contour>
      <point x="736" y="779"/>
      <point x="788" y="783" type="qcurve" smooth="yes"/>
      <point x="879" y="792"/>
      <point x="922" y="772" type="qcurve" smooth="yes"/>
      <point x="962" y="756"/>
      <point x="976" y="688"/>
      <point x="944" y="659" type="qcurve" smooth="yes"/>
      <point x="917" y="631"/>
      <point x="874" y="618" type="qcurve" smooth="yes"/>
      <point x="854" y="613"/>
      <point x="863" y="591" type="qcurve" smooth="yes"/>
      <point x="892" y="518"/>
      <point x="885" y="459" type="qcurve" smooth="yes"/>
      <point x="883" y="446"/>
      <point x="890" y="439" type="qcurve"/>
      <point x="903" y="432"/>
      <point x="974" y="444"/>
      <point x="985" y="453" type="qcurve" smooth="yes"/>
      <point x="990" y="457"/>
      <point x="994" y="466"/>
      <point x="999" y="475"/>
      <point x="1001" y="487"/>
      <point x="1001" y="491"/>
      <point x="999" y="507"/>
      <point x="999" y="509"/>
      <point x="994" y="525"/>
      <point x="994" y="527" type="qcurve" smooth="yes"/>
      <point x="983" y="575"/>
      <point x="1008" y="611" type="qcurve" smooth="yes"/>
      <point x="1026" y="636"/>
      <point x="1076" y="659" type="qcurve" smooth="yes"/>
      <point x="1094" y="665"/>
      <point x="1105" y="681" type="qcurve"/>
      <point x="1116" y="706"/>
      <point x="1094" y="774"/>
      <point x="1069" y="795" type="qcurve" smooth="yes"/>
      <point x="974" y="867"/>
      <point x="756" y="851"/>
      <point x="672" y="774" type="qcurve" smooth="yes"/>
      <point x="663" y="767"/>
      <point x="668" y="758" type="qcurve"/>
    </contour>
    <contour>
      <point x="682" y="654"/>
      <point x="704" y="602" type="qcurve" smooth="yes"/>
      <point x="736" y="514"/>
      <point x="731" y="471" type="qcurve" smooth="yes"/>
      <point x="727" y="428"/>
      <point x="666" y="396"/>
      <point x="629" y="416" type="qcurve" smooth="yes"/>
      <point x="593" y="434"/>
      <point x="571" y="473" type="qcurve" smooth="yes"/>
      <point x="557" y="491"/>
      <point x="539" y="475" type="qcurve" smooth="yes"/>
      <point x="478" y="425"/>
      <point x="419" y="414" type="qcurve"/>
      <point x="403" y="414"/>
      <point x="398" y="407" type="qcurve"/>
      <point x="394" y="394"/>
      <point x="426" y="328"/>
      <point x="439" y="319" type="qcurve" smooth="yes"/>
      <point x="444" y="317"/>
      <point x="455" y="314"/>
      <point x="464" y="312"/>
      <point x="475" y="314"/>
      <point x="480" y="314"/>
      <point x="494" y="321"/>
      <point x="498" y="323"/>
      <point x="512" y="333"/>
      <point x="514" y="333" type="qcurve"/>
      <point x="555" y="357"/>
      <point x="595" y="344" type="qcurve" smooth="yes"/>
      <point x="629" y="333"/>
      <point x="661" y="292" type="qcurve" smooth="yes"/>
      <point x="675" y="274"/>
      <point x="691" y="271" type="qcurve" smooth="yes"/>
      <point x="718" y="265"/>
      <point x="781" y="308"/>
      <point x="793" y="337" type="qcurve" smooth="yes"/>
      <point x="831" y="448"/>
      <point x="754" y="650"/>
      <point x="659" y="708" type="qcurve" smooth="yes"/>
      <point x="650" y="715"/>
      <point x="643" y="708" type="qcurve"/>
    </contour>
    <contour>
      <point x="582" y="699"/>
      <point x="568" y="695" type="qcurve"/>
      <point x="487" y="609"/>
      <point x="419" y="575" type="qcurve" smooth="yes"/>
      <point x="378" y="554"/>
      <point x="346" y="554" type="qcurve" smooth="yes"/>
      <point x="315" y="554"/>
      <point x="281" y="591"/>
      <point x="283" y="622" type="qcurve" smooth="yes"/>
      <point x="285" y="672"/>
      <point x="321" y="711" type="qcurve" smooth="yes"/>
      <point x="335" y="729"/>
      <point x="319" y="745" type="qcurve"/>
      <point x="251" y="792"/>
      <point x="229" y="847" type="qcurve"/>
      <point x="224" y="865"/>
      <point x="206" y="853" type="qcurve" smooth="yes"/>
      <point x="190" y="847"/>
      <point x="183" y="842" type="qcurve" smooth="yes"/>
      <point x="109" y="795"/>
      <point x="170" y="733" type="qcurve" smooth="yes"/>
      <point x="220" y="684"/>
      <point x="206" y="627" type="qcurve" smooth="yes"/>
      <point x="199" y="604"/>
      <point x="174" y="573" type="qcurve" smooth="yes"/>
      <point x="161" y="557"/>
      <point x="163" y="534" type="qcurve" smooth="yes"/>
      <point x="165" y="507"/>
      <point x="215" y="462"/>
      <point x="247" y="459" type="qcurve" smooth="yes"/>
      <point x="432" y="441"/>
      <point x="537" y="591" type="qcurve" smooth="yes"/>
      <point x="573" y="643"/>
      <point x="584" y="697" type="qcurve"/>
    </contour>
    <contour>
      <point x="220" y="1089"/>
      <point x="206" y="1041" type="qcurve"/>
      <point x="195" y="930"/>
      <point x="306" y="840" type="qcurve" smooth="yes"/>
      <point x="387" y="772"/>
      <point x="539" y="774" type="qcurve" smooth="yes"/>
      <point x="555" y="774"/>
      <point x="557" y="781" type="qcurve"/>
      <point x="557" y="788"/>
      <point x="546" y="790" type="qcurve" smooth="yes"/>
      <point x="543" y="790"/>
      <point x="543" y="792" type="qcurve"/>
      <point x="444" y="833"/>
      <point x="426" y="847" type="qcurve" smooth="yes"/>
      <point x="423" y="849"/>
      <point x="387" y="872"/>
      <point x="374" y="881"/>
      <point x="351" y="903"/>
      <point x="337" y="926"/>
      <point x="333" y="940" type="qcurve" smooth="yes"/>
      <point x="324" y="967"/>
      <point x="346" y="1012"/>
      <point x="371" y="1019" type="qcurve" smooth="yes"/>
      <point x="421" y="1037"/>
      <point x="466" y="1019" type="qcurve" smooth="yes"/>
      <point x="494" y="1010"/>
      <point x="498" y="1037" type="qcurve" smooth="yes"/>
      <point x="507" y="1096"/>
      <point x="537" y="1137" type="qcurve" smooth="yes"/>
      <point x="559" y="1166"/>
      <point x="555" y="1186"/>
      <point x="525" y="1204" type="qcurve"/>
      <point x="523" y="1204"/>
      <point x="521" y="1207"/>
      <point x="521" y="1207" type="qcurve"/>
      <point x="455" y="1241"/>
      <point x="430" y="1171" type="qcurve" smooth="yes"/>
      <point x="398" y="1073"/>
      <point x="294" y="1094" type="qcurve" smooth="yes"/>
      <point x="276" y="1098"/>
      <point x="272" y="1098" type="qcurve" smooth="yes"/>
    </contour>
    <contour>
      <point x="154" y="566"/>
      <point x="201" y="629"/>
      <point x="197" y="663" type="qcurve" smooth="yes"/>
      <point x="195" y="697"/>
      <point x="136" y="742"/>
      <point x="99" y="738" type="qcurve" smooth="yes"/>
      <point x="65" y="736"/>
      <point x="18" y="677"/>
      <point x="20" y="643" type="qcurve" smooth="yes"/>
      <point x="22" y="607"/>
      <point x="81" y="559"/>
      <point x="115" y="564" type="qcurve" smooth="yes"/>
    </contour>
    <contour>
      <point x="876" y="1236"/>
      <point x="831" y="1182"/>
      <point x="833" y="1146" type="qcurve" smooth="yes"/>
      <point x="838" y="1109"/>
      <point x="894" y="1062"/>
      <point x="931" y="1064" type="qcurve" smooth="yes"/>
      <point x="965" y="1069"/>
      <point x="1014" y="1123"/>
      <point x="1010" y="1159" type="qcurve" smooth="yes"/>
      <point x="1008" y="1193"/>
      <point x="949" y="1243"/>
      <point x="915" y="1241" type="qcurve" smooth="yes"/>
    </contour>
    <contour>
      <point x="414" y="1236"/>
      <point x="353" y="1281"/>
      <point x="319" y="1277" type="qcurve" smooth="yes"/>
      <point x="281" y="1275"/>
      <point x="238" y="1218"/>
      <point x="242" y="1177" type="qcurve" smooth="yes"/>
      <point x="247" y="1146"/>
      <point x="306" y="1100"/>
      <point x="337" y="1105" type="qcurve" smooth="yes"/>
      <point x="376" y="1112"/>
      <point x="421" y="1166"/>
      <point x="419" y="1204" type="qcurve" smooth="yes"/>
    </contour>
  </outline>
</glyph>
<glyph name="ArchLabs" format="2">
  <advance width="1200"/>
  <unicode hex="F31E"/>
  <note>
ArchLabs
</note>
  <outline>
    <contour>
      <point x="421" y="833"/>
      <point x="20" y="129" type="qcurve"/>
      <point x="192" y="226"/>
      <point x="378" y="306"/>
      <point x="480" y="328" type="qcurve"/>
      <point x="419" y="466"/>
      <point x="428" y="698"/>
      <point x="537" y="872"/>
      <point x="639" y="938" type="qcurve"/>
      <point x="643" y="877"/>
      <point x="697" y="754"/>
      <point x="756" y="657"/>
      <point x="806" y="548"/>
      <point x="804" y="403"/>
      <point x="770" y="317" type="qcurve"/>
      <point x="944" y="269"/>
      <point x="1180" y="131" type="qcurve"/>
      <point x="1033" y="392"/>
      <point x="688" y="1065"/>
      <point x="602" y="1291" type="qcurve"/>
    </contour>
    <contour>
      <point x="557" y="766"/>
      <point x="482" y="641"/>
      <point x="473" y="534"/>
      <point x="496" y="428"/>
      <point x="521" y="371"/>
      <point x="530" y="358" type="qcurve"/>
      <point x="507" y="410"/>
      <point x="525" y="509"/>
      <point x="568" y="582"/>
      <point x="582" y="582" type="qcurve" smooth="yes"/>
      <point x="607" y="582"/>
      <point x="654" y="448"/>
      <point x="639" y="247"/>
      <point x="577" y="176" type="qcurve"/>
      <point x="675" y="283"/>
      <point x="754" y="446"/>
      <point x="731" y="559"/>
      <point x="682" y="645"/>
      <point x="627" y="756"/>
      <point x="627" y="811" type="qcurve"/>
    </contour>
  </outline>
</glyph>
